SplineFontDB: 3.0
FontName: Nunito-Light
FullName: Nunito Light
FamilyName: Nunito
Weight: Light
Copyright: Copyright (c) 2011 by vernon adams. All rights reserved.
Version: 1.000
ItalicAngle: 0
UnderlinePosition: -103
UnderlineWidth: 102
Ascent: 1638
Descent: 410
sfntRevision: 0x00010000
LayerCount: 2
Layer: 0 1 "Back"  1
Layer: 1 1 "Fore"  0
XUID: [1021 759 1887733602 12295270]
FSType: 0
OS2Version: 2
OS2_WeightWidthSlopeOnly: 0
OS2_UseTypoMetrics: 1
CreationTime: 1305280980
ModificationTime: 1305284839
PfmFamily: 17
TTFWeight: 300
TTFWidth: 5
LineGap: 0
VLineGap: 0
Panose: 2 0 5 3 3 0 0 2 0 3
OS2TypoAscent: 354
OS2TypoAOffset: 1
OS2TypoDescent: -222
OS2TypoDOffset: 1
OS2TypoLinegap: 0
OS2WinAscent: 0
OS2WinAOffset: 1
OS2WinDescent: 0
OS2WinDOffset: 1
HheadAscent: 0
HheadAOffset: 1
HheadDescent: 0
HheadDOffset: 1
OS2SubXSize: 5583
OS2SubYSize: 5155
OS2SubXOff: 0
OS2SubYOff: 645
OS2SupXSize: 5583
OS2SupYSize: 5155
OS2SupXOff: 0
OS2SupYOff: 3006
OS2StrikeYSize: 102
OS2StrikeYPos: 512
OS2Vendor: 'newt'
OS2CodePages: 20000001.00000000
OS2UnicodeRanges: 800000ef.5000204b.00000000.00000000
Lookup: 258 0 0 "'kern' Horizontal Kerning in Latin lookup 0"  {"'kern' Horizontal Kerning in Latin lookup 0 subtable"  } ['kern' ('DFLT' <'dflt' > 'latn' <'dflt' > ) ]
DEI: 91125
TtTable: prep
PUSHW_1
 0
CALL
SVTCA[y-axis]
PUSHW_3
 1
 3
 2
CALL
SVTCA[x-axis]
PUSHW_3
 4
 3
 2
CALL
SVTCA[x-axis]
PUSHW_8
 4
 71
 55
 45
 30
 20
 0
 8
CALL
PUSHW_8
 5
 64
 55
 45
 30
 20
 0
 8
CALL
PUSHW_8
 6
 53
 43
 34
 30
 20
 0
 8
CALL
SVTCA[y-axis]
PUSHW_8
 1
 78
 71
 45
 30
 20
 0
 8
CALL
PUSHW_8
 2
 91
 71
 57
 41
 20
 0
 8
CALL
PUSHW_8
 3
 90
 71
 57
 41
 25
 0
 8
CALL
EndTTInstrs
TtTable: fpgm
PUSHW_1
 0
FDEF
MPPEM
PUSHW_1
 9
LT
IF
PUSHB_2
 1
 1
INSTCTRL
EIF
PUSHW_1
 511
SCANCTRL
PUSHW_1
 68
SCVTCI
PUSHW_2
 9
 3
SDS
SDB
ENDF
PUSHW_1
 1
FDEF
DUP
DUP
RCVT
ROUND[Black]
WCVTP
PUSHB_1
 1
ADD
ENDF
PUSHW_1
 2
FDEF
PUSHW_1
 1
LOOPCALL
POP
ENDF
PUSHW_1
 3
FDEF
DUP
GC[cur]
PUSHB_1
 3
CINDEX
GC[cur]
GT
IF

StartChar: exclam
Encoding: 33 33 4
Width: 793
Flags: W
LayerCount: 2
Fore
SplineSet
392 181 m 256,0,1
 419 181 419 181 439 173.5 c 128,-1,2
 459 166 459 166 472.5 153 c 128,-1,3
 486 140 486 140 493 124 c 128,-1,4
 500 108 500 108 500 92 c 0,5,6
 500 74 500 74 493 57.5 c 128,-1,7
 486 41 486 41 472.5 28.5 c 128,-1,8
 459 16 459 16 439 8 c 128,-1,9
 419 0 419 0 392 0 c 256,10,11
 365 0 365 0 344.5 8 c 128,-1,12
 324 16 324 16 310.5 28.5 c 128,-1,13
 297 41 297 41 290 57.5 c 128,-1,14
 283 74 283 74 283 92 c 0,15,16
 283 108 283 108 290 124 c 128,-1,17
 297 140 297 140 310.5 153 c 128,-1,18
 324 166 324 166 344.5 173.5 c 128,-1,19
 365 181 365 181 392 181 c 256,0,1
293 1400 m 1,20,21
 293 1439 293 1439 321 1459.5 c 128,-1,22
 349 1480 349 1480 386 1480 c 0,23,24
 422 1480 422 1480 449.5 1460.5 c 128,-1,25
 477 1441 477 1441 477 1400 c 1,26,-1
 449 438 l 2,27,28
 447 398 447 398 428 378 c 128,-1,29
 409 358 409 358 384 358 c 0,30,31
 361 358 361 358 341 378 c 128,-1,32
 321 398 321 398 320 438 c 2,33,-1
 293 1400 l 1,20,21
EndSplineSet
EndChar

StartChar: quotedbl
Encoding: 34 34 5
Width: 633
Flags: W
LayerCount: 2
Fore
SplineSet
365 1408 m 1,0,-1
 365 1414 l 2,1,2
 365 1446 365 1446 390.5 1463 c 128,-1,3
 416 1480 416 1480 447 1480 c 256,4,5
 478 1480 478 1480 503 1463.5 c 128,-1,6
 528 1447 528 1447 528 1414 c 2,7,-1
 528 1408 l 1,8,-1
 501 1059 l 2,9,10
 499 1027 499 1027 482 1010.5 c 128,-1,11
 465 994 465 994 446 994 c 0,12,13
 426 994 426 994 410 1010.5 c 128,-1,14
 394 1027 394 1027 392 1059 c 2,15,-1
 365 1408 l 1,0,-1
98 1408 m 1,16,-1
 98 1414 l 2,17,18
 98 1446 98 1446 123.5 1463 c 128,-1,19
 149 1480 149 1480 180 1480 c 256,20,21
 211 1480 211 1480 236 1463.5 c 128,-1,22
 261 1447 261 1447 261 1414 c 2,23,-1
 261 1408 l 1,24,-1
 234 1059 l 2,25,26
 232 1027 232 1027 215 1010.5 c 128,-1,27
 198 994 198 994 179 994 c 256,28,29
 160 994 160 994 143.5 1010.5 c 128,-1,30
 127 1027 127 1027 125 1059 c 2,31,-1
 98 1408 l 1,16,-1
EndSplineSet
EndChar

StartChar: numbersign
Encoding: 35 35 6
Width: 1169
Flags: W
LayerCount: 2
Fore
SplineSet
687 459 m 1,0,-1
 422 459 l 1,1,-1
 355 10 l 2,2,3
 350 -21 350 -21 329.5 -36 c 128,-1,4
 309 -51 309 -51 286 -51 c 0,5,6
 261 -51 261 -51 240.5 -34 c 128,-1,7
 220 -17 220 -17 220 15 c 0,8,9
 220 18 220 18 220 21.5 c 128,-1,10
 220 25 220 25 221 29 c 2,11,-1
 284 459 l 1,12,-1
 137 459 l 2,13,14
 105 459 105 459 88.5 479.5 c 128,-1,15
 72 500 72 500 72 524 c 0,16,17
 72 549 72 549 88 569 c 128,-1,18
 104 589 104 589 137 589 c 2,19,-1
 302 589 l 1,20,-1
 342 863 l 1,21,-1
 193 863 l 2,22,23
 161 863 161 863 144.5 883.5 c 128,-1,24
 128 904 128 904 128 929 c 256,25,26
 128 954 128 954 144 974 c 128,-1,27
 160 994 160 994 193 994 c 2,28,-1
 361 994 l 1,29,-1
 420 1399 l 2,30,31
 425 1430 425 1430 446.5 1445 c 128,-1,32
 468 1460 468 1460 492 1460 c 0,33,34
 518 1460 518 1460 538.5 1443.5 c 128,-1,35
 559 1427 559 1427 559 1395 c 0,36,37
 559 1392 559 1392 559 1388.5 c 128,-1,38
 559 1385 559 1385 558 1381 c 2,39,-1
 500 994 l 1,40,-1
 765 994 l 1,41,-1
 824 1399 l 2,42,43
 829 1430 829 1430 850.5 1445 c 128,-1,44
 872 1460 872 1460 896 1460 c 0,45,46
 922 1460 922 1460 942.5 1443.5 c 128,-1,47
 963 1427 963 1427 963 1395 c 0,48,49
 963 1392 963 1392 963 1388.5 c 128,-1,50
 963 1385 963 1385 962 1381 c 2,51,-1
 904 994 l 1,52,-1
 1031 994 l 2,53,54
 1063 994 1063 994 1079.5 973.5 c 128,-1,55
 1096 953 1096 953 1096 928 c 256,56,57
 1096 903 1096 903 1080 883 c 128,-1,58
 1064 863 1064 863 1031 863 c 2,59,-1
 885 863 l 1,60,-1
 845 589 l 1,61,-1
 974 589 l 2,62,63
 1006 589 1006 589 1023 568.5 c 128,-1,64
 1040 548 1040 548 1040 523 c 0,65,66
 1040 499 1040 499 1023.5 479 c 128,-1,67
 1007 459 1007 459 974 459 c 2,68,-1
 825 459 l 1,69,-1
 759 10 l 2,70,71
 754 -21 754 -21 733.5 -36 c 128,-1,72
 713 -51 713 -51 690 -51 c 0,73,74
 665 -51 665 -51 644.5 -34 c 128,-1,75
 624 -17 624 -17 624 15 c 0,76,77
 624 18 624 18 624 21.5 c 128,-1,78
 624 25 624 25 625 29 c 2,79,-1
 687 459 l 1,0,-1
441 589 m 1,80,-1
 706 589 l 1,81,-1
 746 863 l 1,82,-1
 481 863 l 1,83,-1
 441 589 l 1,80,-1
EndSplineSet
EndChar

StartChar: dollar
Encoding: 36 36 7
Width: 1274
Flags: W
LayerCount: 2
Fore
SplineSet
530 -41 m 1,0,1
 480 -40 480 -40 430.5 -32.5 c 128,-1,2
 381 -25 381 -25 335.5 -15 c 128,-1,3
 290 -5 290 -5 250 6.5 c 128,-1,4
 210 18 210 18 179 29 c 256,5,6
 148 40 148 40 134.5 60 c 128,-1,7
 121 80 121 80 121 101 c 0,8,9
 121 127 121 127 137.5 146.5 c 128,-1,10
 154 166 154 166 183 166 c 0,11,12
 196 166 196 166 208 162 c 0,13,14
 248 150 248 150 285 138.5 c 128,-1,15
 322 127 322 127 364 118 c 128,-1,16
 406 109 406 109 458 104 c 128,-1,17
 510 99 510 99 580 99 c 0,18,19
 645 99 645 99 707 114.5 c 128,-1,20
 769 130 769 130 817 160.5 c 128,-1,21
 865 191 865 191 894.5 236.5 c 128,-1,22
 924 282 924 282 924 342 c 0,23,24
 924 385 924 385 909.5 419 c 128,-1,25
 895 453 895 453 869.5 479.5 c 128,-1,26
 844 506 844 506 808.5 527 c 128,-1,27
 773 548 773 548 732 565 c 0,28,29
 663 593 663 593 588.5 615.5 c 128,-1,30
 514 638 514 638 443 661.5 c 128,-1,31
 372 685 372 685 308 714.5 c 128,-1,32
 244 744 244 744 196 787 c 128,-1,33
 148 830 148 830 119.5 890.5 c 128,-1,34
 91 951 91 951 91 1037 c 0,35,36
 91 1120 91 1120 126.5 1186.5 c 128,-1,37
 162 1253 162 1253 222 1300.5 c 128,-1,38
 282 1348 282 1348 361.5 1376 c 128,-1,39
 441 1404 441 1404 530 1411 c 1,40,-1
 530 1535 l 2,41,42
 530 1562 530 1562 547 1576 c 128,-1,43
 564 1590 564 1590 585 1590 c 0,44,45
 605 1590 605 1590 622 1576.5 c 128,-1,46
 639 1563 639 1563 639 1535 c 2,47,-1
 639 1411 l 1,48,49
 721 1407 721 1407 808 1393 c 128,-1,50
 895 1379 895 1379 968 1351 c 1,51,52
 997 1342 997 1342 1010.5 1322 c 128,-1,53
 1024 1302 1024 1302 1024 1280 c 0,54,55
 1024 1255 1024 1255 1007 1235.5 c 128,-1,56
 990 1216 990 1216 961 1216 c 0,57,58
 948 1216 948 1216 936 1220 c 1,59,60
 897 1229 897 1229 853.5 1238 c 128,-1,61
 810 1247 810 1247 766 1254 c 128,-1,62
 722 1261 722 1261 679 1265 c 128,-1,63
 636 1269 636 1269 598 1269 c 0,64,65
 543 1269 543 1269 485.5 1256.5 c 128,-1,66
 428 1244 428 1244 380.5 1218.5 c 128,-1,67
 333 1193 333 1193 303 1152.5 c 128,-1,68
 273 1112 273 1112 273 1057 c 0,69,70
 273 985 273 985 309 937 c 128,-1,71
 345 889 345 889 403.5 855.5 c 128,-1,72
 462 822 462 822 537.5 797.5 c 128,-1,73
 613 773 613 773 691 748.5 c 128,-1,74
 769 724 769 724 844.5 694.5 c 128,-1,75
 920 665 920 665 978.5 621 c 128,-1,76
 1037 577 1037 577 1073 514 c 128,-1,77
 1109 451 1109 451 1109 359 c 0,78,79
 1109 270 1109 270 1071 199.5 c 128,-1,80
 1033 129 1033 129 968.5 78.5 c 128,-1,81
 904 28 904 28 818.5 -2 c 128,-1,82
 733 -32 733 -32 639 -40 c 1,83,-1
 639 -176 l 2,84,85
 639 -203 639 -203 621 -217 c 128,-1,86
 603 -231 603 -231 582 -231 c 0,87,88
 562 -231 562 -231 546 -218 c 128,-1,89
 530 -205 530 -205 530 -176 c 2,90,-1
 530 -41 l 1,0,1
EndSplineSet
EndChar

StartChar: percent
Encoding: 37 37 8
Width: 2060
Flags: W
LayerCount: 2
Fore
SplineSet
557 1299 m 0,0,1
 502 1299 502 1299 464 1274.5 c 128,-1,2
 426 1250 426 1250 402.5 1210.5 c 128,-1,3
 379 1171 379 1171 368.5 1121 c 128,-1,4
 358 1071 358 1071 358 1020 c 256,5,6
 358 969 358 969 368.5 918.5 c 128,-1,7
 379 868 379 868 402.5 828.5 c 128,-1,8
 426 789 426 789 464 764.5 c 128,-1,9
 502 740 502 740 557 740 c 0,10,11
 613 740 613 740 651 764.5 c 128,-1,12
 689 789 689 789 712.5 828.5 c 128,-1,13
 736 868 736 868 746.5 918.5 c 128,-1,14
 757 969 757 969 757 1020 c 256,15,16
 757 1071 757 1071 746.5 1121 c 128,-1,17
 736 1171 736 1171 712.5 1210.5 c 128,-1,18
 689 1250 689 1250 651 1274.5 c 128,-1,19
 613 1299 613 1299 557 1299 c 0,0,1
1339 1399 m 2,20,21
 1351 1419 1351 1419 1366 1428 c 128,-1,22
 1381 1437 1381 1437 1395 1437 c 0,23,24
 1417 1437 1417 1437 1433 1420.5 c 128,-1,25
 1449 1404 1449 1404 1449 1380 c 0,26,27
 1449 1363 1449 1363 1440 1347 c 2,28,-1
 649 -42 l 2,29,30
 640 -58 640 -58 627.5 -64.5 c 128,-1,31
 615 -71 615 -71 601 -71 c 0,32,33
 578 -71 578 -71 559.5 -55.5 c 128,-1,34
 541 -40 541 -40 541 -17 c 0,35,36
 541 -5 541 -5 549 9 c 2,37,-1
 1339 1399 l 2,20,21
557 1403 m 0,38,39
 642 1403 642 1403 705 1370.5 c 128,-1,40
 768 1338 768 1338 810 1284 c 128,-1,41
 852 1230 852 1230 872.5 1161 c 128,-1,42
 893 1092 893 1092 893 1020 c 0,43,44
 893 942 893 942 870 872.5 c 128,-1,45
 847 803 847 803 804 750.5 c 128,-1,46
 761 698 761 698 698.5 667.5 c 128,-1,47
 636 637 636 637 557 637 c 0,48,49
 477 637 477 637 415 667 c 128,-1,50
 353 697 353 697 310.5 749 c 128,-1,51
 268 801 268 801 245.5 871 c 128,-1,52
 223 941 223 941 223 1020 c 0,53,54
 223 1098 223 1098 245.5 1167.5 c 128,-1,55
 268 1237 268 1237 311 1289.5 c 128,-1,56
 354 1342 354 1342 416 1372.5 c 128,-1,57
 478 1403 478 1403 557 1403 c 0,38,39
1502 735 m 0,58,59
 1587 735 1587 735 1650 702.5 c 128,-1,60
 1713 670 1713 670 1754.5 616.5 c 128,-1,61
 1796 563 1796 563 1816.5 494 c 128,-1,62
 1837 425 1837 425 1837 353 c 0,63,64
 1837 275 1837 275 1814.5 205.5 c 128,-1,65
 1792 136 1792 136 1749 83.5 c 128,-1,66
 1706 31 1706 31 1643.5 0 c 128,-1,67
 1581 -31 1581 -31 1502 -31 c 0,68,69
 1422 -31 1422 -31 1359.5 -0.5 c 128,-1,70
 1297 30 1297 30 1254.5 82.5 c 128,-1,71
 1212 135 1212 135 1189.5 204.5 c 128,-1,72
 1167 274 1167 274 1167 353 c 0,73,74
 1167 431 1167 431 1190 500 c 128,-1,75
 1213 569 1213 569 1256 621.5 c 128,-1,76
 1299 674 1299 674 1361 704.5 c 128,-1,77
 1423 735 1423 735 1502 735 c 0,58,59
1502 632 m 0,78,79
 1446 632 1446 632 1408 607.5 c 128,-1,80
 1370 583 1370 583 1346.5 543.5 c 128,-1,81
 1323 504 1323 504 1313 454 c 128,-1,82
 1303 404 1303 404 1303 353 c 256,83,84
 1303 302 1303 302 1313 251.5 c 128,-1,85
 1323 201 1323 201 1346.5 161.5 c 128,-1,86
 1370 122 1370 122 1408 97.5 c 128,-1,87
 1446 73 1446 73 1502 73 c 0,88,89
 1557 73 1557 73 1595.5 97.5 c 128,-1,90
 1634 122 1634 122 1657 161.5 c 128,-1,91
 1680 201 1680 201 1690.5 251.5 c 128,-1,92
 1701 302 1701 302 1701 353 c 256,93,94
 1701 404 1701 404 1690.5 454 c 128,-1,95
 1680 504 1680 504 1657 543.5 c 128,-1,96
 1634 583 1634 583 1595.5 607.5 c 128,-1,97
 1557 632 1557 632 1502 632 c 0,78,79
EndSplineSet
EndChar

StartChar: ampersand
Encoding: 38 38 9
Width: 1513
Flags: W
LayerCount: 2
Fore
SplineSet
1215 881 m 1,0,1
 1218 916 1218 916 1240 932 c 128,-1,2
 1262 948 1262 948 1288 948 c 0,3,4
 1303 948 1303 948 1317 943 c 128,-1,5
 1331 938 1331 938 1342.5 928.5 c 128,-1,6
 1354 919 1354 919 1361 905.5 c 128,-1,7
 1368 892 1368 892 1368 874 c 0,8,9
 1368 871 1368 871 1368 867.5 c 128,-1,10
 1368 864 1368 864 1367 861 c 0,11,12
 1362 809 1362 809 1354.5 740.5 c 128,-1,13
 1347 672 1347 672 1331 598 c 128,-1,14
 1315 524 1315 524 1289 448.5 c 128,-1,15
 1263 373 1263 373 1223 306 c 1,16,-1
 1382 134 l 2,17,18
 1393 121 1393 121 1398 107.5 c 128,-1,19
 1403 94 1403 94 1403 80 c 0,20,21
 1403 63 1403 63 1396 47.5 c 128,-1,22
 1389 32 1389 32 1377.5 20 c 128,-1,23
 1366 8 1366 8 1350.5 1 c 128,-1,24
 1335 -6 1335 -6 1319 -6 c 0,25,26
 1304 -6 1304 -6 1289 0.5 c 128,-1,27
 1274 7 1274 7 1260 22 c 2,28,-1
 1111 186 l 1,29,30
 1020 83 1020 83 910 27 c 128,-1,31
 800 -29 800 -29 656 -29 c 0,32,33
 543 -29 543 -29 442.5 0.5 c 128,-1,34
 342 30 342 30 267 85.5 c 128,-1,35
 192 141 192 141 148 222 c 128,-1,36
 104 303 104 303 104 406 c 0,37,38
 104 491 104 491 137 557 c 128,-1,39
 170 623 170 623 222.5 676 c 128,-1,40
 275 729 275 729 341 774.5 c 128,-1,41
 407 820 407 820 473 865 c 1,42,43
 437 904 437 904 401.5 946 c 128,-1,44
 366 988 366 988 337.5 1033.5 c 128,-1,45
 309 1079 309 1079 291.5 1128.5 c 128,-1,46
 274 1178 274 1178 274 1232 c 0,47,48
 274 1302 274 1302 304 1354.5 c 128,-1,49
 334 1407 334 1407 383.5 1441 c 128,-1,50
 433 1475 433 1475 495.5 1492 c 128,-1,51
 558 1509 558 1509 624 1509 c 0,52,53
 689 1509 689 1509 752.5 1493 c 128,-1,54
 816 1477 816 1477 866.5 1444 c 128,-1,55
 917 1411 917 1411 948 1360 c 128,-1,56
 979 1309 979 1309 979 1239 c 0,57,58
 979 1175 979 1175 956 1120 c 128,-1,59
 933 1065 933 1065 894.5 1017.5 c 128,-1,60
 856 970 856 970 807 928.5 c 128,-1,61
 758 887 758 887 707 849 c 1,62,-1
 1115 415 l 1,63,64
 1138 464 1138 464 1156 522.5 c 128,-1,65
 1174 581 1174 581 1186.5 642 c 128,-1,66
 1199 703 1199 703 1206.5 764 c 128,-1,67
 1214 825 1214 825 1215 881 c 1,0,1
576 758 m 1,68,69
 539 735 539 735 488.5 698.5 c 128,-1,70
 438 662 438 662 392 617.5 c 128,-1,71
 346 573 346 573 314 524.5 c 128,-1,72
 282 476 282 476 282 431 c 0,73,74
 282 355 282 355 312.5 295.5 c 128,-1,75
 343 236 343 236 393.5 194.5 c 128,-1,76
 444 153 444 153 510 131.5 c 128,-1,77
 576 110 576 110 647 110 c 0,78,79
 705 110 705 110 755.5 122.5 c 128,-1,80
 806 135 806 135 850.5 157.5 c 128,-1,81
 895 180 895 180 936 212.5 c 128,-1,82
 977 245 977 245 1017 286 c 1,83,-1
 576 758 l 1,68,69
449 1230 m 0,84,85
 449 1193 449 1193 463.5 1154.5 c 128,-1,86
 478 1116 478 1116 501 1079 c 128,-1,87
 524 1042 524 1042 552 1008.5 c 128,-1,88
 580 975 580 975 606 948 c 1,89,90
 638 978 638 978 673 1009 c 128,-1,91
 708 1040 708 1040 737.5 1074 c 128,-1,92
 767 1108 767 1108 786.5 1146.5 c 128,-1,93
 806 1185 806 1185 806 1230 c 0,94,95
 806 1266 806 1266 791 1293 c 128,-1,96
 776 1320 776 1320 751 1338 c 128,-1,97
 726 1356 726 1356 694.5 1364.5 c 128,-1,98
 663 1373 663 1373 630 1373 c 0,99,100
 595 1373 595 1373 562.5 1365 c 128,-1,101
 530 1357 530 1357 504.5 1340 c 128,-1,102
 479 1323 479 1323 464 1296 c 128,-1,103
 449 1269 449 1269 449 1230 c 0,84,85
EndSplineSet
EndChar

StartChar: quotesingle
Encoding: 39 39 10
Width: 584
Flags: W
LayerCount: 2
Fore
SplineSet
210 1408 m 1,0,-1
 210 1414 l 2,1,2
 210 1446 210 1446 235.5 1463 c 128,-1,3
 261 1480 261 1480 293 1480 c 0,4,5
 324 1480 324 1480 349 1463.5 c 128,-1,6
 374 1447 374 1447 374 1414 c 2,7,-1
 374 1408 l 1,8,-1
 346 1059 l 2,9,10
 343 1027 343 1027 327 1010.5 c 128,-1,11
 311 994 311 994 291 994 c 0,12,13
 272 994 272 994 256 1010.5 c 128,-1,14
 240 1027 240 1027 238 1059 c 2,15,-1
 210 1408 l 1,0,-1
EndSplineSet
EndChar

StartChar: parenleft
Encoding: 40 40 11
Width: 592
Flags: W
LayerCount: 2
Fore
SplineSet
362 -174 m 0,0,1
 321 -77 321 -77 283.5 22.5 c 128,-1,2
 246 122 246 122 217.5 223 c 128,-1,3
 189 324 189 324 172 426.5 c 128,-1,4
 155 529 155 529 155 633 c 256,5,6
 155 737 155 737 172 840.5 c 128,-1,7
 189 944 189 944 217.5 1046 c 128,-1,8
 246 1148 246 1148 283.5 1248.5 c 128,-1,9
 321 1349 321 1349 362 1447 c 0,10,11
 372 1471 372 1471 389 1482 c 128,-1,12
 406 1493 406 1493 424 1493 c 0,13,14
 448 1493 448 1493 467.5 1476 c 128,-1,15
 487 1459 487 1459 487 1432 c 0,16,17
 487 1426 487 1426 486 1419.5 c 128,-1,18
 485 1413 485 1413 482 1406 c 0,19,20
 410 1211 410 1211 369 1016 c 128,-1,21
 328 821 328 821 328 634 c 0,22,23
 328 448 328 448 368.5 254.5 c 128,-1,24
 409 61 409 61 481 -134 c 0,25,26
 486 -145 486 -145 486 -161 c 0,27,28
 486 -187 486 -187 467 -203.5 c 128,-1,29
 448 -220 448 -220 424 -220 c 0,30,31
 406 -220 406 -220 389.5 -209.5 c 128,-1,32
 373 -199 373 -199 362 -174 c 0,0,1
EndSplineSet
EndChar

StartChar: parenright
Encoding: 41 41 12
Width: 592
Flags: W
LayerCount: 2
Fore
SplineSet
232 -174 m 0,0,1
 221 -199 221 -199 204 -209.5 c 128,-1,2
 187 -220 187 -220 169 -220 c 0,3,4
 145 -220 145 -220 126 -203.5 c 128,-1,5
 107 -187 107 -187 107 -161 c 0,6,7
 107 -149 107 -149 113 -134 c 0,8,9
 185 61 185 61 225.5 254.5 c 128,-1,10
 266 448 266 448 266 634 c 0,11,12
 266 821 266 821 225 1015.5 c 128,-1,13
 184 1210 184 1210 112 1406 c 1,14,15
 106 1419 106 1419 106 1432 c 0,16,17
 106 1458 106 1458 126 1475 c 128,-1,18
 146 1492 146 1492 170 1492 c 0,19,20
 188 1492 188 1492 204.5 1481.5 c 128,-1,21
 221 1471 221 1471 232 1447 c 0,22,23
 273 1349 273 1349 310.5 1248.5 c 128,-1,24
 348 1148 348 1148 376.5 1046 c 128,-1,25
 405 944 405 944 422 840.5 c 128,-1,26
 439 737 439 737 439 633 c 256,27,28
 439 529 439 529 422 426.5 c 128,-1,29
 405 324 405 324 376.5 223 c 128,-1,30
 348 122 348 122 310.5 22.5 c 128,-1,31
 273 -77 273 -77 232 -174 c 0,0,1
EndSplineSet
EndChar

StartChar: asterisk
Encoding: 42 42 13
Width: 1105
Flags: W
LayerCount: 2
Fore
SplineSet
654 1139 m 1,0,-1
 898 1148 l 2,1,2
 925 1148 925 1148 943.5 1130.5 c 128,-1,3
 962 1113 962 1113 962 1086 c 0,4,5
 962 1061 962 1061 943.5 1043 c 128,-1,6
 925 1025 925 1025 898 1025 c 2,7,-1
 652 1034 l 1,8,-1
 778 830 l 1,9,10
 787 813 787 813 787 797 c 0,11,12
 787 775 787 775 770 756 c 128,-1,13
 753 737 753 737 724 737 c 0,14,15
 707 737 707 737 692 745 c 128,-1,16
 677 753 677 753 669 768 c 2,17,-1
 551 979 l 1,18,-1
 434 768 l 2,19,20
 426 753 426 753 410.5 745.5 c 128,-1,21
 395 738 395 738 378 737 c 0,22,23
 363 737 363 737 351.5 742.5 c 128,-1,24
 340 748 340 748 332 757 c 128,-1,25
 324 766 324 766 319.5 776.5 c 128,-1,26
 315 787 315 787 315 797 c 0,27,28
 315 813 315 813 324 830 c 1,29,-1
 451 1034 l 1,30,-1
 207 1025 l 2,31,32
 181 1025 181 1025 162 1043 c 128,-1,33
 143 1061 143 1061 143 1086 c 0,34,35
 143 1113 143 1113 161.5 1130.5 c 128,-1,36
 180 1148 180 1148 207 1148 c 1,37,-1
 448 1139 l 1,38,-1
 322 1343 l 2,39,40
 313 1358 313 1358 313 1375 c 0,41,42
 313 1398 313 1398 330.5 1417.5 c 128,-1,43
 348 1437 348 1437 376 1437 c 0,44,45
 393 1437 393 1437 408 1429 c 128,-1,46
 423 1421 423 1421 432 1405 c 2,47,-1
 551 1189 l 1,48,-1
 670 1405 l 1,49,50
 691 1437 691 1437 726 1437 c 0,51,52
 754 1437 754 1437 771.5 1417.5 c 128,-1,53
 789 1398 789 1398 789 1374 c 0,54,55
 789 1356 789 1356 781 1343 c 2,56,-1
 654 1139 l 1,0,-1
EndSplineSet
EndChar

StartChar: plus
Encoding: 43 43 14
Width: 1340
Flags: W
LayerCount: 2
Fore
SplineSet
739 563 m 1,0,-1
 1113 563 l 2,1,2
 1142 563 1142 563 1162.5 544 c 128,-1,3
 1183 525 1183 525 1183 496 c 0,4,5
 1183 469 1183 469 1162.5 449 c 128,-1,6
 1142 429 1142 429 1113 429 c 2,7,-1
 739 429 l 1,8,-1
 739 71 l 2,9,10
 739 43 739 43 718.5 23.5 c 128,-1,11
 698 4 698 4 670 4 c 0,12,13
 640 4 640 4 620 23 c 128,-1,14
 600 42 600 42 600 71 c 2,15,-1
 600 429 l 1,16,-1
 227 429 l 2,17,18
 198 429 198 429 177.5 449 c 128,-1,19
 157 469 157 469 157 496 c 0,20,21
 157 525 157 525 177.5 544 c 128,-1,22
 198 563 198 563 227 563 c 2,23,-1
 600 563 l 1,24,-1
 600 924 l 2,25,26
 600 953 600 953 620 972.5 c 128,-1,27
 640 992 640 992 670 992 c 0,28,29
 698 992 698 992 718.5 972.5 c 128,-1,30
 739 953 739 953 739 924 c 2,31,-1
 739 563 l 1,0,-1
EndSplineSet
EndChar

StartChar: comma
Encoding: 44 44 15
Width: 584
Flags: W
LayerCount: 2
Fore
SplineSet
249 -240 m 1,0,-1
 111 -240 l 1,1,-1
 204 185 l 1,2,-1
 401 185 l 1,3,-1
 249 -240 l 1,0,-1
EndSplineSet
EndChar

StartChar: hyphen
Encoding: 45 45 16
Width: 596
Flags: W
LayerCount: 2
Fore
SplineSet
104 457 m 2,0,1
 73 457 73 457 51.5 477 c 128,-1,2
 30 497 30 497 30 526 c 0,3,4
 30 557 30 557 51 577.5 c 128,-1,5
 72 598 72 598 104 598 c 2,6,-1
 493 598 l 2,7,8
 524 598 524 598 545 577.5 c 128,-1,9
 566 557 566 557 566 526 c 0,10,11
 566 497 566 497 545 477 c 128,-1,12
 524 457 524 457 493 457 c 2,13,-1
 104 457 l 2,0,1
EndSplineSet
EndChar

StartChar: period
Encoding: 46 46 17
Width: 584
Flags: W
LayerCount: 2
Fore
SplineSet
184 97 m 0,0,1
 184 115 184 115 191 132.5 c 128,-1,2
 198 150 198 150 212 163.5 c 128,-1,3
 226 177 226 177 246 185.5 c 128,-1,4
 266 194 266 194 292 194 c 0,5,6
 317 194 317 194 337 185.5 c 128,-1,7
 357 177 357 177 371 163.5 c 128,-1,8
 385 150 385 150 392 132.5 c 128,-1,9
 399 115 399 115 399 97 c 0,10,11
 399 78 399 78 392 60.5 c 128,-1,12
 385 43 385 43 371 29.5 c 128,-1,13
 357 16 357 16 337 7.5 c 128,-1,14
 317 -1 317 -1 292 -1 c 0,15,16
 266 -1 266 -1 246 7.5 c 128,-1,17
 226 16 226 16 212 29.5 c 128,-1,18
 198 43 198 43 191 60.5 c 128,-1,19
 184 78 184 78 184 97 c 0,0,1
EndSplineSet
EndChar

StartChar: slash
Encoding: 47 47 18
Width: 588
Flags: W
LayerCount: 2
Fore
SplineSet
116 -125 m 2,0,1
 107 -151 107 -151 88.5 -163 c 128,-1,2
 70 -175 70 -175 49 -175 c 0,3,4
 23 -175 23 -175 1.5 -158 c 128,-1,5
 -20 -141 -20 -141 -20 -110 c 0,6,7
 -20 -100 -20 -100 -15 -83 c 2,8,-1
 468 1380 l 2,9,10
 476 1406 476 1406 495.5 1418 c 128,-1,11
 515 1430 515 1430 537 1430 c 0,12,13
 564 1430 564 1430 586 1413 c 128,-1,14
 608 1396 608 1396 608 1365 c 0,15,16
 608 1354 608 1354 603 1337 c 2,17,-1
 116 -125 l 2,0,1
EndSplineSet
EndChar

StartChar: zero
Encoding: 48 48 19
Width: 1169
Flags: W
LayerCount: 2
Fore
SplineSet
584 1296 m 256,0,1
 514 1296 514 1296 464.5 1269 c 128,-1,2
 415 1242 415 1242 381 1196.5 c 128,-1,3
 347 1151 347 1151 326.5 1091.5 c 128,-1,4
 306 1032 306 1032 295.5 968.5 c 128,-1,5
 285 905 285 905 281.5 841 c 128,-1,6
 278 777 278 777 278 705 c 0,7,8
 278 641 278 641 281.5 576.5 c 128,-1,9
 285 512 285 512 295.5 448 c 128,-1,10
 306 384 306 384 326.5 325 c 128,-1,11
 347 266 347 266 381 220.5 c 128,-1,12
 415 175 415 175 465 147.5 c 128,-1,13
 515 120 515 120 584 120 c 0,14,15
 654 120 654 120 704 147.5 c 128,-1,16
 754 175 754 175 788 220.5 c 128,-1,17
 822 266 822 266 842.5 325 c 128,-1,18
 863 384 863 384 874 448 c 128,-1,19
 885 512 885 512 888.5 576.5 c 128,-1,20
 892 641 892 641 892 705 c 0,21,22
 892 777 892 777 888.5 841 c 128,-1,23
 885 905 885 905 874 968.5 c 128,-1,24
 863 1032 863 1032 842.5 1091.5 c 128,-1,25
 822 1151 822 1151 788 1196.5 c 128,-1,26
 754 1242 754 1242 704 1269 c 128,-1,27
 654 1296 654 1296 584 1296 c 256,0,1
584 1438 m 0,28,29
 683 1438 683 1438 757.5 1410 c 128,-1,30
 832 1382 832 1382 886.5 1332 c 128,-1,31
 941 1282 941 1282 977.5 1214 c 128,-1,32
 1014 1146 1014 1146 1035.5 1066.5 c 128,-1,33
 1057 987 1057 987 1066 899 c 128,-1,34
 1075 811 1075 811 1075 705 c 0,35,36
 1075 606 1075 606 1066 518 c 128,-1,37
 1057 430 1057 430 1035.5 350.5 c 128,-1,38
 1014 271 1014 271 977.5 202.5 c 128,-1,39
 941 134 941 134 886.5 84.5 c 128,-1,40
 832 35 832 35 757.5 6.5 c 128,-1,41
 683 -22 683 -22 584 -22 c 256,42,43
 485 -22 485 -22 410.5 6.5 c 128,-1,44
 336 35 336 35 281.5 84.5 c 128,-1,45
 227 134 227 134 190.5 202.5 c 128,-1,46
 154 271 154 271 132.5 350.5 c 128,-1,47
 111 430 111 430 102 518 c 128,-1,48
 93 606 93 606 93 705 c 0,49,50
 93 811 93 811 102 899 c 128,-1,51
 111 987 111 987 132.5 1066.5 c 128,-1,52
 154 1146 154 1146 190.5 1214 c 128,-1,53
 227 1282 227 1282 281.5 1332 c 128,-1,54
 336 1382 336 1382 411 1410 c 128,-1,55
 486 1438 486 1438 584 1438 c 0,28,29
EndSplineSet
EndChar

StartChar: one
Encoding: 49 49 20
Width: 1169
Flags: W
LayerCount: 2
Fore
SplineSet
329 1092 m 2,0,1
 312 1081 312 1081 294 1081 c 0,2,3
 266 1081 266 1081 246.5 1101.5 c 128,-1,4
 227 1122 227 1122 227 1148 c 0,5,6
 227 1162 227 1162 234 1175 c 128,-1,7
 241 1188 241 1188 257 1199 c 2,8,-1
 593 1412 l 2,9,10
 604 1419 604 1419 617 1422 c 128,-1,11
 630 1425 630 1425 643 1426 c 1,12,13
 675 1426 675 1426 701 1405 c 128,-1,14
 727 1384 727 1384 727 1340 c 2,15,-1
 727 83 l 2,16,17
 727 62 727 62 719.5 46.5 c 128,-1,18
 712 31 712 31 699.5 20.5 c 128,-1,19
 687 10 687 10 671 5 c 128,-1,20
 655 0 655 0 638 0 c 0,21,22
 622 0 622 0 606.5 5 c 128,-1,23
 591 10 591 10 578.5 20.5 c 128,-1,24
 566 31 566 31 558.5 46.5 c 128,-1,25
 551 62 551 62 551 83 c 2,26,-1
 551 1236 l 1,27,-1
 329 1092 l 2,0,1
EndSplineSet
EndChar

StartChar: two
Encoding: 50 50 21
Width: 1169
Flags: W
LayerCount: 2
Fore
SplineSet
588 1292 m 0,0,1
 551 1292 551 1292 514.5 1284.5 c 128,-1,2
 478 1277 478 1277 444 1265 c 128,-1,3
 410 1253 410 1253 379 1238.5 c 128,-1,4
 348 1224 348 1224 323 1209 c 0,5,6
 295 1193 295 1193 269 1193 c 0,7,8
 240 1193 240 1193 221 1210.5 c 128,-1,9
 202 1228 202 1228 202 1254 c 0,10,11
 202 1275 202 1275 220.5 1297 c 128,-1,12
 239 1319 239 1319 270 1339.5 c 128,-1,13
 301 1360 301 1360 341.5 1378 c 128,-1,14
 382 1396 382 1396 426.5 1409.5 c 128,-1,15
 471 1423 471 1423 516.5 1430.5 c 128,-1,16
 562 1438 562 1438 602 1438 c 0,17,18
 687 1438 687 1438 763.5 1416.5 c 128,-1,19
 840 1395 840 1395 898 1352.5 c 128,-1,20
 956 1310 956 1310 990.5 1247 c 128,-1,21
 1025 1184 1025 1184 1025 1101 c 0,22,23
 1025 1024 1025 1024 991 941 c 128,-1,24
 957 858 957 858 900.5 774 c 128,-1,25
 844 690 844 690 771.5 605.5 c 128,-1,26
 699 521 699 521 621.5 444 c 128,-1,27
 544 367 544 367 460 283.5 c 128,-1,28
 376 200 376 200 313 145 c 1,29,-1
 953 145 l 2,30,31
 988 145 988 145 1005.5 122 c 128,-1,32
 1023 99 1023 99 1023 71 c 0,33,34
 1023 44 1023 44 1005.5 22 c 128,-1,35
 988 0 988 0 953 0 c 2,36,-1
 227 0 l 2,37,38
 164 0 164 0 135 26 c 128,-1,39
 106 52 106 52 106 90 c 0,40,41
 106 120 106 120 123 153 c 128,-1,42
 140 186 140 186 173 216 c 0,43,44
 223 261 223 261 298 340 c 128,-1,45
 373 419 373 419 446 492.5 c 128,-1,46
 519 566 519 566 590 647 c 128,-1,47
 661 728 661 728 717.5 806 c 128,-1,48
 774 884 774 884 808.5 956.5 c 128,-1,49
 843 1029 843 1029 843 1087 c 0,50,51
 843 1138 843 1138 821.5 1176 c 128,-1,52
 800 1214 800 1214 764.5 1240 c 128,-1,53
 729 1266 729 1266 683 1279 c 128,-1,54
 637 1292 637 1292 588 1292 c 0,0,1
EndSplineSet
EndChar

StartChar: three
Encoding: 51 51 22
Width: 1169
Flags: W
LayerCount: 2
Fore
SplineSet
527 796 m 2,0,1
 588 797 588 797 645 812 c 128,-1,2
 702 827 702 827 746.5 858 c 128,-1,3
 791 889 791 889 817.5 935 c 128,-1,4
 844 981 844 981 844 1047 c 0,5,6
 844 1105 844 1105 821 1150 c 128,-1,7
 798 1195 798 1195 759.5 1226 c 128,-1,8
 721 1257 721 1257 670 1272.5 c 128,-1,9
 619 1288 619 1288 563 1288 c 0,10,11
 510 1288 510 1288 458 1277.5 c 128,-1,12
 406 1267 406 1267 362.5 1254.5 c 128,-1,13
 319 1242 319 1242 287 1231.5 c 128,-1,14
 255 1221 255 1221 243 1221 c 0,15,16
 210 1221 210 1221 190 1244.5 c 128,-1,17
 170 1268 170 1268 170 1297 c 0,18,19
 170 1317 170 1317 181.5 1334.5 c 128,-1,20
 193 1352 193 1352 217 1363 c 0,21,22
 292 1397 292 1397 375 1417.5 c 128,-1,23
 458 1438 458 1438 554 1438 c 0,24,25
 649 1438 649 1438 734.5 1414.5 c 128,-1,26
 820 1391 820 1391 885 1343 c 128,-1,27
 950 1295 950 1295 988 1222 c 128,-1,28
 1026 1149 1026 1149 1026 1049 c 0,29,30
 1026 985 1026 985 1004.5 933.5 c 128,-1,31
 983 882 983 882 945.5 841.5 c 128,-1,32
 908 801 908 801 858 774 c 128,-1,33
 808 747 808 747 752 735 c 1,34,-1
 752 731 l 1,35,36
 818 717 818 717 873 685.5 c 128,-1,37
 928 654 928 654 967.5 607.5 c 128,-1,38
 1007 561 1007 561 1028.5 501 c 128,-1,39
 1050 441 1050 441 1050 370 c 0,40,41
 1050 266 1050 266 1010 191.5 c 128,-1,42
 970 117 970 117 904 69.5 c 128,-1,43
 838 22 838 22 752.5 0 c 128,-1,44
 667 -22 667 -22 575 -22 c 0,45,46
 542 -22 542 -22 501 -17.5 c 128,-1,47
 460 -13 460 -13 416.5 -4 c 128,-1,48
 373 5 373 5 331.5 18 c 128,-1,49
 290 31 290 31 258 47.5 c 128,-1,50
 226 64 226 64 206 84 c 128,-1,51
 186 104 186 104 186 127 c 0,52,53
 186 154 186 154 206 176 c 128,-1,54
 226 198 226 198 258 198 c 0,55,56
 271 198 271 198 283 194 c 1,57,58
 307 183 307 183 339.5 171 c 128,-1,59
 372 159 372 159 410 149.5 c 128,-1,60
 448 140 448 140 490 133.5 c 128,-1,61
 532 127 532 127 576 127 c 0,62,63
 642 127 642 127 696 142.5 c 128,-1,64
 750 158 750 158 787.5 189 c 128,-1,65
 825 220 825 220 845.5 264.5 c 128,-1,66
 866 309 866 309 866 368 c 0,67,68
 866 438 866 438 839.5 491.5 c 128,-1,69
 813 545 813 545 768.5 582 c 128,-1,70
 724 619 724 619 665 638 c 128,-1,71
 606 657 606 657 542 657 c 2,72,-1
 467 657 l 2,73,74
 434 657 434 657 417 678 c 128,-1,75
 400 699 400 699 400 725 c 256,76,77
 400 751 400 751 417 772.5 c 128,-1,78
 434 794 434 794 467 795 c 2,79,-1
 527 796 l 2,0,1
EndSplineSet
EndChar

StartChar: four
Encoding: 52 52 23
Width: 1169
Flags: W
LayerCount: 2
Fore
SplineSet
618 1345 m 1,0,1
 644 1388 644 1388 681 1407 c 128,-1,2
 718 1426 718 1426 760 1426 c 0,3,4
 784 1426 784 1426 806.5 1419 c 128,-1,5
 829 1412 829 1412 846.5 1397 c 128,-1,6
 864 1382 864 1382 874 1358.5 c 128,-1,7
 884 1335 884 1335 884 1303 c 2,8,-1
 884 448 l 1,9,-1
 1038 448 l 2,10,11
 1071 448 1071 448 1087.5 427.5 c 128,-1,12
 1104 407 1104 407 1104 382 c 256,13,14
 1104 357 1104 357 1087.5 336.5 c 128,-1,15
 1071 316 1071 316 1038 316 c 2,16,-1
 883 316 l 1,17,-1
 883 80 l 2,18,19
 883 60 883 60 875.5 45 c 128,-1,20
 868 30 868 30 856 20 c 128,-1,21
 844 10 844 10 829 5 c 128,-1,22
 814 0 814 0 798 0 c 256,23,24
 782 0 782 0 766.5 5 c 128,-1,25
 751 10 751 10 739 20 c 128,-1,26
 727 30 727 30 719 45 c 128,-1,27
 711 60 711 60 711 80 c 2,28,-1
 711 316 l 1,29,-1
 134 316 l 2,30,31
 90 316 90 316 64 344.5 c 128,-1,32
 38 373 38 373 38 411 c 0,33,34
 38 426 38 426 42 442.5 c 128,-1,35
 46 459 46 459 57 474 c 1,36,-1
 618 1345 l 1,0,1
191 448 m 1,37,-1
 711 448 l 1,38,-1
 711 1263 l 1,39,-1
 191 448 l 1,37,-1
EndSplineSet
EndChar

StartChar: five
Encoding: 53 53 24
Width: 1169
Flags: W
LayerCount: 2
Fore
SplineSet
183 1348 m 2,0,1
 183 1383 183 1383 203.5 1404.5 c 128,-1,2
 224 1426 224 1426 266 1426 c 2,3,-1
 934 1426 l 2,4,5
 969 1426 969 1426 986 1404 c 128,-1,6
 1003 1382 1003 1382 1003 1356 c 0,7,8
 1003 1329 1003 1329 986 1307 c 128,-1,9
 969 1285 969 1285 934 1285 c 2,10,-1
 324 1285 l 1,11,-1
 322 783 l 1,12,13
 384 850 384 850 464 887 c 128,-1,14
 544 924 544 924 640 924 c 0,15,16
 739 924 739 924 819 887.5 c 128,-1,17
 899 851 899 851 955 788.5 c 128,-1,18
 1011 726 1011 726 1041.5 642 c 128,-1,19
 1072 558 1072 558 1072 457 c 0,20,21
 1072 351 1072 351 1037.5 264 c 128,-1,22
 1003 177 1003 177 940.5 113.5 c 128,-1,23
 878 50 878 50 790 14 c 128,-1,24
 702 -22 702 -22 595 -22 c 0,25,26
 518 -22 518 -22 448.5 -7 c 128,-1,27
 379 8 379 8 321 39 c 128,-1,28
 263 70 263 70 219.5 117.5 c 128,-1,29
 176 165 176 165 152 230 c 0,30,31
 147 244 147 244 144 254.5 c 128,-1,32
 141 265 141 265 141 276 c 0,33,34
 141 308 141 308 160 326 c 128,-1,35
 179 344 179 344 204 344 c 0,36,37
 222 344 222 344 240.5 333 c 128,-1,38
 259 322 259 322 273 297 c 1,39,40
 291 252 291 252 321.5 218 c 128,-1,41
 352 184 352 184 392 162 c 128,-1,42
 432 140 432 140 479 129 c 128,-1,43
 526 118 526 118 578 118 c 0,44,45
 657 118 657 118 715.5 144.5 c 128,-1,46
 774 171 774 171 812.5 217.5 c 128,-1,47
 851 264 851 264 870 326.5 c 128,-1,48
 889 389 889 389 889 464 c 0,49,50
 889 536 889 536 870.5 593.5 c 128,-1,51
 852 651 852 651 816 694 c 128,-1,52
 780 737 780 737 728 762 c 128,-1,53
 676 787 676 787 610 787 c 0,54,55
 556 787 556 787 512.5 773.5 c 128,-1,56
 469 760 469 760 435.5 739 c 128,-1,57
 402 718 402 718 378.5 693 c 128,-1,58
 355 668 355 668 341 645 c 1,59,60
 325 616 325 616 301 602 c 128,-1,61
 277 588 277 588 253 588 c 0,62,63
 225 588 225 588 204 607.5 c 128,-1,64
 183 627 183 627 183 665 c 2,65,-1
 183 1348 l 2,0,1
EndSplineSet
EndChar

StartChar: six
Encoding: 54 54 25
Width: 1169
Flags: W
LayerCount: 2
Fore
SplineSet
971 1366 m 0,0,1
 988 1358 988 1358 995.5 1343.5 c 128,-1,2
 1003 1329 1003 1329 1003 1313 c 0,3,4
 1003 1299 1003 1299 998 1285 c 128,-1,5
 993 1271 993 1271 984 1260 c 128,-1,6
 975 1249 975 1249 963 1242 c 128,-1,7
 951 1235 951 1235 937 1235 c 0,8,9
 929 1235 929 1235 920 1238 c 0,10,11
 853 1264 853 1264 790 1279 c 128,-1,12
 727 1294 727 1294 674 1294 c 0,13,14
 585 1294 585 1294 521 1268.5 c 128,-1,15
 457 1243 457 1243 412 1200 c 128,-1,16
 367 1157 367 1157 339.5 1099.5 c 128,-1,17
 312 1042 312 1042 297 977.5 c 128,-1,18
 282 913 282 913 276.5 845.5 c 128,-1,19
 271 778 271 778 271 714 c 1,20,21
 324 821 324 821 420.5 873.5 c 128,-1,22
 517 926 517 926 640 926 c 0,23,24
 744 926 744 926 826 892.5 c 128,-1,25
 908 859 908 859 964.5 799 c 128,-1,26
 1021 739 1021 739 1051 656 c 128,-1,27
 1081 573 1081 573 1081 464 c 0,28,29
 1081 348 1081 348 1049 262 c 128,-1,30
 1017 176 1017 176 956.5 113 c 128,-1,31
 896 50 896 50 809 14 c 128,-1,32
 722 -22 722 -22 613 -22 c 0,33,34
 513 -22 513 -22 435.5 2.5 c 128,-1,35
 358 27 358 27 299.5 71 c 128,-1,36
 241 115 241 115 201 176 c 128,-1,37
 161 237 161 237 136 309 c 128,-1,38
 111 381 111 381 100 475.5 c 128,-1,39
 89 570 89 570 89 655 c 0,40,41
 89 747 89 747 97.5 841 c 128,-1,42
 106 935 106 935 128.5 1022 c 128,-1,43
 151 1109 151 1109 191.5 1184.5 c 128,-1,44
 232 1260 232 1260 296.5 1316.5 c 128,-1,45
 361 1373 361 1373 451.5 1405.5 c 128,-1,46
 542 1438 542 1438 666 1438 c 0,47,48
 749 1438 749 1438 826.5 1419.5 c 128,-1,49
 904 1401 904 1401 971 1366 c 0,0,1
597 118 m 0,50,51
 670 118 670 118 727 142 c 128,-1,52
 784 166 784 166 823 208.5 c 128,-1,53
 862 251 862 251 882 310 c 128,-1,54
 902 369 902 369 902 455 c 0,55,56
 902 531 902 531 886 591.5 c 128,-1,57
 870 652 870 652 835.5 698 c 128,-1,58
 801 744 801 744 748 771.5 c 128,-1,59
 695 799 695 799 620 799 c 0,60,61
 541 799 541 799 480.5 773 c 128,-1,62
 420 747 420 747 378.5 701 c 128,-1,63
 337 655 337 655 316 592.5 c 128,-1,64
 295 530 295 530 295 447 c 0,65,66
 295 368 295 368 317.5 311 c 128,-1,67
 340 254 340 254 380.5 211.5 c 128,-1,68
 421 169 421 169 476 143.5 c 128,-1,69
 531 118 531 118 597 118 c 0,50,51
EndSplineSet
EndChar

StartChar: seven
Encoding: 55 55 26
Width: 1169
Flags: W
LayerCount: 2
Fore
SplineSet
512 49 m 2,0,1
 501 23 501 23 479 11.5 c 128,-1,2
 457 0 457 0 434 0 c 0,3,4
 416 0 416 0 399 6 c 128,-1,5
 382 12 382 12 368.5 23 c 128,-1,6
 355 34 355 34 346.5 49.5 c 128,-1,7
 338 65 338 65 338 83 c 0,8,9
 338 99 338 99 347 119 c 2,10,-1
 856 1281 l 1,11,-1
 176 1281 l 2,12,13
 139 1281 139 1281 121 1303.5 c 128,-1,14
 103 1326 103 1326 103 1353 c 256,15,16
 103 1380 103 1380 121 1403 c 128,-1,17
 139 1426 139 1426 176 1426 c 2,18,-1
 941 1426 l 2,19,20
 995 1426 995 1426 1020 1400 c 128,-1,21
 1045 1374 1045 1374 1045 1336 c 0,22,23
 1045 1302 1045 1302 1029 1267 c 1,24,-1
 512 49 l 2,0,1
EndSplineSet
EndChar

StartChar: eight
Encoding: 56 56 27
Width: 1169
Flags: W
LayerCount: 2
Fore
SplineSet
392 737 m 1,0,1
 330 744 330 744 278 777 c 128,-1,2
 226 810 226 810 188 852 c 128,-1,3
 150 894 150 894 128.5 948.5 c 128,-1,4
 107 1003 107 1003 107 1064 c 0,5,6
 107 1159 107 1159 147 1229 c 128,-1,7
 187 1299 187 1299 253.5 1345.5 c 128,-1,8
 320 1392 320 1392 406 1415 c 128,-1,9
 492 1438 492 1438 584 1438 c 0,10,11
 677 1438 677 1438 763.5 1415 c 128,-1,12
 850 1392 850 1392 916 1345.5 c 128,-1,13
 982 1299 982 1299 1022 1229 c 128,-1,14
 1062 1159 1062 1159 1062 1064 c 0,15,16
 1062 1001 1062 1001 1040.5 949 c 128,-1,17
 1019 897 1019 897 981.5 857 c 128,-1,18
 944 817 944 817 892 783.5 c 128,-1,19
 840 750 840 750 779 737 c 1,20,-1
 779 735 l 1,21,22
 922 695 922 695 1003 603.5 c 128,-1,23
 1084 512 1084 512 1084 377 c 0,24,25
 1084 280 1084 280 1043 204 c 128,-1,26
 1002 128 1002 128 933 78 c 128,-1,27
 864 28 864 28 773.5 3 c 128,-1,28
 683 -22 683 -22 584 -22 c 256,29,30
 485 -22 485 -22 394.5 3 c 128,-1,31
 304 28 304 28 235.5 78 c 128,-1,32
 167 128 167 128 126 204 c 128,-1,33
 85 280 85 280 85 377 c 0,34,35
 85 442 85 442 106.5 497.5 c 128,-1,36
 128 553 128 553 168 596.5 c 128,-1,37
 208 640 208 640 265 679.5 c 128,-1,38
 322 719 322 719 392 733 c 1,39,-1
 392 737 l 1,0,1
279 1061 m 0,40,41
 279 1000 279 1000 302 954.5 c 128,-1,42
 325 909 325 909 365.5 878.5 c 128,-1,43
 406 848 406 848 462 833 c 128,-1,44
 518 818 518 818 584 818 c 0,45,46
 651 818 651 818 707 833 c 128,-1,47
 763 848 763 848 803.5 878.5 c 128,-1,48
 844 909 844 909 867 954.5 c 128,-1,49
 890 1000 890 1000 890 1061 c 0,50,51
 890 1127 890 1127 863.5 1173.5 c 128,-1,52
 837 1220 837 1220 793.5 1249.5 c 128,-1,53
 750 1279 750 1279 695 1293 c 128,-1,54
 640 1307 640 1307 584 1307 c 256,55,56
 528 1307 528 1307 473.5 1293 c 128,-1,57
 419 1279 419 1279 376 1249.5 c 128,-1,58
 333 1220 333 1220 306 1173.5 c 128,-1,59
 279 1127 279 1127 279 1061 c 0,40,41
267 383 m 0,60,61
 267 317 267 317 293.5 266 c 128,-1,62
 320 215 320 215 364 182 c 128,-1,63
 408 149 408 149 465 133.5 c 128,-1,64
 522 118 522 118 584 118 c 256,65,66
 646 118 646 118 703.5 133.5 c 128,-1,67
 761 149 761 149 805 182 c 128,-1,68
 849 215 849 215 875 266 c 128,-1,69
 901 317 901 317 901 383 c 0,70,71
 901 453 901 453 875 503.5 c 128,-1,72
 849 554 849 554 805 587 c 128,-1,73
 761 620 761 620 703.5 642 c 128,-1,74
 646 664 646 664 584 664 c 256,75,76
 522 664 522 664 465 642 c 128,-1,77
 408 620 408 620 364 587 c 128,-1,78
 320 554 320 554 293.5 503.5 c 128,-1,79
 267 453 267 453 267 383 c 0,60,61
EndSplineSet
EndChar

StartChar: nine
Encoding: 57 57 28
Width: 1169
Flags: W
LayerCount: 2
Fore
SplineSet
198 50 m 0,0,1
 181 58 181 58 173.5 72.5 c 128,-1,2
 166 87 166 87 166 104 c 0,3,4
 166 119 166 119 171 133.5 c 128,-1,5
 176 148 176 148 185 159.5 c 128,-1,6
 194 171 194 171 206 178 c 128,-1,7
 218 185 218 185 232 185 c 0,8,9
 240 185 240 185 249 182 c 0,10,11
 321 154 321 154 388.5 140 c 128,-1,12
 456 126 456 126 511 126 c 0,13,14
 595 126 595 126 656.5 152 c 128,-1,15
 718 178 718 178 761 223 c 128,-1,16
 804 268 804 268 831 329 c 128,-1,17
 858 390 858 390 873 460 c 128,-1,18
 888 530 888 530 893.5 591.5 c 128,-1,19
 899 653 899 653 899 728 c 1,20,-1
 897 728 l 2,21,22
 895 728 895 728 895 729 c 1,23,24
 871 675 871 675 833 635 c 128,-1,25
 795 595 795 595 748 569 c 128,-1,26
 701 543 701 543 645 530 c 128,-1,27
 589 517 589 517 529 517 c 0,28,29
 425 517 425 517 343 550 c 128,-1,30
 261 583 261 583 204.5 643 c 128,-1,31
 148 703 148 703 118.5 786 c 128,-1,32
 89 869 89 869 89 968 c 0,33,34
 89 1068 89 1068 121 1154 c 128,-1,35
 153 1240 153 1240 213.5 1303 c 128,-1,36
 274 1366 274 1366 360.5 1402 c 128,-1,37
 447 1438 447 1438 556 1438 c 0,38,39
 656 1438 656 1438 734 1413.5 c 128,-1,40
 812 1389 812 1389 870.5 1345 c 128,-1,41
 929 1301 929 1301 969 1240 c 128,-1,42
 1009 1179 1009 1179 1034 1107 c 128,-1,43
 1059 1035 1059 1035 1070 953.5 c 128,-1,44
 1081 872 1081 872 1081 787 c 0,45,46
 1081 690 1081 690 1072.5 604 c 128,-1,47
 1064 518 1064 518 1041.5 425 c 128,-1,48
 1019 332 1019 332 978.5 250.5 c 128,-1,49
 938 169 938 169 873.5 108.5 c 128,-1,50
 809 48 809 48 718.5 13 c 128,-1,51
 628 -22 628 -22 504 -22 c 0,52,53
 421 -22 421 -22 343 -3.5 c 128,-1,54
 265 15 265 15 198 50 c 0,0,1
572 1298 m 0,55,56
 498 1298 498 1298 441.5 1274 c 128,-1,57
 385 1250 385 1250 346.5 1207.5 c 128,-1,58
 308 1165 308 1165 288 1106 c 128,-1,59
 268 1047 268 1047 268 977 c 0,60,61
 268 911 268 911 284 850.5 c 128,-1,62
 300 790 300 790 334 744 c 128,-1,63
 368 698 368 698 421 670.5 c 128,-1,64
 474 643 474 643 549 643 c 0,65,66
 628 643 628 643 688.5 669 c 128,-1,67
 749 695 749 695 790.5 741 c 128,-1,68
 832 787 832 787 853 849.5 c 128,-1,69
 874 912 874 912 874 985 c 0,70,71
 874 1048 874 1048 851.5 1105 c 128,-1,72
 829 1162 829 1162 789 1204.5 c 128,-1,73
 749 1247 749 1247 693.5 1272.5 c 128,-1,74
 638 1298 638 1298 572 1298 c 0,55,56
EndSplineSet
EndChar

StartChar: colon
Encoding: 58 58 29
Width: 584
Flags: W
LayerCount: 2
Fore
SplineSet
184 902 m 256,0,1
 184 921 184 921 191 938.5 c 128,-1,2
 198 956 198 956 212 969.5 c 128,-1,3
 226 983 226 983 246 991.5 c 128,-1,4
 266 1000 266 1000 292 1000 c 0,5,6
 317 1000 317 1000 337 991.5 c 128,-1,7
 357 983 357 983 371 969.5 c 128,-1,8
 385 956 385 956 392 938.5 c 128,-1,9
 399 921 399 921 399 902 c 256,10,11
 399 883 399 883 392 865.5 c 128,-1,12
 385 848 385 848 371 834.5 c 128,-1,13
 357 821 357 821 337 813 c 128,-1,14
 317 805 317 805 292 805 c 0,15,16
 266 805 266 805 246 813 c 128,-1,17
 226 821 226 821 212 834.5 c 128,-1,18
 198 848 198 848 191 865.5 c 128,-1,19
 184 883 184 883 184 902 c 256,0,1
184 97 m 0,20,21
 184 115 184 115 191 132.5 c 128,-1,22
 198 150 198 150 212 163.5 c 128,-1,23
 226 177 226 177 246 185.5 c 128,-1,24
 266 194 266 194 292 194 c 0,25,26
 317 194 317 194 337 185.5 c 128,-1,27
 357 177 357 177 371 163.5 c 128,-1,28
 385 150 385 150 392 132.5 c 128,-1,29
 399 115 399 115 399 97 c 0,30,31
 399 78 399 78 392 60.5 c 128,-1,32
 385 43 385 43 371 29.5 c 128,-1,33
 357 16 357 16 337 7.5 c 128,-1,34
 317 -1 317 -1 292 -1 c 0,35,36
 266 -1 266 -1 246 7.5 c 128,-1,37
 226 16 226 16 212 29.5 c 128,-1,38
 198 43 198 43 191 60.5 c 128,-1,39
 184 78 184 78 184 97 c 0,20,21
EndSplineSet
EndChar

StartChar: semicolon
Encoding: 59 59 30
Width: 584
Flags: W
LayerCount: 2
Fore
SplineSet
210 924 m 0,0,1
 210 942 210 942 217 959.5 c 128,-1,2
 224 977 224 977 237.5 990.5 c 128,-1,3
 251 1004 251 1004 271 1012 c 128,-1,4
 291 1020 291 1020 317 1020 c 256,5,6
 343 1020 343 1020 363 1012 c 128,-1,7
 383 1004 383 1004 397 990.5 c 128,-1,8
 411 977 411 977 418 959.5 c 128,-1,9
 425 942 425 942 425 924 c 0,10,11
 425 905 425 905 418 887 c 128,-1,12
 411 869 411 869 397 855.5 c 128,-1,13
 383 842 383 842 363 833.5 c 128,-1,14
 343 825 343 825 317 825 c 256,15,16
 291 825 291 825 271 833.5 c 128,-1,17
 251 842 251 842 237.5 855.5 c 128,-1,18
 224 869 224 869 217 887 c 128,-1,19
 210 905 210 905 210 924 c 0,0,1
284 -240 m 1,20,-1
 146 -240 l 1,21,-1
 239 185 l 1,22,-1
 436 185 l 1,23,-1
 284 -240 l 1,20,-1
EndSplineSet
EndChar

StartChar: less
Encoding: 60 60 31
Width: 1340
Flags: W
LayerCount: 2
Fore
SplineSet
197 419 m 2,0,1
 166 433 166 433 152 453.5 c 128,-1,2
 138 474 138 474 138 495 c 0,3,4
 138 517 138 517 153 538.5 c 128,-1,5
 168 560 168 560 200 574 c 2,6,-1
 1087 952 l 1,7,8
 1099 956 1099 956 1112 956 c 0,9,10
 1142 956 1142 956 1161 935 c 128,-1,11
 1180 914 1180 914 1180 889 c 0,12,13
 1180 872 1180 872 1170.5 857 c 128,-1,14
 1161 842 1161 842 1139 833 c 2,15,-1
 338 495 l 1,16,-1
 1142 138 l 2,17,18
 1163 128 1163 128 1172 113.5 c 128,-1,19
 1181 99 1181 99 1181 82 c 0,20,21
 1181 57 1181 57 1163 36.5 c 128,-1,22
 1145 16 1145 16 1117 16 c 0,23,24
 1104 16 1104 16 1089 22 c 2,25,-1
 197 419 l 2,0,1
EndSplineSet
EndChar

StartChar: equal
Encoding: 61 61 32
Width: 1340
Flags: W
LayerCount: 2
Fore
SplineSet
227 233 m 2,0,1
 198 233 198 233 177.5 252.5 c 128,-1,2
 157 272 157 272 157 299 c 0,3,4
 157 328 157 328 177.5 347.5 c 128,-1,5
 198 367 198 367 227 367 c 2,6,-1
 1113 367 l 2,7,8
 1142 367 1142 367 1162 347.5 c 128,-1,9
 1182 328 1182 328 1182 299 c 0,10,11
 1182 272 1182 272 1162 252.5 c 128,-1,12
 1142 233 1142 233 1113 233 c 2,13,-1
 227 233 l 2,0,1
227 625 m 2,14,15
 198 625 198 625 177.5 645 c 128,-1,16
 157 665 157 665 157 692 c 0,17,18
 157 721 157 721 177.5 740.5 c 128,-1,19
 198 760 198 760 227 760 c 2,20,-1
 1113 760 l 2,21,22
 1142 760 1142 760 1162 740.5 c 128,-1,23
 1182 721 1182 721 1182 692 c 0,24,25
 1182 665 1182 665 1162 645 c 128,-1,26
 1142 625 1142 625 1113 625 c 2,27,-1
 227 625 l 2,14,15
EndSplineSet
EndChar

StartChar: greater
Encoding: 62 62 33
Width: 1340
Flags: W
LayerCount: 2
Fore
SplineSet
1142 571 m 2,0,1
 1173 557 1173 557 1187 536 c 128,-1,2
 1201 515 1201 515 1201 495 c 0,3,4
 1201 472 1201 472 1186 451 c 128,-1,5
 1171 430 1171 430 1139 416 c 2,6,-1
 252 38 l 1,7,8
 237 33 237 33 226 33 c 0,9,10
 196 33 196 33 177.5 54 c 128,-1,11
 159 75 159 75 159 101 c 0,12,13
 159 118 159 118 168.5 133 c 128,-1,14
 178 148 178 148 199 157 c 2,15,-1
 1001 495 l 1,16,-1
 197 852 l 2,17,18
 177 861 177 861 167.5 876 c 128,-1,19
 158 891 158 891 158 908 c 0,20,21
 158 933 158 933 175.5 953.5 c 128,-1,22
 193 974 193 974 221 974 c 0,23,24
 235 974 235 974 250 968 c 2,25,-1
 1142 571 l 2,0,1
EndSplineSet
EndChar

StartChar: question
Encoding: 63 63 34
Width: 1032
Flags: W
LayerCount: 2
Fore
SplineSet
222 1333 m 0,0,1
 212 1331 212 1331 207 1331 c 0,2,3
 178 1331 178 1331 160.5 1354 c 128,-1,4
 143 1377 143 1377 143 1405 c 0,5,6
 143 1428 143 1428 157.5 1449.5 c 128,-1,7
 172 1471 172 1471 205 1479 c 0,8,9
 274 1497 274 1497 346.5 1503.5 c 128,-1,10
 419 1510 419 1510 488 1510 c 0,11,12
 570 1510 570 1510 642.5 1488 c 128,-1,13
 715 1466 715 1466 770 1420 c 128,-1,14
 825 1374 825 1374 857 1304.5 c 128,-1,15
 889 1235 889 1235 889 1140 c 0,16,17
 889 1076 889 1076 872.5 1025.5 c 128,-1,18
 856 975 856 975 827.5 931.5 c 128,-1,19
 799 888 799 888 761 848.5 c 128,-1,20
 723 809 723 809 681 769 c 1,21,22
 633 719 633 719 598 687 c 128,-1,23
 563 655 563 655 540.5 630 c 128,-1,24
 518 605 518 605 507.5 581.5 c 128,-1,25
 497 558 497 558 496 524 c 1,26,-1
 496 527 l 1,27,-1
 496 509 l 2,28,29
 496 498 496 498 496.5 478 c 128,-1,30
 497 458 497 458 497 426 c 0,31,32
 497 391 497 391 473 373 c 128,-1,33
 449 355 449 355 420 355 c 0,34,35
 385 355 385 355 368.5 369.5 c 128,-1,36
 352 384 352 384 346 411.5 c 128,-1,37
 340 439 340 439 341 479.5 c 128,-1,38
 342 520 342 520 342 571 c 1,39,40
 344 621 344 621 372 664.5 c 128,-1,41
 400 708 400 708 441 749.5 c 128,-1,42
 482 791 482 791 529 832 c 128,-1,43
 576 873 576 873 616.5 918.5 c 128,-1,44
 657 964 657 964 684 1015 c 128,-1,45
 711 1066 711 1066 711 1128 c 0,46,47
 711 1195 711 1195 688.5 1239.5 c 128,-1,48
 666 1284 666 1284 629.5 1310.5 c 128,-1,49
 593 1337 593 1337 545.5 1348 c 128,-1,50
 498 1359 498 1359 448 1359 c 0,51,52
 434 1359 434 1359 408 1357.5 c 128,-1,53
 382 1356 382 1356 350.5 1353 c 128,-1,54
 319 1350 319 1350 285 1345 c 128,-1,55
 251 1340 251 1340 222 1333 c 0,0,1
317 88 m 0,56,57
 317 106 317 106 324 123.5 c 128,-1,58
 331 141 331 141 344.5 154.5 c 128,-1,59
 358 168 358 168 378 176 c 128,-1,60
 398 184 398 184 424 184 c 256,61,62
 450 184 450 184 470 176 c 128,-1,63
 490 168 490 168 504 154.5 c 128,-1,64
 518 141 518 141 525 123.5 c 128,-1,65
 532 106 532 106 532 88 c 0,66,67
 532 69 532 69 525 51 c 128,-1,68
 518 33 518 33 504 19.5 c 128,-1,69
 490 6 490 6 470 -2.5 c 128,-1,70
 450 -11 450 -11 424 -11 c 256,71,72
 398 -11 398 -11 378 -2.5 c 128,-1,73
 358 6 358 6 344.5 19.5 c 128,-1,74
 331 33 331 33 324 51 c 128,-1,75
 317 69 317 69 317 88 c 0,56,57
EndSplineSet
EndChar

StartChar: at
Encoding: 64 64 35
Width: 1638
Flags: W
LayerCount: 2
Fore
SplineSet
538 604 m 0,0,1
 538 567 538 567 548.5 532.5 c 128,-1,2
 559 498 559 498 579.5 472 c 128,-1,3
 600 446 600 446 629 430 c 128,-1,4
 658 414 658 414 695 414 c 256,5,6
 732 414 732 414 772 425.5 c 128,-1,7
 812 437 812 437 848 460 c 128,-1,8
 884 483 884 483 912.5 517 c 128,-1,9
 941 551 941 551 956 596 c 2,10,-1
 1037 844 l 2,11,12
 1046 872 1046 872 1046 898 c 0,13,14
 1046 935 1046 935 1029.5 964.5 c 128,-1,15
 1013 994 1013 994 988.5 1014.5 c 128,-1,16
 964 1035 964 1035 934 1046 c 128,-1,17
 904 1057 904 1057 877 1057 c 0,18,19
 826 1057 826 1057 781 1036 c 128,-1,20
 736 1015 736 1015 698.5 979.5 c 128,-1,21
 661 944 661 944 631 897.5 c 128,-1,22
 601 851 601 851 580.5 800.5 c 128,-1,23
 560 750 560 750 549 699 c 128,-1,24
 538 648 538 648 538 604 c 0,0,1
1087 123 m 0,25,26
 1099 127 1099 127 1113 127 c 0,27,28
 1139 127 1139 127 1152 111 c 128,-1,29
 1165 95 1165 95 1165 75 c 0,30,31
 1165 59 1165 59 1156.5 45 c 128,-1,32
 1148 31 1148 31 1130 26 c 0,33,34
 963 -25 963 -25 807 -25 c 0,35,36
 647 -25 647 -25 510 27 c 128,-1,37
 373 79 373 79 272.5 177.5 c 128,-1,38
 172 276 172 276 115 418 c 128,-1,39
 58 560 58 560 58 740 c 0,40,41
 58 864 58 864 92 969 c 128,-1,42
 126 1074 126 1074 185 1160 c 128,-1,43
 244 1246 244 1246 324.5 1311.5 c 128,-1,44
 405 1377 405 1377 497.5 1421.5 c 128,-1,45
 590 1466 590 1466 690.5 1489 c 128,-1,46
 791 1512 791 1512 891 1512 c 0,47,48
 1019 1512 1019 1512 1137.5 1473.5 c 128,-1,49
 1256 1435 1256 1435 1347.5 1356 c 128,-1,50
 1439 1277 1439 1277 1494 1156.5 c 128,-1,51
 1549 1036 1549 1036 1549 871 c 0,52,53
 1549 790 1549 790 1529 715 c 128,-1,54
 1509 640 1509 640 1474.5 574.5 c 128,-1,55
 1440 509 1440 509 1394 455 c 128,-1,56
 1348 401 1348 401 1296 362.5 c 128,-1,57
 1244 324 1244 324 1188.5 302.5 c 128,-1,58
 1133 281 1133 281 1080 281 c 0,59,60
 1053 281 1053 281 1026.5 287.5 c 128,-1,61
 1000 294 1000 294 976.5 306.5 c 128,-1,62
 953 319 953 319 935.5 339 c 128,-1,63
 918 359 918 359 909 386 c 1,64,65
 862 337 862 337 795 310 c 128,-1,66
 728 283 728 283 661 283 c 256,67,68
 594 283 594 283 540.5 307.5 c 128,-1,69
 487 332 487 332 450 374.5 c 128,-1,70
 413 417 413 417 393.5 473.5 c 128,-1,71
 374 530 374 530 374 594 c 0,72,73
 374 662 374 662 390 732.5 c 128,-1,74
 406 803 406 803 436.5 869.5 c 128,-1,75
 467 936 467 936 510.5 995 c 128,-1,76
 554 1054 554 1054 609.5 1098 c 128,-1,77
 665 1142 665 1142 730.5 1167.5 c 128,-1,78
 796 1193 796 1193 870 1193 c 0,79,80
 906 1193 906 1193 940 1184.5 c 128,-1,81
 974 1176 974 1176 1004.5 1159.5 c 128,-1,82
 1035 1143 1035 1143 1059.5 1118.5 c 128,-1,83
 1084 1094 1084 1094 1100 1061 c 1,84,-1
 1109 1091 l 2,85,86
 1117 1117 1117 1117 1139 1130 c 128,-1,87
 1161 1143 1161 1143 1184 1143 c 0,88,89
 1208 1143 1208 1143 1227 1129 c 128,-1,90
 1246 1115 1246 1115 1246 1088 c 0,91,92
 1246 1075 1246 1075 1242 1063 c 2,93,-1
 1078 558 l 2,94,95
 1067 526 1067 526 1060.5 498 c 128,-1,96
 1054 470 1054 470 1054 449 c 0,97,98
 1054 425 1054 425 1066 411.5 c 128,-1,99
 1078 398 1078 398 1110 398 c 0,100,101
 1169 398 1169 398 1224.5 440.5 c 128,-1,102
 1280 483 1280 483 1322.5 551 c 128,-1,103
 1365 619 1365 619 1391 703 c 128,-1,104
 1417 787 1417 787 1417 870 c 0,105,106
 1417 1006 1417 1006 1374 1106 c 128,-1,107
 1331 1206 1331 1206 1258.5 1271 c 128,-1,108
 1186 1336 1186 1336 1091.5 1367.5 c 128,-1,109
 997 1399 997 1399 894 1399 c 0,110,111
 811 1399 811 1399 726.5 1379 c 128,-1,112
 642 1359 642 1359 564 1320 c 128,-1,113
 486 1281 486 1281 418 1223.5 c 128,-1,114
 350 1166 350 1166 300 1091.5 c 128,-1,115
 250 1017 250 1017 221 926 c 128,-1,116
 192 835 192 835 192 728 c 0,117,118
 192 567 192 567 243 446 c 128,-1,119
 294 325 294 325 380.5 244 c 128,-1,120
 467 163 467 163 582 122.5 c 128,-1,121
 697 82 697 82 825 82 c 256,122,123
 953 82 953 82 1087 123 c 0,25,26
EndSplineSet
EndChar

StartChar: A
Encoding: 65 65 36
Width: 1392
Flags: W
LayerCount: 2
Fore
SplineSet
1337 108 m 1,0,1
 1342 91 1342 91 1342 80 c 0,2,3
 1342 62 1342 62 1334 47 c 128,-1,4
 1326 32 1326 32 1312.5 21.5 c 128,-1,5
 1299 11 1299 11 1282 5.5 c 128,-1,6
 1265 0 1265 0 1248 0 c 0,7,8
 1224 0 1224 0 1203 12.5 c 128,-1,9
 1182 25 1182 25 1173 53 c 1,10,-1
 1045 373 l 1,11,-1
 338 373 l 1,12,-1
 211 53 l 1,13,14
 201 24 201 24 181 12 c 128,-1,15
 161 0 161 0 138 0 c 0,16,17
 121 0 121 0 105 5.5 c 128,-1,18
 89 11 89 11 76.5 21.5 c 128,-1,19
 64 32 64 32 56 46.5 c 128,-1,20
 48 61 48 61 48 78 c 0,21,22
 48 91 48 91 54 108 c 2,23,-1
 530 1270 l 1,24,25
 549 1320 549 1320 568 1351 c 128,-1,26
 587 1382 587 1382 606.5 1398.5 c 128,-1,27
 626 1415 626 1415 647.5 1420.5 c 128,-1,28
 669 1426 669 1426 694 1426 c 256,29,30
 719 1426 719 1426 740.5 1420.5 c 128,-1,31
 762 1415 762 1415 782 1398 c 128,-1,32
 802 1381 802 1381 820.5 1350.5 c 128,-1,33
 839 1320 839 1320 859 1270 c 2,34,-1
 1337 108 l 1,0,1
691 1279 m 1,35,-1
 388 508 l 1,36,-1
 995 508 l 1,37,-1
 693 1279 l 1,38,-1
 691 1279 l 1,35,-1
EndSplineSet
EndChar

StartChar: B
Encoding: 66 66 37
Width: 1385
Flags: W
LayerCount: 2
Fore
SplineSet
195 1341 m 2,0,1
 195 1359 195 1359 202 1374.5 c 128,-1,2
 209 1390 209 1390 221 1401.5 c 128,-1,3
 233 1413 233 1413 249 1419.5 c 128,-1,4
 265 1426 265 1426 283 1426 c 2,5,-1
 742 1426 l 2,6,7
 837 1426 837 1426 917.5 1400.5 c 128,-1,8
 998 1375 998 1375 1055 1328.5 c 128,-1,9
 1112 1282 1112 1282 1145 1216 c 128,-1,10
 1178 1150 1178 1150 1178 1068 c 0,11,12
 1178 1009 1178 1009 1157 956.5 c 128,-1,13
 1136 904 1136 904 1099.5 861.5 c 128,-1,14
 1063 819 1063 819 1012.5 789 c 128,-1,15
 962 759 962 759 903 746 c 1,16,-1
 903 742 l 1,17,18
 978 730 978 730 1040 700.5 c 128,-1,19
 1102 671 1102 671 1145.5 625.5 c 128,-1,20
 1189 580 1189 580 1213 519 c 128,-1,21
 1237 458 1237 458 1237 383 c 0,22,23
 1237 312 1237 312 1212.5 243.5 c 128,-1,24
 1188 175 1188 175 1129.5 121 c 128,-1,25
 1071 67 1071 67 977.5 33.5 c 128,-1,26
 884 0 884 0 761 0 c 2,27,-1
 283 0 l 2,28,29
 265 0 265 0 249 6.5 c 128,-1,30
 233 13 233 13 221 24.5 c 128,-1,31
 209 36 209 36 202 51.5 c 128,-1,32
 195 67 195 67 195 85 c 2,33,-1
 195 1341 l 2,0,1
370 138 m 1,34,-1
 671 138 l 2,35,36
 762 138 762 138 833 150 c 128,-1,37
 904 162 904 162 952.5 192.5 c 128,-1,38
 1001 223 1001 223 1026.5 274.5 c 128,-1,39
 1052 326 1052 326 1052 405 c 0,40,41
 1052 490 1052 490 1018 542.5 c 128,-1,42
 984 595 984 595 924 624 c 128,-1,43
 864 653 864 653 781 662.5 c 128,-1,44
 698 672 698 672 599 672 c 2,45,-1
 370 672 l 1,46,-1
 370 138 l 1,34,-1
370 1288 m 1,47,-1
 370 801 l 1,48,-1
 666 801 l 2,49,50
 729 801 729 801 788.5 814 c 128,-1,51
 848 827 848 827 894 856.5 c 128,-1,52
 940 886 940 886 967.5 933 c 128,-1,53
 995 980 995 980 995 1049 c 0,54,55
 995 1122 995 1122 966.5 1168.5 c 128,-1,56
 938 1215 938 1215 891 1241.5 c 128,-1,57
 844 1268 844 1268 784 1278 c 128,-1,58
 724 1288 724 1288 661 1288 c 2,59,-1
 370 1288 l 1,47,-1
EndSplineSet
EndChar

StartChar: C
Encoding: 67 67 38
Width: 1385
Flags: W
LayerCount: 2
Fore
SplineSet
118 704 m 0,0,1
 118 846 118 846 157.5 981.5 c 128,-1,2
 197 1117 197 1117 277.5 1218.5 c 128,-1,3
 358 1320 358 1320 480 1379 c 128,-1,4
 602 1438 602 1438 767 1438 c 0,5,6
 869 1438 869 1438 959 1416 c 128,-1,7
 1049 1394 1049 1394 1126 1359 c 0,8,9
 1149 1348 1149 1348 1159.5 1328 c 128,-1,10
 1170 1308 1170 1308 1170 1288 c 0,11,12
 1170 1260 1170 1260 1153 1238 c 128,-1,13
 1136 1216 1136 1216 1107 1216 c 0,14,15
 1095 1216 1095 1216 1084 1220 c 0,16,17
 1005 1249 1005 1249 925.5 1266 c 128,-1,18
 846 1283 846 1283 780 1283 c 0,19,20
 690 1283 690 1283 620.5 1259 c 128,-1,21
 551 1235 551 1235 498.5 1193.5 c 128,-1,22
 446 1152 446 1152 409.5 1095.5 c 128,-1,23
 373 1039 373 1039 350 973.5 c 128,-1,24
 327 908 327 908 317 838.5 c 128,-1,25
 307 769 307 769 307 706 c 0,26,27
 307 645 307 645 317 575.5 c 128,-1,28
 327 506 327 506 350 440.5 c 128,-1,29
 373 375 373 375 409.5 318.5 c 128,-1,30
 446 262 446 262 498.5 220.5 c 128,-1,31
 551 179 551 179 620.5 155 c 128,-1,32
 690 131 690 131 780 131 c 0,33,34
 814 131 814 131 854.5 136.5 c 128,-1,35
 895 142 895 142 938 153.5 c 128,-1,36
 981 165 981 165 1024.5 182 c 128,-1,37
 1068 199 1068 199 1109 223 c 0,38,39
 1118 228 1118 228 1127.5 230 c 128,-1,40
 1137 232 1137 232 1145 232 c 0,41,42
 1171 232 1171 232 1188 212.5 c 128,-1,43
 1205 193 1205 193 1205 167 c 0,44,45
 1205 138 1205 138 1184 113 c 128,-1,46
 1163 88 1163 88 1128 67 c 128,-1,47
 1093 46 1093 46 1047.5 29.5 c 128,-1,48
 1002 13 1002 13 954 1.5 c 128,-1,49
 906 -10 906 -10 857.5 -16 c 128,-1,50
 809 -22 809 -22 769 -22 c 0,51,52
 602 -22 602 -22 479.5 36.5 c 128,-1,53
 357 95 357 95 276.5 196 c 128,-1,54
 196 297 196 297 157 431.5 c 128,-1,55
 118 566 118 566 118 704 c 0,0,1
EndSplineSet
EndChar

StartChar: D
Encoding: 68 68 39
Width: 1494
Flags: W
LayerCount: 2
Fore
SplineSet
267 0 m 2,0,1
 249 0 249 0 232.5 7 c 128,-1,2
 216 14 216 14 204 25.5 c 128,-1,3
 192 37 192 37 185 52.5 c 128,-1,4
 178 68 178 68 178 86 c 2,5,-1
 178 1340 l 2,6,7
 178 1358 178 1358 185 1373.5 c 128,-1,8
 192 1389 192 1389 204 1400.5 c 128,-1,9
 216 1412 216 1412 232.5 1419 c 128,-1,10
 249 1426 249 1426 267 1426 c 2,11,-1
 607 1426 l 2,12,13
 793 1426 793 1426 935.5 1380 c 128,-1,14
 1078 1334 1078 1334 1175 1243.5 c 128,-1,15
 1272 1153 1272 1153 1321.5 1019 c 128,-1,16
 1371 885 1371 885 1371 710 c 256,17,18
 1371 535 1371 535 1320 402.5 c 128,-1,19
 1269 270 1269 270 1171.5 180.5 c 128,-1,20
 1074 91 1074 91 933 45.5 c 128,-1,21
 792 0 792 0 611 0 c 2,22,-1
 267 0 l 2,0,1
355 140 m 1,23,-1
 630 140 l 2,24,25
 777 140 777 140 881.5 180 c 128,-1,26
 986 220 986 220 1052.5 294.5 c 128,-1,27
 1119 369 1119 369 1150 475 c 128,-1,28
 1181 581 1181 581 1181 712 c 0,29,30
 1181 860 1181 860 1140.5 968.5 c 128,-1,31
 1100 1077 1100 1077 1023 1147.5 c 128,-1,32
 946 1218 946 1218 834.5 1252 c 128,-1,33
 723 1286 723 1286 582 1286 c 2,34,-1
 355 1286 l 1,35,-1
 355 140 l 1,23,-1
EndSplineSet
EndChar

StartChar: E
Encoding: 69 69 40
Width: 1255
Flags: W
LayerCount: 2
Fore
SplineSet
287 0 m 2,0,1
 270 0 270 0 254.5 7 c 128,-1,2
 239 14 239 14 226.5 26 c 128,-1,3
 214 38 214 38 206.5 53.5 c 128,-1,4
 199 69 199 69 199 86 c 2,5,-1
 199 1340 l 2,6,7
 199 1356 199 1356 205 1371.5 c 128,-1,8
 211 1387 211 1387 222.5 1399 c 128,-1,9
 234 1411 234 1411 249 1418.5 c 128,-1,10
 264 1426 264 1426 282 1426 c 2,11,-1
 1028 1426 l 2,12,13
 1065 1426 1065 1426 1083 1403.5 c 128,-1,14
 1101 1381 1101 1381 1101 1354 c 0,15,16
 1101 1326 1101 1326 1083 1303.5 c 128,-1,17
 1065 1281 1065 1281 1028 1281 c 2,18,-1
 374 1281 l 1,19,-1
 374 806 l 1,20,-1
 996 806 l 2,21,22
 1034 806 1034 806 1052 783.5 c 128,-1,23
 1070 761 1070 761 1070 734 c 256,24,25
 1070 707 1070 707 1051.5 684.5 c 128,-1,26
 1033 662 1033 662 996 662 c 2,27,-1
 374 662 l 1,28,-1
 374 145 l 1,29,-1
 1056 145 l 2,30,31
 1093 145 1093 145 1111 122.5 c 128,-1,32
 1129 100 1129 100 1129 73 c 0,33,34
 1129 45 1129 45 1111 22.5 c 128,-1,35
 1093 0 1093 0 1056 0 c 2,36,-1
 287 0 l 2,0,1
EndSplineSet
EndChar

StartChar: F
Encoding: 70 70 41
Width: 1150
Flags: W
LayerCount: 2
Fore
SplineSet
186 1341 m 2,0,1
 186 1379 186 1379 211 1402.5 c 128,-1,2
 236 1426 236 1426 270 1426 c 2,3,-1
 975 1426 l 2,4,5
 1012 1426 1012 1426 1030 1403.5 c 128,-1,6
 1048 1381 1048 1381 1048 1354 c 0,7,8
 1048 1326 1048 1326 1030 1303.5 c 128,-1,9
 1012 1281 1012 1281 975 1281 c 2,10,-1
 364 1281 l 1,11,-1
 364 815 l 1,12,-1
 949 815 l 2,13,14
 986 815 986 815 1004.5 792.5 c 128,-1,15
 1023 770 1023 770 1023 743 c 0,16,17
 1023 715 1023 715 1004.5 692.5 c 128,-1,18
 986 670 986 670 949 670 c 2,19,-1
 364 670 l 1,20,-1
 364 84 l 2,21,22
 364 63 364 63 356.5 47 c 128,-1,23
 349 31 349 31 336 20.5 c 128,-1,24
 323 10 323 10 307 5 c 128,-1,25
 291 0 291 0 275 0 c 0,26,27
 241 0 241 0 213.5 21 c 128,-1,28
 186 42 186 42 186 84 c 2,29,-1
 186 1341 l 2,0,1
EndSplineSet
EndChar

StartChar: G
Encoding: 71 71 42
Width: 1498
Flags: W
LayerCount: 2
Fore
SplineSet
1247 735 m 2,0,1
 1282 735 1282 735 1301.5 715 c 128,-1,2
 1321 695 1321 695 1321 660 c 2,3,-1
 1321 138 l 2,4,5
 1321 101 1321 101 1302 79 c 128,-1,6
 1283 57 1283 57 1255 50 c 1,7,8
 1145 16 1145 16 1030 -3 c 128,-1,9
 915 -22 915 -22 815 -22 c 0,10,11
 661 -22 661 -22 533.5 21.5 c 128,-1,12
 406 65 406 65 315 156.5 c 128,-1,13
 224 248 224 248 173.5 388 c 128,-1,14
 123 528 123 528 123 712 c 0,15,16
 123 795 123 795 142 889.5 c 128,-1,17
 161 984 161 984 199.5 1066.5 c 128,-1,18
 238 1149 238 1149 296 1217.5 c 128,-1,19
 354 1286 354 1286 432.5 1335 c 128,-1,20
 511 1384 511 1384 609.5 1411 c 128,-1,21
 708 1438 708 1438 828 1438 c 0,22,23
 937 1438 937 1438 1039 1419.5 c 128,-1,24
 1141 1401 1141 1401 1227 1365 c 0,25,26
 1248 1356 1248 1356 1257 1339.5 c 128,-1,27
 1266 1323 1266 1323 1266 1305 c 0,28,29
 1266 1278 1266 1278 1248.5 1255 c 128,-1,30
 1231 1232 1231 1232 1202 1232 c 0,31,32
 1198 1232 1198 1232 1194 1232 c 128,-1,33
 1190 1232 1190 1232 1186 1234 c 0,34,35
 1142 1246 1142 1246 1096 1255.5 c 128,-1,36
 1050 1265 1050 1265 1004 1272 c 128,-1,37
 958 1279 958 1279 915 1283 c 128,-1,38
 872 1287 872 1287 835 1287 c 0,39,40
 694 1287 694 1287 594.5 1239.5 c 128,-1,41
 495 1192 495 1192 432 1110.5 c 128,-1,42
 369 1029 369 1029 340.5 920.5 c 128,-1,43
 312 812 312 812 312 709 c 0,44,45
 312 580 312 580 339.5 469.5 c 128,-1,46
 367 359 367 359 428.5 282 c 128,-1,47
 490 205 490 205 589.5 164 c 128,-1,48
 689 123 689 123 834 123 c 0,49,50
 913 123 913 123 992.5 135 c 128,-1,51
 1072 147 1072 147 1145 167 c 1,52,-1
 1145 601 l 1,53,-1
 862 601 l 2,54,55
 829 601 829 601 812 621.5 c 128,-1,56
 795 642 795 642 795 668 c 256,57,58
 795 694 795 694 811.5 714.5 c 128,-1,59
 828 735 828 735 862 735 c 2,60,-1
 1247 735 l 2,0,1
EndSplineSet
EndChar

StartChar: H
Encoding: 72 72 43
Width: 1494
Flags: W
LayerCount: 2
Fore
SplineSet
1123 1342 m 2,0,1
 1123 1363 1123 1363 1130.5 1378.5 c 128,-1,2
 1138 1394 1138 1394 1150.5 1404.5 c 128,-1,3
 1163 1415 1163 1415 1179 1420.5 c 128,-1,4
 1195 1426 1195 1426 1212 1426 c 0,5,6
 1246 1426 1246 1426 1273.5 1405 c 128,-1,7
 1301 1384 1301 1384 1301 1342 c 2,8,-1
 1301 84 l 2,9,10
 1301 63 1301 63 1293.5 47 c 128,-1,11
 1286 31 1286 31 1273 20.5 c 128,-1,12
 1260 10 1260 10 1244 5 c 128,-1,13
 1228 0 1228 0 1211 0 c 0,14,15
 1178 0 1178 0 1150.5 21 c 128,-1,16
 1123 42 1123 42 1123 84 c 2,17,-1
 1123 666 l 1,18,-1
 371 666 l 1,19,-1
 371 84 l 2,20,21
 371 63 371 63 363.5 47 c 128,-1,22
 356 31 356 31 343 20.5 c 128,-1,23
 330 10 330 10 314 5 c 128,-1,24
 298 0 298 0 281 0 c 0,25,26
 248 0 248 0 220.5 21 c 128,-1,27
 193 42 193 42 193 84 c 2,28,-1
 193 1342 l 2,29,30
 193 1363 193 1363 200.5 1378.5 c 128,-1,31
 208 1394 208 1394 221 1404.5 c 128,-1,32
 234 1415 234 1415 250 1420.5 c 128,-1,33
 266 1426 266 1426 283 1426 c 0,34,35
 316 1426 316 1426 343.5 1405 c 128,-1,36
 371 1384 371 1384 371 1342 c 2,37,-1
 371 814 l 1,38,-1
 1123 814 l 1,39,-1
 1123 1342 l 2,0,1
EndSplineSet
EndChar

StartChar: I
Encoding: 73 73 44
Width: 592
Flags: W
LayerCount: 2
Fore
SplineSet
208 1341 m 2,0,1
 208 1362 208 1362 215.5 1378 c 128,-1,2
 223 1394 223 1394 236 1404.5 c 128,-1,3
 249 1415 249 1415 265 1420.5 c 128,-1,4
 281 1426 281 1426 298 1426 c 0,5,6
 331 1426 331 1426 358.5 1405 c 128,-1,7
 386 1384 386 1384 386 1341 c 2,8,-1
 386 84 l 2,9,10
 386 63 386 63 378.5 47 c 128,-1,11
 371 31 371 31 358 20.5 c 128,-1,12
 345 10 345 10 329 5 c 128,-1,13
 313 0 313 0 296 0 c 0,14,15
 263 0 263 0 235.5 21 c 128,-1,16
 208 42 208 42 208 84 c 2,17,-1
 208 1341 l 2,0,1
EndSplineSet
EndChar

StartChar: J
Encoding: 74 74 45
Width: 1058
Flags: W
LayerCount: 2
Fore
SplineSet
708 1343 m 2,0,1
 708 1364 708 1364 715.5 1379.5 c 128,-1,2
 723 1395 723 1395 736 1405.5 c 128,-1,3
 749 1416 749 1416 765 1421 c 128,-1,4
 781 1426 781 1426 798 1426 c 256,5,6
 815 1426 815 1426 831 1421 c 128,-1,7
 847 1416 847 1416 859.5 1405.5 c 128,-1,8
 872 1395 872 1395 879.5 1379.5 c 128,-1,9
 887 1364 887 1364 887 1343 c 2,10,-1
 887 441 l 2,11,12
 887 314 887 314 849.5 226 c 128,-1,13
 812 138 812 138 750.5 83 c 128,-1,14
 689 28 689 28 609.5 3 c 128,-1,15
 530 -22 530 -22 446 -22 c 0,16,17
 384 -22 384 -22 325.5 -4.5 c 128,-1,18
 267 13 267 13 217 46 c 128,-1,19
 167 79 167 79 128.5 127.5 c 128,-1,20
 90 176 90 176 69 239 c 1,21,22
 59 262 59 262 59 282 c 0,23,24
 59 315 59 315 81.5 334 c 128,-1,25
 104 353 104 353 131 353 c 0,26,27
 150 353 150 353 167 343.5 c 128,-1,28
 184 334 184 334 195 312 c 1,29,30
 227 221 227 221 288 171 c 128,-1,31
 349 121 349 121 446 121 c 0,32,33
 571 121 571 121 639.5 201 c 128,-1,34
 708 281 708 281 708 456 c 2,35,-1
 708 1343 l 2,0,1
EndSplineSet
EndChar

StartChar: K
Encoding: 75 75 46
Width: 1289
Flags: W
LayerCount: 2
Fore
SplineSet
381 83 m 2,0,1
 381 62 381 62 373.5 46.5 c 128,-1,2
 366 31 366 31 353 20.5 c 128,-1,3
 340 10 340 10 324 5 c 128,-1,4
 308 0 308 0 292 0 c 256,5,6
 276 0 276 0 260.5 5 c 128,-1,7
 245 10 245 10 233 20.5 c 128,-1,8
 221 31 221 31 213.5 46.5 c 128,-1,9
 206 62 206 62 206 83 c 2,10,-1
 206 1342 l 2,11,12
 206 1384 206 1384 233.5 1405 c 128,-1,13
 261 1426 261 1426 294 1426 c 0,14,15
 310 1426 310 1426 325.5 1420.5 c 128,-1,16
 341 1415 341 1415 353.5 1404.5 c 128,-1,17
 366 1394 366 1394 373.5 1378.5 c 128,-1,18
 381 1363 381 1363 381 1342 c 2,19,-1
 381 797 l 1,20,-1
 983 1395 l 1,21,22
 997 1412 997 1412 1014 1419 c 128,-1,23
 1031 1426 1031 1426 1048 1426 c 0,24,25
 1080 1426 1080 1426 1104 1405 c 128,-1,26
 1128 1384 1128 1384 1128 1353 c 0,27,28
 1128 1328 1128 1328 1108 1302 c 1,29,-1
 568 779 l 1,30,-1
 1164 139 l 1,31,32
 1186 111 1186 111 1186 84 c 0,33,34
 1186 67 1186 67 1178.5 51.5 c 128,-1,35
 1171 36 1171 36 1158 24.5 c 128,-1,36
 1145 13 1145 13 1129 6.5 c 128,-1,37
 1113 0 1113 0 1095 0 c 256,38,39
 1077 0 1077 0 1059 8.5 c 128,-1,40
 1041 17 1041 17 1026 35 c 1,41,-1
 381 733 l 1,42,-1
 381 83 l 2,0,1
EndSplineSet
EndChar

StartChar: L
Encoding: 76 76 47
Width: 1150
Flags: W
LayerCount: 2
Fore
SplineSet
285 0 m 2,0,1
 267 0 267 0 250.5 6.5 c 128,-1,2
 234 13 234 13 222 25 c 128,-1,3
 210 37 210 37 202.5 53 c 128,-1,4
 195 69 195 69 195 87 c 2,5,-1
 195 1342 l 2,6,7
 195 1363 195 1363 202.5 1378.5 c 128,-1,8
 210 1394 210 1394 223 1404.5 c 128,-1,9
 236 1415 236 1415 252 1420.5 c 128,-1,10
 268 1426 268 1426 285 1426 c 0,11,12
 318 1426 318 1426 345.5 1405 c 128,-1,13
 373 1384 373 1384 373 1342 c 2,14,-1
 373 146 l 1,15,-1
 1020 146 l 2,16,17
 1058 146 1058 146 1076 123.5 c 128,-1,18
 1094 101 1094 101 1094 73 c 0,19,20
 1094 46 1094 46 1075.5 23 c 128,-1,21
 1057 0 1057 0 1020 0 c 2,22,-1
 285 0 l 2,0,1
EndSplineSet
EndChar

StartChar: M
Encoding: 77 77 48
Width: 1956
Flags: W
LayerCount: 2
Fore
SplineSet
981 230 m 1,0,-1
 1454 1277 l 1,1,2
 1473 1322 1473 1322 1490.5 1351 c 128,-1,3
 1508 1380 1508 1380 1527.5 1396.5 c 128,-1,4
 1547 1413 1547 1413 1570.5 1419.5 c 128,-1,5
 1594 1426 1594 1426 1625 1426 c 0,6,7
 1654 1426 1654 1426 1679.5 1417 c 128,-1,8
 1705 1408 1705 1408 1724 1389 c 128,-1,9
 1743 1370 1743 1370 1754 1340.5 c 128,-1,10
 1765 1311 1765 1311 1765 1271 c 2,11,-1
 1765 79 l 2,12,13
 1765 40 1765 40 1739 20 c 128,-1,14
 1713 0 1713 0 1682 0 c 0,15,16
 1652 0 1652 0 1627 19.5 c 128,-1,17
 1602 39 1602 39 1602 79 c 2,18,-1
 1602 1253 l 1,19,-1
 1085 110 l 1,20,21
 1069 72 1069 72 1039.5 52.5 c 128,-1,22
 1010 33 1010 33 977 33 c 0,23,24
 945 33 945 33 917 51.5 c 128,-1,25
 889 70 889 70 872 110 c 1,26,-1
 357 1245 l 1,27,-1
 357 79 l 2,28,29
 357 40 357 40 331 20 c 128,-1,30
 305 0 305 0 274 0 c 0,31,32
 244 0 244 0 219 19.5 c 128,-1,33
 194 39 194 39 194 79 c 2,34,-1
 194 1271 l 2,35,36
 194 1311 194 1311 205 1340.5 c 128,-1,37
 216 1370 216 1370 235 1389 c 128,-1,38
 254 1408 254 1408 279.5 1417 c 128,-1,39
 305 1426 305 1426 334 1426 c 0,40,41
 365 1426 365 1426 389.5 1419.5 c 128,-1,42
 414 1413 414 1413 435 1396 c 128,-1,43
 456 1379 456 1379 474.5 1349.5 c 128,-1,44
 493 1320 493 1320 513 1275 c 2,45,-1
 976 230 l 1,46,-1
 981 230 l 1,0,-1
EndSplineSet
EndChar

StartChar: N
Encoding: 78 78 49
Width: 1502
Flags: W
LayerCount: 2
Fore
SplineSet
180 1308 m 2,0,1
 180 1336 180 1336 189.5 1358 c 128,-1,2
 199 1380 199 1380 214.5 1395 c 128,-1,3
 230 1410 230 1410 250.5 1418 c 128,-1,4
 271 1426 271 1426 293 1426 c 0,5,6
 322 1426 322 1426 349.5 1412 c 128,-1,7
 377 1398 377 1398 399 1368 c 1,8,-1
 1156 227 l 1,9,-1
 1156 1346 l 2,10,11
 1156 1366 1156 1366 1163 1381 c 128,-1,12
 1170 1396 1170 1396 1182 1406 c 128,-1,13
 1194 1416 1194 1416 1209 1421 c 128,-1,14
 1224 1426 1224 1426 1240 1426 c 0,15,16
 1255 1426 1255 1426 1270 1421 c 128,-1,17
 1285 1416 1285 1416 1297 1406 c 128,-1,18
 1309 1396 1309 1396 1316 1381 c 128,-1,19
 1323 1366 1323 1366 1323 1346 c 2,20,-1
 1323 118 l 2,21,22
 1323 90 1323 90 1313 68 c 128,-1,23
 1303 46 1303 46 1286 31 c 128,-1,24
 1269 16 1269 16 1247.5 8 c 128,-1,25
 1226 0 1226 0 1202 0 c 0,26,27
 1173 0 1173 0 1144 14 c 128,-1,28
 1115 28 1115 28 1093 58 c 1,29,-1
 348 1183 l 1,30,-1
 348 79 l 2,31,32
 348 59 348 59 340.5 44.5 c 128,-1,33
 333 30 333 30 321 20 c 128,-1,34
 309 10 309 10 294 5 c 128,-1,35
 279 0 279 0 263 0 c 0,36,37
 231 0 231 0 205.5 19.5 c 128,-1,38
 180 39 180 39 180 79 c 2,39,-1
 180 1308 l 2,0,1
EndSplineSet
EndChar

StartChar: O
Encoding: 79 79 50
Width: 1597
Flags: W
LayerCount: 2
Fore
SplineSet
319 708 m 0,0,1
 319 604 319 604 346 495.5 c 128,-1,2
 373 387 373 387 431 304.5 c 128,-1,3
 489 222 489 222 580 172.5 c 128,-1,4
 671 123 671 123 799 123 c 0,5,6
 926 123 926 123 1017 172.5 c 128,-1,7
 1108 222 1108 222 1166.5 304.5 c 128,-1,8
 1225 387 1225 387 1252 495.5 c 128,-1,9
 1279 604 1279 604 1279 708 c 0,10,11
 1279 811 1279 811 1252 919.5 c 128,-1,12
 1225 1028 1225 1028 1166.5 1111 c 128,-1,13
 1108 1194 1108 1194 1017 1243.5 c 128,-1,14
 926 1293 926 1293 799 1293 c 0,15,16
 671 1293 671 1293 580 1243.5 c 128,-1,17
 489 1194 489 1194 431 1111 c 128,-1,18
 373 1028 373 1028 346 919.5 c 128,-1,19
 319 811 319 811 319 708 c 0,0,1
128 708 m 256,20,21
 128 861 128 861 172 998 c 128,-1,22
 216 1135 216 1135 301 1233 c 128,-1,23
 386 1331 386 1331 511.5 1384.5 c 128,-1,24
 637 1438 637 1438 799 1438 c 256,25,26
 961 1438 961 1438 1086 1384.5 c 128,-1,27
 1211 1331 1211 1331 1295.5 1233 c 128,-1,28
 1380 1135 1380 1135 1424 998 c 128,-1,29
 1468 861 1468 861 1468 708 c 256,30,31
 1468 555 1468 555 1424 418 c 128,-1,32
 1380 281 1380 281 1295.5 183.5 c 128,-1,33
 1211 86 1211 86 1086 32 c 128,-1,34
 961 -22 961 -22 799 -22 c 256,35,36
 637 -22 637 -22 511.5 32 c 128,-1,37
 386 86 386 86 301 183.5 c 128,-1,38
 216 281 216 281 172 418 c 128,-1,39
 128 555 128 555 128 708 c 256,20,21
EndSplineSet
EndChar

StartChar: P
Encoding: 80 80 51
Width: 1278
Flags: W
LayerCount: 2
Fore
SplineSet
373 624 m 1,0,-1
 373 84 l 2,1,2
 373 63 373 63 365.5 47 c 128,-1,3
 358 31 358 31 345 20.5 c 128,-1,4
 332 10 332 10 316 5 c 128,-1,5
 300 0 300 0 284 0 c 0,6,7
 250 0 250 0 222.5 21 c 128,-1,8
 195 42 195 42 195 84 c 2,9,-1
 195 1339 l 2,10,11
 195 1357 195 1357 202 1373 c 128,-1,12
 209 1389 209 1389 221 1400.5 c 128,-1,13
 233 1412 233 1412 249.5 1419 c 128,-1,14
 266 1426 266 1426 285 1426 c 2,15,-1
 644 1426 l 2,16,17
 715 1426 715 1426 784.5 1418 c 128,-1,18
 854 1410 854 1410 917 1391 c 128,-1,19
 980 1372 980 1372 1033.5 1341 c 128,-1,20
 1087 1310 1087 1310 1126.5 1264.5 c 128,-1,21
 1166 1219 1166 1219 1188.5 1157.5 c 128,-1,22
 1211 1096 1211 1096 1211 1026 c 0,23,24
 1211 954 1211 954 1188.5 892.5 c 128,-1,25
 1166 831 1166 831 1126 785 c 128,-1,26
 1086 739 1086 739 1031.5 708.5 c 128,-1,27
 977 678 977 678 913 659 c 128,-1,28
 849 640 849 640 778.5 632 c 128,-1,29
 708 624 708 624 636 624 c 2,30,-1
 373 624 l 1,0,-1
668 764 m 2,31,32
 740 764 740 764 805 776.5 c 128,-1,33
 870 789 870 789 919 820 c 128,-1,34
 968 851 968 851 996.5 903.5 c 128,-1,35
 1025 956 1025 956 1025 1026 c 0,36,37
 1025 1095 1025 1095 996.5 1147 c 128,-1,38
 968 1199 968 1199 919.5 1230 c 128,-1,39
 871 1261 871 1261 807 1273.5 c 128,-1,40
 743 1286 743 1286 671 1286 c 2,41,-1
 373 1286 l 1,42,-1
 373 764 l 1,43,-1
 668 764 l 2,31,32
EndSplineSet
EndChar

StartChar: Q
Encoding: 81 81 52
Width: 1597
Flags: W
LayerCount: 2
Fore
SplineSet
128 702 m 0,0,1
 128 861 128 861 172 998 c 128,-1,2
 216 1135 216 1135 301 1233 c 128,-1,3
 386 1331 386 1331 511.5 1384.5 c 128,-1,4
 637 1438 637 1438 799 1438 c 256,5,6
 961 1438 961 1438 1085.5 1384.5 c 128,-1,7
 1210 1331 1210 1331 1295 1233.5 c 128,-1,8
 1380 1136 1380 1136 1423.5 999.5 c 128,-1,9
 1467 863 1467 863 1467 704 c 0,10,11
 1467 627 1467 627 1449.5 544.5 c 128,-1,12
 1432 462 1432 462 1400.5 390 c 128,-1,13
 1369 318 1369 318 1323.5 256.5 c 128,-1,14
 1278 195 1278 195 1223 142 c 1,15,-1
 1449 142 l 2,16,17
 1485 142 1485 142 1503 120 c 128,-1,18
 1521 98 1521 98 1521 72 c 0,19,20
 1521 44 1521 44 1503 22.5 c 128,-1,21
 1485 1 1485 1 1449 0 c 0,22,23
 1441 0 1441 0 1403.5 0 c 128,-1,24
 1366 0 1366 0 1314.5 0 c 128,-1,25
 1263 0 1263 0 1205 0 c 128,-1,26
 1147 0 1147 0 1097.5 0 c 128,-1,27
 1048 0 1048 0 1014.5 0 c 128,-1,28
 981 0 981 0 979 0 c 0,29,30
 927 -11 927 -11 885.5 -16.5 c 128,-1,31
 844 -22 844 -22 799 -22 c 0,32,33
 637 -22 637 -22 511.5 30 c 128,-1,34
 386 82 386 82 301 179.5 c 128,-1,35
 216 277 216 277 172 414 c 128,-1,36
 128 551 128 551 128 702 c 0,0,1
319 702 m 0,37,38
 319 600 319 600 346 491.5 c 128,-1,39
 373 383 373 383 431 300.5 c 128,-1,40
 489 218 489 218 580 168.5 c 128,-1,41
 671 119 671 119 799 119 c 0,42,43
 926 119 926 119 1017 168.5 c 128,-1,44
 1108 218 1108 218 1166.5 300.5 c 128,-1,45
 1225 383 1225 383 1252 491.5 c 128,-1,46
 1279 600 1279 600 1279 702 c 0,47,48
 1279 811 1279 811 1252 919.5 c 128,-1,49
 1225 1028 1225 1028 1166.5 1111 c 128,-1,50
 1108 1194 1108 1194 1017 1243.5 c 128,-1,51
 926 1293 926 1293 799 1293 c 0,52,53
 671 1293 671 1293 580 1243.5 c 128,-1,54
 489 1194 489 1194 431 1111 c 128,-1,55
 373 1028 373 1028 346 919.5 c 128,-1,56
 319 811 319 811 319 702 c 0,37,38
EndSplineSet
EndChar

StartChar: R
Encoding: 82 82 53
Width: 1385
Flags: W
LayerCount: 2
Fore
SplineSet
200 1340 m 2,0,1
 200 1358 200 1358 207 1373.5 c 128,-1,2
 214 1389 214 1389 226 1400.5 c 128,-1,3
 238 1412 238 1412 254.5 1419 c 128,-1,4
 271 1426 271 1426 289 1426 c 2,5,-1
 717 1426 l 2,6,7
 809 1426 809 1426 899.5 1410.5 c 128,-1,8
 990 1395 990 1395 1062 1354 c 128,-1,9
 1134 1313 1134 1313 1178.5 1241 c 128,-1,10
 1223 1169 1223 1169 1223 1056 c 0,11,12
 1223 938 1223 938 1147 856.5 c 128,-1,13
 1071 775 1071 775 931 744 c 1,14,-1
 931 740 l 1,15,16
 1003 729 1003 729 1049.5 702.5 c 128,-1,17
 1096 676 1096 676 1124 636 c 128,-1,18
 1152 596 1152 596 1165.5 543 c 128,-1,19
 1179 490 1179 490 1187 426 c 1,20,21
 1195 348 1195 348 1201 285 c 128,-1,22
 1207 222 1207 222 1211 178 c 0,23,24
 1215 127 1215 127 1218 87 c 1,25,26
 1218 44 1218 44 1191 22 c 128,-1,27
 1164 0 1164 0 1128 0 c 0,28,29
 1096 0 1096 0 1068 20 c 128,-1,30
 1040 40 1040 40 1036 81 c 0,31,32
 1024 203 1024 203 1016.5 295 c 128,-1,33
 1009 387 1009 387 998.5 451 c 128,-1,34
 988 515 988 515 970.5 556 c 128,-1,35
 953 597 953 597 921 620.5 c 128,-1,36
 889 644 889 644 839 653 c 128,-1,37
 789 662 789 662 714 662 c 2,38,-1
 377 662 l 1,39,-1
 377 84 l 2,40,41
 377 63 377 63 369.5 47 c 128,-1,42
 362 31 362 31 349 20.5 c 128,-1,43
 336 10 336 10 320 5 c 128,-1,44
 304 0 304 0 288 0 c 0,45,46
 255 0 255 0 227.5 21 c 128,-1,47
 200 42 200 42 200 84 c 2,48,-1
 200 1340 l 2,0,1
639 801 m 2,49,50
 684 801 684 801 731 803 c 128,-1,51
 778 805 778 805 822.5 813 c 128,-1,52
 867 821 867 821 906 837 c 128,-1,53
 945 853 945 853 974.5 880 c 128,-1,54
 1004 907 1004 907 1021 947 c 128,-1,55
 1038 987 1038 987 1038 1044 c 0,56,57
 1038 1100 1038 1100 1023 1140 c 128,-1,58
 1008 1180 1008 1180 983 1207 c 128,-1,59
 958 1234 958 1234 924.5 1249.5 c 128,-1,60
 891 1265 891 1265 853.5 1273 c 128,-1,61
 816 1281 816 1281 777.5 1283.5 c 128,-1,62
 739 1286 739 1286 703 1286 c 2,63,-1
 377 1286 l 1,64,-1
 377 801 l 1,65,-1
 639 801 l 2,49,50
EndSplineSet
EndChar

StartChar: S
Encoding: 83 83 54
Width: 1274
Flags: W
LayerCount: 2
Fore
SplineSet
328 1074 m 0,0,1
 328 1010 328 1010 363 963 c 128,-1,2
 398 916 398 916 455.5 883 c 128,-1,3
 513 850 513 850 586 826.5 c 128,-1,4
 659 803 659 803 736 779 c 0,5,6
 821 752 821 752 898.5 721 c 128,-1,7
 976 690 976 690 1035 643.5 c 128,-1,8
 1094 597 1094 597 1129 530.5 c 128,-1,9
 1164 464 1164 464 1164 366 c 0,10,11
 1164 283 1164 283 1123.5 208.5 c 128,-1,12
 1083 134 1083 134 1011 82.5 c 128,-1,13
 939 31 939 31 841 4.5 c 128,-1,14
 743 -22 743 -22 629 -22 c 0,15,16
 547 -22 547 -22 474 -7.5 c 128,-1,17
 401 7 401 7 339 32.5 c 128,-1,18
 277 58 277 58 226 92 c 128,-1,19
 175 126 175 126 136 166 c 0,20,21
 128 174 128 174 124.5 184.5 c 128,-1,22
 121 195 121 195 121 206 c 0,23,24
 121 220 121 220 126.5 234.5 c 128,-1,25
 132 249 132 249 141 260.5 c 128,-1,26
 150 272 150 272 161 279.5 c 128,-1,27
 172 287 172 287 183 287 c 0,28,29
 201 287 201 287 219.5 274 c 128,-1,30
 238 261 238 261 256 248 c 0,31,32
 288 225 288 225 326 202.5 c 128,-1,33
 364 180 364 180 410.5 162.5 c 128,-1,34
 457 145 457 145 512.5 134.5 c 128,-1,35
 568 124 568 124 635 124 c 0,36,37
 708 124 708 124 771 139 c 128,-1,38
 834 154 834 154 880 184 c 128,-1,39
 926 214 926 214 952.5 259 c 128,-1,40
 979 304 979 304 979 355 c 0,41,42
 979 426 979 426 944 475 c 128,-1,43
 909 524 909 524 852 557 c 128,-1,44
 795 590 795 590 722 613.5 c 128,-1,45
 649 637 649 637 573 661 c 0,46,47
 490 688 490 688 412.5 721 c 128,-1,48
 335 754 335 754 275.5 801 c 128,-1,49
 216 848 216 848 180.5 913.5 c 128,-1,50
 145 979 145 979 145 1064 c 0,51,52
 145 1147 145 1147 186 1218.5 c 128,-1,53
 227 1290 227 1290 295.5 1339 c 128,-1,54
 364 1388 364 1388 453.5 1413 c 128,-1,55
 543 1438 543 1438 640 1438 c 0,56,57
 789 1438 789 1438 906.5 1391 c 128,-1,58
 1024 1344 1024 1344 1115 1247 c 0,59,60
 1123 1238 1123 1238 1125.5 1227 c 128,-1,61
 1128 1216 1128 1216 1128 1203 c 0,62,63
 1128 1192 1128 1192 1124.5 1179 c 128,-1,64
 1121 1166 1121 1166 1112.5 1155.5 c 128,-1,65
 1104 1145 1104 1145 1091 1138 c 128,-1,66
 1078 1131 1078 1131 1060 1131 c 0,67,68
 1031 1131 1031 1131 995 1167 c 1,69,70
 963 1191 963 1191 927.5 1213.5 c 128,-1,71
 892 1236 892 1236 850 1252.5 c 128,-1,72
 808 1269 808 1269 760 1279 c 128,-1,73
 712 1289 712 1289 656 1289 c 256,74,75
 600 1289 600 1289 541.5 1276 c 128,-1,76
 483 1263 483 1263 435.5 1236 c 128,-1,77
 388 1209 388 1209 358 1166 c 128,-1,78
 328 1123 328 1123 328 1074 c 0,0,1
EndSplineSet
EndChar

StartChar: T
Encoding: 84 84 55
Width: 1158
Flags: W
LayerCount: 2
Fore
SplineSet
101 1280 m 2,0,1
 64 1280 64 1280 45.5 1303 c 128,-1,2
 27 1326 27 1326 27 1353 c 0,3,4
 27 1381 27 1381 45.5 1403.5 c 128,-1,5
 64 1426 64 1426 101 1426 c 2,6,-1
 1056 1426 l 2,7,8
 1094 1426 1094 1426 1112.5 1403.5 c 128,-1,9
 1131 1381 1131 1381 1131 1353 c 0,10,11
 1131 1326 1131 1326 1112 1303 c 128,-1,12
 1093 1280 1093 1280 1056 1280 c 2,13,-1
 671 1280 l 1,14,-1
 671 85 l 2,15,16
 671 64 671 64 663.5 48 c 128,-1,17
 656 32 656 32 643 21.5 c 128,-1,18
 630 11 630 11 614 5.5 c 128,-1,19
 598 0 598 0 582 0 c 0,20,21
 548 0 548 0 520.5 21.5 c 128,-1,22
 493 43 493 43 493 85 c 2,23,-1
 493 1280 l 1,24,-1
 101 1280 l 2,0,1
EndSplineSet
EndChar

StartChar: U
Encoding: 85 85 56
Width: 1490
Flags: W
LayerCount: 2
Fore
SplineSet
189 1341 m 2,0,1
 189 1362 189 1362 196.5 1378 c 128,-1,2
 204 1394 204 1394 216.5 1404.5 c 128,-1,3
 229 1415 229 1415 245.5 1420.5 c 128,-1,4
 262 1426 262 1426 279 1426 c 0,5,6
 312 1426 312 1426 339.5 1405 c 128,-1,7
 367 1384 367 1384 367 1341 c 2,8,-1
 367 500 l 2,9,10
 367 403 367 403 399.5 332.5 c 128,-1,11
 432 262 432 262 485 215.5 c 128,-1,12
 538 169 538 169 606 146.5 c 128,-1,13
 674 124 674 124 745 124 c 256,14,15
 816 124 816 124 884 146.5 c 128,-1,16
 952 169 952 169 1005.5 215.5 c 128,-1,17
 1059 262 1059 262 1091.5 332.5 c 128,-1,18
 1124 403 1124 403 1124 500 c 2,19,-1
 1124 1341 l 2,20,21
 1124 1362 1124 1362 1131.5 1378 c 128,-1,22
 1139 1394 1139 1394 1151.5 1404.5 c 128,-1,23
 1164 1415 1164 1415 1180.5 1420.5 c 128,-1,24
 1197 1426 1197 1426 1214 1426 c 0,25,26
 1247 1426 1247 1426 1274.5 1405 c 128,-1,27
 1302 1384 1302 1384 1302 1341 c 2,28,-1
 1302 496 l 2,29,30
 1302 364 1302 364 1255.5 267 c 128,-1,31
 1209 170 1209 170 1131.5 105.5 c 128,-1,32
 1054 41 1054 41 953.5 9.5 c 128,-1,33
 853 -22 853 -22 745 -22 c 256,34,35
 637 -22 637 -22 536.5 9.5 c 128,-1,36
 436 41 436 41 359 105.5 c 128,-1,37
 282 170 282 170 235.5 267 c 128,-1,38
 189 364 189 364 189 496 c 2,39,-1
 189 1341 l 2,0,1
EndSplineSet
EndChar

StartChar: V
Encoding: 86 86 57
Width: 1289
Flags: W
LayerCount: 2
Fore
SplineSet
649 153 m 1,0,-1
 652 153 l 1,1,-1
 1080 1366 l 2,2,3
 1091 1395 1091 1395 1113 1410.5 c 128,-1,4
 1135 1426 1135 1426 1161 1426 c 0,5,6
 1177 1426 1177 1426 1192 1420.5 c 128,-1,7
 1207 1415 1207 1415 1218.5 1405 c 128,-1,8
 1230 1395 1230 1395 1237 1381 c 128,-1,9
 1244 1367 1244 1367 1244 1351 c 0,10,11
 1244 1344 1244 1344 1243 1338 c 128,-1,12
 1242 1332 1242 1332 1239 1324 c 2,13,-1
 791 107 l 1,14,15
 771 47 771 47 733 23.5 c 128,-1,16
 695 0 695 0 644 0 c 0,17,18
 597 0 597 0 560 22.5 c 128,-1,19
 523 45 523 45 501 107 c 1,20,-1
 48 1318 l 2,21,22
 45 1324 45 1324 44 1331 c 128,-1,23
 43 1338 43 1338 43 1344 c 0,24,25
 43 1362 43 1362 51 1377 c 128,-1,26
 59 1392 59 1392 72 1403.5 c 128,-1,27
 85 1415 85 1415 101.5 1421 c 128,-1,28
 118 1427 118 1427 135 1427 c 0,29,30
 161 1427 161 1427 182.5 1412.5 c 128,-1,31
 204 1398 204 1398 214 1370 c 2,32,-1
 649 153 l 1,0,-1
EndSplineSet
EndChar

StartChar: W
Encoding: 87 87 58
Width: 2055
Flags: W
LayerCount: 2
Fore
SplineSet
1024 1254 m 1,0,-1
 658 112 l 1,1,2
 642 58 642 58 598 29 c 128,-1,3
 554 0 554 0 505 0 c 0,4,5
 459 0 459 0 420.5 27 c 128,-1,6
 382 54 382 54 366 112 c 2,7,-1
 43 1318 l 1,8,9
 39 1329 39 1329 39 1341 c 0,10,11
 39 1360 39 1360 48 1375.5 c 128,-1,12
 57 1391 57 1391 71 1402 c 128,-1,13
 85 1413 85 1413 102.5 1419.5 c 128,-1,14
 120 1426 120 1426 137 1426 c 0,15,16
 161 1426 161 1426 180 1413 c 128,-1,17
 199 1400 199 1400 207 1371 c 2,18,-1
 519 153 l 1,19,-1
 900 1322 l 1,20,21
 914 1374 914 1374 949.5 1400 c 128,-1,22
 985 1426 985 1426 1026 1426 c 256,23,24
 1067 1426 1067 1426 1103 1400 c 128,-1,25
 1139 1374 1139 1374 1155 1322 c 1,26,-1
 1551 154 l 1,27,-1
 1860 1366 l 2,28,29
 1868 1398 1868 1398 1888.5 1412 c 128,-1,30
 1909 1426 1909 1426 1934 1426 c 0,31,32
 1950 1426 1950 1426 1965.5 1420.5 c 128,-1,33
 1981 1415 1981 1415 1993.5 1405 c 128,-1,34
 2006 1395 2006 1395 2013.5 1381 c 128,-1,35
 2021 1367 2021 1367 2021 1350 c 0,36,37
 2021 1345 2021 1345 2020 1339 c 128,-1,38
 2019 1333 2019 1333 2017 1327 c 2,39,-1
 1689 113 l 2,40,41
 1681 85 1681 85 1666.5 63.5 c 128,-1,42
 1652 42 1652 42 1633 28 c 128,-1,43
 1614 14 1614 14 1591.5 7 c 128,-1,44
 1569 0 1569 0 1545 0 c 0,45,46
 1498 0 1498 0 1457 28 c 128,-1,47
 1416 56 1416 56 1399 113 c 1,48,-1
 1024 1254 l 1,0,-1
EndSplineSet
EndChar

StartChar: X
Encoding: 88 88 59
Width: 1274
Flags: W
LayerCount: 2
Fore
SplineSet
222 41 m 2,0,1
 207 19 207 19 188.5 9.5 c 128,-1,2
 170 0 170 0 151 0 c 0,3,4
 135 0 135 0 120 6 c 128,-1,5
 105 12 105 12 93.5 22.5 c 128,-1,6
 82 33 82 33 75 47 c 128,-1,7
 68 61 68 61 68 76 c 0,8,9
 68 99 68 99 84 121 c 2,10,-1
 529 734 l 1,11,-1
 114 1303 l 2,12,13
 100 1321 100 1321 100 1343 c 0,14,15
 100 1360 100 1360 108.5 1375 c 128,-1,16
 117 1390 117 1390 130.5 1401.5 c 128,-1,17
 144 1413 144 1413 161.5 1419.5 c 128,-1,18
 179 1426 179 1426 197 1426 c 0,19,20
 218 1426 218 1426 237.5 1416.5 c 128,-1,21
 257 1407 257 1407 272 1385 c 2,22,-1
 648 844 l 1,23,-1
 1037 1385 l 2,24,25
 1053 1407 1053 1407 1071.5 1416.5 c 128,-1,26
 1090 1426 1090 1426 1110 1426 c 0,27,28
 1126 1426 1126 1426 1140.5 1420 c 128,-1,29
 1155 1414 1155 1414 1166 1404.5 c 128,-1,30
 1177 1395 1177 1395 1183.5 1381.5 c 128,-1,31
 1190 1368 1190 1368 1190 1353 c 0,32,33
 1190 1342 1190 1342 1186.5 1331.5 c 128,-1,34
 1183 1321 1183 1321 1175 1310 c 2,35,-1
 746 734 l 1,36,-1
 1186 126 l 2,37,38
 1200 106 1200 106 1200 85 c 0,39,40
 1200 68 1200 68 1191.5 52.5 c 128,-1,41
 1183 37 1183 37 1169.5 25.5 c 128,-1,42
 1156 14 1156 14 1139 7 c 128,-1,43
 1122 0 1122 0 1104 0 c 0,44,45
 1062 0 1062 0 1033 40 c 2,46,-1
 628 618 l 1,47,-1
 222 41 l 2,0,1
EndSplineSet
EndChar

StartChar: Y
Encoding: 89 89 60
Width: 1278
Flags: W
LayerCount: 2
Fore
SplineSet
730 607 m 1,0,-1
 730 85 l 2,1,2
 730 64 730 64 722.5 48 c 128,-1,3
 715 32 715 32 702 21.5 c 128,-1,4
 689 11 689 11 673 5.5 c 128,-1,5
 657 0 657 0 640 0 c 0,6,7
 606 0 606 0 578.5 21.5 c 128,-1,8
 551 43 551 43 551 85 c 2,9,-1
 551 602 l 1,10,-1
 87 1307 l 2,11,12
 81 1316 81 1316 78.5 1325.5 c 128,-1,13
 76 1335 76 1335 75 1344 c 1,14,15
 75 1361 75 1361 83.5 1376 c 128,-1,16
 92 1391 92 1391 106.5 1402 c 128,-1,17
 121 1413 121 1413 138.5 1419.5 c 128,-1,18
 156 1426 156 1426 174 1426 c 0,19,20
 196 1426 196 1426 216 1415.5 c 128,-1,21
 236 1405 236 1405 249 1382 c 1,22,-1
 652 746 l 1,23,-1
 654 746 l 1,24,-1
 1058 1383 l 1,25,26
 1071 1406 1071 1406 1090 1416 c 128,-1,27
 1109 1426 1109 1426 1130 1426 c 0,28,29
 1145 1426 1145 1426 1160 1421 c 128,-1,30
 1175 1416 1175 1416 1186.5 1407 c 128,-1,31
 1198 1398 1198 1398 1205 1385.5 c 128,-1,32
 1212 1373 1212 1373 1212 1358 c 1,33,34
 1211 1349 1211 1349 1208.5 1339.5 c 128,-1,35
 1206 1330 1206 1330 1200 1320 c 2,36,-1
 730 607 l 1,0,-1
EndSplineSet
EndChar

StartChar: Z
Encoding: 90 90 61
Width: 1165
Flags: W
LayerCount: 2
Fore
SplineSet
179 0 m 2,0,1
 150 0 150 0 130 7.5 c 128,-1,2
 110 15 110 15 96.5 27.5 c 128,-1,3
 83 40 83 40 77 56.5 c 128,-1,4
 71 73 71 73 71 90 c 0,5,6
 71 124 71 124 91 153 c 2,7,-1
 876 1281 l 1,8,-1
 152 1281 l 2,9,10
 116 1281 116 1281 97.5 1303.5 c 128,-1,11
 79 1326 79 1326 79 1354 c 0,12,13
 79 1381 79 1381 97 1403.5 c 128,-1,14
 115 1426 115 1426 152 1426 c 2,15,-1
 1006 1426 l 2,16,17
 1048 1426 1048 1426 1072.5 1402.5 c 128,-1,18
 1097 1379 1097 1379 1097 1343 c 0,19,20
 1097 1327 1097 1327 1091.5 1309 c 128,-1,21
 1086 1291 1086 1291 1073 1273 c 2,22,-1
 285 145 l 1,23,-1
 1014 145 l 2,24,25
 1051 145 1051 145 1069.5 122.5 c 128,-1,26
 1088 100 1088 100 1088 73 c 0,27,28
 1088 45 1088 45 1069.5 22.5 c 128,-1,29
 1051 0 1051 0 1014 0 c 2,30,-1
 179 0 l 2,0,1
EndSplineSet
EndChar

StartChar: bracketleft
Encoding: 91 91 62
Width: 611
Flags: W
LayerCount: 2
Fore
SplineSet
173 1346 m 2,0,1
 173 1379 173 1379 196.5 1402.5 c 128,-1,2
 220 1426 220 1426 255 1426 c 2,3,-1
 438 1426 l 2,4,5
 470 1426 470 1426 485 1407 c 128,-1,6
 500 1388 500 1388 500 1365 c 256,7,8
 500 1342 500 1342 484.5 1322.5 c 128,-1,9
 469 1303 469 1303 438 1303 c 2,10,-1
 336 1303 l 1,11,-1
 336 -76 l 1,12,-1
 438 -76 l 2,13,14
 470 -76 470 -76 485.5 -95 c 128,-1,15
 501 -114 501 -114 501 -137 c 256,16,17
 501 -160 501 -160 485 -180 c 128,-1,18
 469 -200 469 -200 438 -200 c 2,19,-1
 255 -200 l 2,20,21
 220 -200 220 -200 196.5 -176.5 c 128,-1,22
 173 -153 173 -153 173 -120 c 2,23,-1
 173 1346 l 2,0,1
EndSplineSet
EndChar

StartChar: backslash
Encoding: 92 92 63
Width: 588
Flags: W
LayerCount: 2
Fore
SplineSet
-15 1407 m 2,0,1
 -20 1424 -20 1424 -20 1434 c 0,2,3
 -20 1465 -20 1465 2 1482 c 128,-1,4
 24 1499 24 1499 51 1499 c 0,5,6
 72 1499 72 1499 92 1487 c 128,-1,7
 112 1475 112 1475 120 1449 c 2,8,-1
 603 -14 l 2,9,10
 607 -27 607 -27 607 -41 c 0,11,12
 607 -72 607 -72 586 -89 c 128,-1,13
 565 -106 565 -106 539 -106 c 0,14,15
 518 -106 518 -106 499 -94 c 128,-1,16
 480 -82 480 -82 472 -56 c 2,17,-1
 -15 1407 l 2,0,1
EndSplineSet
EndChar

StartChar: bracketright
Encoding: 93 93 64
Width: 611
Flags: W
LayerCount: 2
Fore
SplineSet
437 -120 m 2,0,1
 437 -153 437 -153 413 -176.5 c 128,-1,2
 389 -200 389 -200 355 -200 c 2,3,-1
 171 -200 l 2,4,5
 140 -200 140 -200 124.5 -180 c 128,-1,6
 109 -160 109 -160 109 -137 c 256,7,8
 109 -114 109 -114 124.5 -95 c 128,-1,9
 140 -76 140 -76 171 -76 c 2,10,-1
 274 -76 l 1,11,-1
 274 1303 l 1,12,-1
 171 1303 l 2,13,14
 140 1303 140 1303 124.5 1322.5 c 128,-1,15
 109 1342 109 1342 109 1365 c 256,16,17
 109 1388 109 1388 124 1407 c 128,-1,18
 139 1426 139 1426 171 1426 c 2,19,-1
 355 1426 l 2,20,21
 389 1426 389 1426 413 1402.5 c 128,-1,22
 437 1379 437 1379 437 1346 c 2,23,-1
 437 -120 l 2,0,1
EndSplineSet
EndChar

StartChar: asciicircum
Encoding: 94 94 65
Width: 1340
Flags: W
LayerCount: 2
Fore
SplineSet
668 1235 m 1,0,-1
 319 534 l 1,1,2
 309 511 309 511 292 501.5 c 128,-1,3
 275 492 275 492 257 492 c 0,4,5
 231 492 231 492 209 509.5 c 128,-1,6
 187 527 187 527 187 556 c 0,7,8
 187 569 187 569 193 584 c 1,9,-1
 584 1340 l 2,10,11
 598 1367 598 1367 620.5 1381 c 128,-1,12
 643 1395 643 1395 668 1395 c 0,13,14
 694 1395 694 1395 716.5 1381 c 128,-1,15
 739 1367 739 1367 753 1340 c 2,16,-1
 1142 584 l 1,17,18
 1148 569 1148 569 1148 557 c 0,19,20
 1148 543 1148 543 1142 531 c 128,-1,21
 1136 519 1136 519 1126 510.5 c 128,-1,22
 1116 502 1116 502 1103 497 c 128,-1,23
 1090 492 1090 492 1077 492 c 0,24,25
 1058 492 1058 492 1042 502 c 128,-1,26
 1026 512 1026 512 1015 534 c 2,27,-1
 668 1235 l 1,0,-1
EndSplineSet
EndChar

StartChar: underscore
Encoding: 95 95 66
Width: 1024
Flags: W
LayerCount: 2
Fore
SplineSet
55 -254 m 2,0,1
 27 -254 27 -254 13 -235.5 c 128,-1,2
 -1 -217 -1 -217 -1 -195 c 0,3,4
 -1 -172 -1 -172 13 -153.5 c 128,-1,5
 27 -135 27 -135 55 -135 c 2,6,-1
 965 -135 l 2,7,8
 994 -135 994 -135 1008.5 -153.5 c 128,-1,9
 1023 -172 1023 -172 1023 -195 c 0,10,11
 1023 -217 1023 -217 1008.5 -235.5 c 128,-1,12
 994 -254 994 -254 965 -254 c 2,13,-1
 55 -254 l 2,0,1
EndSplineSet
EndChar

StartChar: grave
Encoding: 96 96 67
Width: 569
Flags: W
LayerCount: 2
Fore
SplineSet
82 1367 m 2,0,1
 70 1376 70 1376 65 1387.5 c 128,-1,2
 60 1399 60 1399 59 1411 c 1,3,4
 59 1427 59 1427 67 1442.5 c 128,-1,5
 75 1458 75 1458 87.5 1470.5 c 128,-1,6
 100 1483 100 1483 116.5 1491 c 128,-1,7
 133 1499 133 1499 150 1499 c 0,8,9
 164 1499 164 1499 176.5 1493.5 c 128,-1,10
 189 1488 189 1488 201 1474 c 2,11,-1
 470 1173 l 2,12,13
 477 1165 477 1165 479.5 1157 c 128,-1,14
 482 1149 482 1149 482 1141 c 0,15,16
 482 1125 482 1125 472 1114 c 128,-1,17
 462 1103 462 1103 445 1103 c 0,18,19
 425 1103 425 1103 404 1120 c 2,20,-1
 82 1367 l 2,0,1
EndSplineSet
EndChar

StartChar: a
Encoding: 97 97 68
Width: 1043
Flags: W
LayerCount: 2
Fore
SplineSet
739 688 m 2,0,1
 739 745 739 745 722.5 784 c 128,-1,2
 706 823 706 823 676 846 c 128,-1,3
 646 869 646 869 604 879 c 128,-1,4
 562 889 562 889 511 889 c 256,5,6
 460 889 460 889 419.5 883.5 c 128,-1,7
 379 878 379 878 345 865 c 128,-1,8
 311 852 311 852 281.5 837.5 c 128,-1,9
 252 823 252 823 222 805 c 0,10,11
 205 795 205 795 187 795 c 0,12,13
 162 795 162 795 145 812 c 128,-1,14
 128 829 128 829 128 852 c 256,15,16
 128 875 128 875 148 894 c 0,17,18
 210 954 210 954 304 983.5 c 128,-1,19
 398 1013 398 1013 516 1013 c 0,20,21
 603 1013 603 1013 672.5 993.5 c 128,-1,22
 742 974 742 974 791.5 932.5 c 128,-1,23
 841 891 841 891 867.5 827 c 128,-1,24
 894 763 894 763 894 673 c 2,25,-1
 893 71 l 2,26,27
 893 36 893 36 868.5 18 c 128,-1,28
 844 0 844 0 815 0 c 0,29,30
 787 0 787 0 763.5 16.5 c 128,-1,31
 740 33 740 33 740 68 c 2,32,-1
 740 160 l 1,33,34
 719 116 719 116 684.5 82 c 128,-1,35
 650 48 650 48 606.5 25 c 128,-1,36
 563 2 563 2 512.5 -10 c 128,-1,37
 462 -22 462 -22 411 -22 c 0,38,39
 339 -22 339 -22 277 -2.5 c 128,-1,40
 215 17 215 17 169 55.5 c 128,-1,41
 123 94 123 94 96.5 149.5 c 128,-1,42
 70 205 70 205 70 276 c 0,43,44
 70 368 70 368 110.5 430.5 c 128,-1,45
 151 493 151 493 224 531.5 c 128,-1,46
 297 570 297 570 399.5 587 c 128,-1,47
 502 604 502 604 626 604 c 0,48,49
 652 604 652 604 681.5 603 c 128,-1,50
 711 602 711 602 739 601 c 1,51,-1
 739 688 l 2,0,1
738 484 m 1,52,53
 693 482 693 482 638.5 482.5 c 128,-1,54
 584 483 584 483 527.5 480 c 128,-1,55
 471 477 471 477 418 467 c 128,-1,56
 365 457 365 457 323.5 435 c 128,-1,57
 282 413 282 413 257 375.5 c 128,-1,58
 232 338 232 338 232 280 c 0,59,60
 232 234 232 234 249 201.5 c 128,-1,61
 266 169 266 169 295 147 c 128,-1,62
 324 125 324 125 363.5 114 c 128,-1,63
 403 103 403 103 447 102 c 1,64,65
 506 103 506 103 558 122 c 128,-1,66
 610 141 610 141 649 176 c 128,-1,67
 688 211 688 211 711.5 266 c 128,-1,68
 735 321 735 321 738 397 c 1,69,-1
 738 484 l 1,52,53
EndSplineSet
EndChar

StartChar: b
Encoding: 98 98 69
Width: 1157
Flags: W
LayerCount: 2
Fore
SplineSet
292 71 m 1,0,1
 290 36 290 36 266 18 c 128,-1,2
 242 0 242 0 214 0 c 0,3,4
 185 0 185 0 161.5 18.5 c 128,-1,5
 138 37 138 37 138 75 c 2,6,-1
 138 1352 l 2,7,8
 138 1388 138 1388 163.5 1406.5 c 128,-1,9
 189 1425 189 1425 219 1425 c 256,10,11
 249 1425 249 1425 273.5 1407 c 128,-1,12
 298 1389 298 1389 298 1352 c 2,13,-1
 298 830 l 1,14,15
 325 877 325 877 364.5 911.5 c 128,-1,16
 404 946 404 946 450.5 968.5 c 128,-1,17
 497 991 497 991 548.5 1002 c 128,-1,18
 600 1013 600 1013 651 1013 c 0,19,20
 761 1013 761 1013 840.5 970.5 c 128,-1,21
 920 928 920 928 971 857 c 128,-1,22
 1022 786 1022 786 1046.5 693.5 c 128,-1,23
 1071 601 1071 601 1071 500 c 0,24,25
 1071 404 1071 404 1047 310 c 128,-1,26
 1023 216 1023 216 973 142.5 c 128,-1,27
 923 69 923 69 844.5 23.5 c 128,-1,28
 766 -22 766 -22 657 -22 c 0,29,30
 545 -22 545 -22 452 24.5 c 128,-1,31
 359 71 359 71 292 173 c 1,32,-1
 292 71 l 1,0,1
298 514 m 0,33,34
 298 429 298 429 314 354 c 128,-1,35
 330 279 330 279 367.5 223.5 c 128,-1,36
 405 168 405 168 467.5 135 c 128,-1,37
 530 102 530 102 624 102 c 0,38,39
 680 102 680 102 722 119.5 c 128,-1,40
 764 137 764 137 795 167.5 c 128,-1,41
 826 198 826 198 846.5 238 c 128,-1,42
 867 278 867 278 879 322.5 c 128,-1,43
 891 367 891 367 896 414.5 c 128,-1,44
 901 462 901 462 901 508 c 0,45,46
 901 578 901 578 886 647 c 128,-1,47
 871 716 871 716 837 769.5 c 128,-1,48
 803 823 803 823 746.5 856 c 128,-1,49
 690 889 690 889 608 889 c 0,50,51
 523 889 523 889 464 858.5 c 128,-1,52
 405 828 405 828 368 776.5 c 128,-1,53
 331 725 331 725 314.5 656.5 c 128,-1,54
 298 588 298 588 298 514 c 0,33,34
EndSplineSet
EndChar

StartChar: c
Encoding: 99 99 70
Width: 971
Flags: W
LayerCount: 2
Fore
SplineSet
90 496 m 256,0,1
 90 601 90 601 121.5 694.5 c 128,-1,2
 153 788 153 788 213.5 859 c 128,-1,3
 274 930 274 930 362 971.5 c 128,-1,4
 450 1013 450 1013 563 1013 c 0,5,6
 610 1013 610 1013 663.5 1004 c 128,-1,7
 717 995 717 995 762 978 c 128,-1,8
 807 961 807 961 836.5 937 c 128,-1,9
 866 913 866 913 866 883 c 0,10,11
 866 860 866 860 851 842 c 128,-1,12
 836 824 836 824 810 824 c 0,13,14
 798 824 798 824 783 830 c 1,15,16
 683 888 683 888 577 888 c 0,17,18
 506 888 506 888 447.5 860.5 c 128,-1,19
 389 833 389 833 347 782.5 c 128,-1,20
 305 732 305 732 282 660.5 c 128,-1,21
 259 589 259 589 259 498 c 0,22,23
 259 426 259 426 274.5 356.5 c 128,-1,24
 290 287 290 287 326.5 228.5 c 128,-1,25
 363 170 363 170 425.5 136 c 128,-1,26
 488 102 488 102 576 102 c 0,27,28
 631 102 631 102 686 119 c 128,-1,29
 741 136 741 136 802 167 c 1,30,31
 817 173 817 173 830 173 c 0,32,33
 854 173 854 173 868.5 156 c 128,-1,34
 883 139 883 139 883 116 c 0,35,36
 883 86 883 86 850 60 c 128,-1,37
 817 34 817 34 768 16.5 c 128,-1,38
 719 -1 719 -1 661 -11.5 c 128,-1,39
 603 -22 603 -22 554 -22 c 0,40,41
 440 -22 440 -22 353.5 19 c 128,-1,42
 267 60 267 60 208.5 131 c 128,-1,43
 150 202 150 202 120 296.5 c 128,-1,44
 90 391 90 391 90 496 c 256,0,1
EndSplineSet
EndChar

StartChar: d
Encoding: 100 100 71
Width: 1162
Flags: W
LayerCount: 2
Fore
SplineSet
1024 75 m 2,0,1
 1024 37 1024 37 999.5 18.5 c 128,-1,2
 975 0 975 0 945 0 c 0,3,4
 930 0 930 0 916 4.5 c 128,-1,5
 902 9 902 9 890.5 18.5 c 128,-1,6
 879 28 879 28 872 41.5 c 128,-1,7
 865 55 865 55 864 73 c 1,8,-1
 864 118 l 2,9,10
 864 136 864 136 863 150 c 1,11,-1
 863 165 l 1,12,13
 794 65 794 65 705 21.5 c 128,-1,14
 616 -22 616 -22 505 -22 c 0,15,16
 396 -22 396 -22 317.5 23 c 128,-1,17
 239 68 239 68 189 142 c 128,-1,18
 139 216 139 216 115 310 c 128,-1,19
 91 404 91 404 91 500 c 0,20,21
 91 601 91 601 115 693.5 c 128,-1,22
 139 786 139 786 190 857 c 128,-1,23
 241 928 241 928 320.5 970.5 c 128,-1,24
 400 1013 400 1013 511 1013 c 0,25,26
 562 1013 562 1013 613.5 1002 c 128,-1,27
 665 991 665 991 711.5 968.5 c 128,-1,28
 758 946 758 946 797.5 912 c 128,-1,29
 837 878 837 878 864 831 c 1,30,-1
 864 1352 l 2,31,32
 864 1389 864 1389 888.5 1407 c 128,-1,33
 913 1425 913 1425 943 1425 c 256,34,35
 973 1425 973 1425 998.5 1406.5 c 128,-1,36
 1024 1388 1024 1388 1024 1352 c 2,37,-1
 1024 75 l 2,0,1
554 889 m 0,38,39
 471 889 471 889 415 856 c 128,-1,40
 359 823 359 823 324.5 768.5 c 128,-1,41
 290 714 290 714 275 646 c 128,-1,42
 260 578 260 578 260 508 c 0,43,44
 260 468 260 468 265 418 c 128,-1,45
 270 368 270 368 282.5 323 c 128,-1,46
 295 278 295 278 315.5 238 c 128,-1,47
 336 198 336 198 367 167.5 c 128,-1,48
 398 137 398 137 440 119.5 c 128,-1,49
 482 102 482 102 538 102 c 0,50,51
 632 102 632 102 694 135 c 128,-1,52
 756 168 756 168 793 224 c 128,-1,53
 830 280 830 280 845 355 c 128,-1,54
 860 430 860 430 860 514 c 0,55,56
 860 588 860 588 844 655.5 c 128,-1,57
 828 723 828 723 792 775.5 c 128,-1,58
 756 828 756 828 697.5 858.5 c 128,-1,59
 639 889 639 889 554 889 c 0,38,39
EndSplineSet
EndChar

StartChar: e
Encoding: 101 101 72
Width: 1132
Flags: W
LayerCount: 2
Fore
SplineSet
1041 526 m 0,0,1
 1041 503 1041 503 1026.5 485.5 c 128,-1,2
 1012 468 1012 468 977 468 c 2,3,-1
 262 468 l 1,4,5
 265 372 265 372 289.5 304.5 c 128,-1,6
 314 237 314 237 362.5 192 c 128,-1,7
 411 147 411 147 469.5 124.5 c 128,-1,8
 528 102 528 102 597 102 c 0,9,10
 670 102 670 102 745 128.5 c 128,-1,11
 820 155 820 155 894 206 c 0,12,13
 905 214 905 214 915.5 217 c 128,-1,14
 926 220 926 220 935 220 c 0,15,16
 958 220 958 220 972 205 c 128,-1,17
 986 190 986 190 986 169 c 0,18,19
 986 158 986 158 981 145.5 c 128,-1,20
 976 133 976 133 964 122 c 0,21,22
 923 83 923 83 876.5 55.5 c 128,-1,23
 830 28 830 28 781 11 c 128,-1,24
 732 -6 732 -6 682 -14 c 128,-1,25
 632 -22 632 -22 584 -22 c 0,26,27
 483 -22 483 -22 393.5 13.5 c 128,-1,28
 304 49 304 49 237.5 116 c 128,-1,29
 171 183 171 183 132.5 279.5 c 128,-1,30
 94 376 94 376 94 496 c 0,31,32
 94 599 94 599 124.5 692.5 c 128,-1,33
 155 786 155 786 215 857.5 c 128,-1,34
 275 929 275 929 363.5 971 c 128,-1,35
 452 1013 452 1013 568 1013 c 0,36,37
 689 1013 689 1013 777.5 976 c 128,-1,38
 866 939 866 939 923.5 874 c 128,-1,39
 981 809 981 809 1009.5 720 c 128,-1,40
 1038 631 1038 631 1041 526 c 0,0,1
884 574 m 1,41,42
 879 644 879 644 857.5 702 c 128,-1,43
 836 760 836 760 797 802 c 128,-1,44
 758 844 758 844 701.5 866.5 c 128,-1,45
 645 889 645 889 570 889 c 0,46,47
 505 889 505 889 451 864 c 128,-1,48
 397 839 397 839 358 795.5 c 128,-1,49
 319 752 319 752 295 695 c 128,-1,50
 271 638 271 638 266 574 c 1,51,-1
 884 574 l 1,41,42
EndSplineSet
EndChar

StartChar: f
Encoding: 102 102 73
Width: 696
Flags: W
LayerCount: 2
Fore
SplineSet
402 874 m 1,0,-1
 402 79 l 2,1,2
 402 40 402 40 377 20 c 128,-1,3
 352 0 352 0 321 0 c 0,4,5
 306 0 306 0 292 5 c 128,-1,6
 278 10 278 10 267 19.5 c 128,-1,7
 256 29 256 29 249 44 c 128,-1,8
 242 59 242 59 242 79 c 2,9,-1
 242 874 l 1,10,-1
 107 874 l 2,11,12
 75 874 75 874 59 892.5 c 128,-1,13
 43 911 43 911 43 933 c 256,14,15
 43 955 43 955 59 973 c 128,-1,16
 75 991 75 991 107 991 c 2,17,-1
 242 991 l 1,18,-1
 242 1102 l 2,19,20
 242 1199 242 1199 259.5 1265.5 c 128,-1,21
 277 1332 277 1332 309.5 1372.5 c 128,-1,22
 342 1413 342 1413 388.5 1431 c 128,-1,23
 435 1449 435 1449 492 1449 c 0,24,25
 530 1449 530 1449 571 1442 c 128,-1,26
 612 1435 612 1435 653 1424 c 0,27,28
 674 1418 674 1418 683.5 1402.5 c 128,-1,29
 693 1387 693 1387 693 1370 c 0,30,31
 693 1348 693 1348 679 1330 c 128,-1,32
 665 1312 665 1312 639 1312 c 0,33,34
 622 1312 622 1312 608.5 1314 c 128,-1,35
 595 1316 595 1316 582.5 1318 c 128,-1,36
 570 1320 570 1320 557 1322 c 128,-1,37
 544 1324 544 1324 529 1324 c 0,38,39
 487 1324 487 1324 462 1309.5 c 128,-1,40
 437 1295 437 1295 423.5 1260.5 c 128,-1,41
 410 1226 410 1226 406 1168 c 128,-1,42
 402 1110 402 1110 402 1023 c 2,43,-1
 402 991 l 1,44,-1
 574 991 l 2,45,46
 606 991 606 991 622 973 c 128,-1,47
 638 955 638 955 638 933 c 0,48,49
 638 910 638 910 622 892 c 128,-1,50
 606 874 606 874 574 874 c 2,51,-1
 402 874 l 1,0,-1
EndSplineSet
EndChar

StartChar: g
Encoding: 103 103 74
Width: 1162
Flags: W
LayerCount: 2
Fore
SplineSet
866 493 m 0,0,1
 866 566 866 566 850.5 637 c 128,-1,2
 835 708 835 708 798.5 764 c 128,-1,3
 762 820 762 820 702 854 c 128,-1,4
 642 888 642 888 554 888 c 0,5,6
 471 888 471 888 414.5 858.5 c 128,-1,7
 358 829 358 829 324 777 c 128,-1,8
 290 725 290 725 275.5 653 c 128,-1,9
 261 581 261 581 261 497 c 0,10,11
 261 396 261 396 285.5 325 c 128,-1,12
 310 254 310 254 351 207.5 c 128,-1,13
 392 161 392 161 445.5 138 c 128,-1,14
 499 115 499 115 556 115 c 0,15,16
 615 115 615 115 671 139 c 128,-1,17
 727 163 727 163 770.5 210.5 c 128,-1,18
 814 258 814 258 840 330 c 128,-1,19
 866 402 866 402 866 493 c 0,0,1
867 195 m 1,20,21
 839 141 839 141 801 105 c 128,-1,22
 763 69 763 69 719 46 c 128,-1,23
 675 23 675 23 626 11.5 c 128,-1,24
 577 0 577 0 528 0 c 0,25,26
 412 0 412 0 329 40.5 c 128,-1,27
 246 81 246 81 192.5 148.5 c 128,-1,28
 139 216 139 216 113.5 303.5 c 128,-1,29
 88 391 88 391 88 491 c 0,30,31
 88 597 88 597 113.5 692 c 128,-1,32
 139 787 139 787 191.5 858 c 128,-1,33
 244 929 244 929 324 971 c 128,-1,34
 404 1013 404 1013 513 1013 c 0,35,36
 569 1013 569 1013 620.5 1003 c 128,-1,37
 672 993 672 993 717.5 969.5 c 128,-1,38
 763 946 763 946 802.5 908 c 128,-1,39
 842 870 842 870 873 815 c 1,40,-1
 873 924 l 1,41,42
 875 957 875 957 898 974 c 128,-1,43
 921 991 921 991 948 991 c 0,44,45
 977 991 977 991 1000 972.5 c 128,-1,46
 1023 954 1023 954 1023 917 c 2,47,-1
 1023 -21 l 2,48,49
 1023 -126 1023 -126 989.5 -201.5 c 128,-1,50
 956 -277 956 -277 894.5 -325.5 c 128,-1,51
 833 -374 833 -374 746.5 -396.5 c 128,-1,52
 660 -419 660 -419 553 -419 c 0,53,54
 485 -419 485 -419 430.5 -411 c 128,-1,55
 376 -403 376 -403 333 -387.5 c 128,-1,56
 290 -372 290 -372 256.5 -350 c 128,-1,57
 223 -328 223 -328 196 -299 c 1,58,59
 176 -279 176 -279 176 -255 c 0,60,61
 176 -232 176 -232 193.5 -214.5 c 128,-1,62
 211 -197 211 -197 237 -197 c 0,63,64
 253 -197 253 -197 271 -206 c 1,65,66
 299 -222 299 -222 327 -236.5 c 128,-1,67
 355 -251 355 -251 387.5 -262.5 c 128,-1,68
 420 -274 420 -274 458.5 -280.5 c 128,-1,69
 497 -287 497 -287 546 -287 c 0,70,71
 618 -287 618 -287 677 -274.5 c 128,-1,72
 736 -262 736 -262 778.5 -232.5 c 128,-1,73
 821 -203 821 -203 844 -154.5 c 128,-1,74
 867 -106 867 -106 867 -33 c 2,75,-1
 867 195 l 1,20,21
EndSplineSet
EndChar

StartChar: h
Encoding: 104 104 75
Width: 1158
Flags: W
LayerCount: 2
Fore
SplineSet
843 645 m 2,0,1
 843 707 843 707 824 754 c 128,-1,2
 805 801 805 801 773 831 c 128,-1,3
 741 861 741 861 700 875 c 128,-1,4
 659 889 659 889 614 889 c 0,5,6
 552 889 552 889 498 870 c 128,-1,7
 444 851 444 851 403 812 c 128,-1,8
 362 773 362 773 338.5 715 c 128,-1,9
 315 657 315 657 315 575 c 2,10,-1
 315 76 l 2,11,12
 315 38 315 38 289.5 19 c 128,-1,13
 264 0 264 0 234 0 c 256,14,15
 204 0 204 0 179.5 19 c 128,-1,16
 155 38 155 38 155 76 c 2,17,-1
 155 1352 l 2,18,19
 155 1388 155 1388 180.5 1406.5 c 128,-1,20
 206 1425 206 1425 236 1425 c 256,21,22
 266 1425 266 1425 290.5 1407 c 128,-1,23
 315 1389 315 1389 315 1352 c 2,24,-1
 315 825 l 1,25,26
 335 871 335 871 370 906 c 128,-1,27
 405 941 405 941 449.5 965 c 128,-1,28
 494 989 494 989 545 1001 c 128,-1,29
 596 1013 596 1013 648 1013 c 0,30,31
 720 1013 720 1013 784 992 c 128,-1,32
 848 971 848 971 897 925.5 c 128,-1,33
 946 880 946 880 974.5 808 c 128,-1,34
 1003 736 1003 736 1003 633 c 2,35,-1
 1003 76 l 2,36,37
 1003 38 1003 38 977.5 19 c 128,-1,38
 952 0 952 0 922 0 c 256,39,40
 892 0 892 0 867.5 19 c 128,-1,41
 843 38 843 38 843 76 c 2,42,-1
 843 645 l 2,0,1
EndSplineSet
EndChar

StartChar: i
Encoding: 105 105 76
Width: 474
Flags: W
LayerCount: 2
Fore
SplineSet
345 1336 m 256,0,1
 345 1299 345 1299 316.5 1271.5 c 128,-1,2
 288 1244 288 1244 236 1244 c 0,3,4
 185 1244 185 1244 156.5 1271.5 c 128,-1,5
 128 1299 128 1299 128 1336 c 256,6,7
 128 1373 128 1373 156.5 1400.5 c 128,-1,8
 185 1428 185 1428 237 1428 c 0,9,10
 288 1428 288 1428 316.5 1400.5 c 128,-1,11
 345 1373 345 1373 345 1336 c 256,0,1
157 911 m 2,12,13
 157 951 157 951 182.5 971 c 128,-1,14
 208 991 208 991 238 991 c 0,15,16
 253 991 253 991 267 986 c 128,-1,17
 281 981 281 981 292 971 c 128,-1,18
 303 961 303 961 310 946 c 128,-1,19
 317 931 317 931 317 911 c 2,20,-1
 317 81 l 2,21,22
 317 41 317 41 291 20.5 c 128,-1,23
 265 0 265 0 235 0 c 256,24,25
 205 0 205 0 181 19.5 c 128,-1,26
 157 39 157 39 157 81 c 2,27,-1
 157 911 l 2,12,13
EndSplineSet
EndChar

StartChar: j
Encoding: 106 106 77
Width: 476
Flags: W
LayerCount: 2
Fore
SplineSet
320 -33 m 2,0,1
 320 -126 320 -126 313 -191 c 128,-1,2
 306 -256 306 -256 279 -296.5 c 128,-1,3
 252 -337 252 -337 198.5 -355 c 128,-1,4
 145 -373 145 -373 52 -373 c 0,5,6
 45 -373 45 -373 35.5 -372 c 128,-1,7
 26 -371 26 -371 17 -368.5 c 128,-1,8
 8 -366 8 -366 2 -363.5 c 128,-1,9
 -4 -361 -4 -361 -4 -358 c 1,10,11
 -26 -356 -26 -356 -36.5 -340.5 c 128,-1,12
 -47 -325 -47 -325 -47 -307 c 0,13,14
 -47 -287 -47 -287 -33.5 -269 c 128,-1,15
 -20 -251 -20 -251 7 -251 c 0,16,17
 59 -251 59 -251 89.5 -246 c 128,-1,18
 120 -241 120 -241 135.5 -223 c 128,-1,19
 151 -205 151 -205 155 -169.5 c 128,-1,20
 159 -134 159 -134 159 -72 c 2,21,-1
 159 911 l 2,22,23
 159 951 159 951 184.5 971 c 128,-1,24
 210 991 210 991 241 991 c 0,25,26
 256 991 256 991 270 986 c 128,-1,27
 284 981 284 981 295 971 c 128,-1,28
 306 961 306 961 313 946 c 128,-1,29
 320 931 320 931 320 911 c 2,30,-1
 320 -33 l 2,0,1
348 1336 m 256,31,32
 348 1299 348 1299 319 1271.5 c 128,-1,33
 290 1244 290 1244 239 1244 c 256,34,35
 188 1244 188 1244 159.5 1271.5 c 128,-1,36
 131 1299 131 1299 131 1336 c 256,37,38
 131 1373 131 1373 159.5 1400.5 c 128,-1,39
 188 1428 188 1428 239 1428 c 256,40,41
 290 1428 290 1428 319 1400.5 c 128,-1,42
 348 1373 348 1373 348 1336 c 256,31,32
EndSplineSet
EndChar

StartChar: k
Encoding: 107 107 78
Width: 992
Flags: W
LayerCount: 2
Fore
SplineSet
326 534 m 1,0,-1
 326 81 l 2,1,2
 326 41 326 41 300.5 20.5 c 128,-1,3
 275 0 275 0 244 0 c 0,4,5
 215 0 215 0 190.5 19.5 c 128,-1,6
 166 39 166 39 166 81 c 2,7,-1
 166 1345 l 2,8,9
 166 1385 166 1385 191.5 1405 c 128,-1,10
 217 1425 217 1425 247 1425 c 0,11,12
 262 1425 262 1425 276 1420 c 128,-1,13
 290 1415 290 1415 301 1405 c 128,-1,14
 312 1395 312 1395 319 1380 c 128,-1,15
 326 1365 326 1365 326 1345 c 2,16,-1
 326 589 l 1,17,-1
 778 968 l 1,18,19
 801 991 801 991 829 991 c 256,20,21
 857 991 857 991 878 972 c 128,-1,22
 899 953 899 953 899 927 c 0,23,24
 899 916 899 916 894 904.5 c 128,-1,25
 889 893 889 893 878 883 c 2,26,-1
 493 562 l 1,27,-1
 929 112 l 2,28,29
 938 102 938 102 941.5 91.5 c 128,-1,30
 945 81 945 81 945 71 c 0,31,32
 945 57 945 57 938.5 44 c 128,-1,33
 932 31 932 31 921 21 c 128,-1,34
 910 11 910 11 896 5.5 c 128,-1,35
 882 0 882 0 868 0 c 0,36,37
 842 0 842 0 816 26 c 2,38,-1
 326 534 l 1,0,-1
EndSplineSet
EndChar

StartChar: l
Encoding: 108 108 79
Width: 474
Flags: W
LayerCount: 2
Fore
SplineSet
157 1345 m 2,0,1
 157 1385 157 1385 182.5 1405 c 128,-1,2
 208 1425 208 1425 238 1425 c 0,3,4
 253 1425 253 1425 267 1420 c 128,-1,5
 281 1415 281 1415 292 1405 c 128,-1,6
 303 1395 303 1395 310 1380 c 128,-1,7
 317 1365 317 1365 317 1345 c 2,8,-1
 317 81 l 2,9,10
 317 41 317 41 291 20.5 c 128,-1,11
 265 0 265 0 235 0 c 256,12,13
 205 0 205 0 181 19.5 c 128,-1,14
 157 39 157 39 157 81 c 2,15,-1
 157 1345 l 2,0,1
EndSplineSet
EndChar

StartChar: m
Encoding: 109 109 80
Width: 1840
Flags: W
LayerCount: 2
Fore
SplineSet
1528 642 m 2,0,1
 1528 707 1528 707 1509 754 c 128,-1,2
 1490 801 1490 801 1458.5 831 c 128,-1,3
 1427 861 1427 861 1385.5 875 c 128,-1,4
 1344 889 1344 889 1300 889 c 0,5,6
 1244 889 1244 889 1190.5 872.5 c 128,-1,7
 1137 856 1137 856 1095 820 c 128,-1,8
 1053 784 1053 784 1027 725 c 128,-1,9
 1001 666 1001 666 1001 579 c 2,10,-1
 1001 76 l 2,11,12
 1001 38 1001 38 975.5 19 c 128,-1,13
 950 0 950 0 920 0 c 256,14,15
 890 0 890 0 865.5 19 c 128,-1,16
 841 38 841 38 841 76 c 2,17,-1
 841 642 l 2,18,19
 841 707 841 707 822 754 c 128,-1,20
 803 801 803 801 771.5 831 c 128,-1,21
 740 861 740 861 698.5 875 c 128,-1,22
 657 889 657 889 613 889 c 0,23,24
 551 889 551 889 497 870 c 128,-1,25
 443 851 443 851 402.5 812 c 128,-1,26
 362 773 362 773 338.5 715 c 128,-1,27
 315 657 315 657 315 576 c 2,28,-1
 315 75 l 2,29,30
 315 37 315 37 289.5 18.5 c 128,-1,31
 264 0 264 0 233 0 c 0,32,33
 203 0 203 0 178.5 18.5 c 128,-1,34
 154 37 154 37 154 75 c 2,35,-1
 154 918 l 2,36,37
 154 954 154 954 179.5 972.5 c 128,-1,38
 205 991 205 991 235 991 c 0,39,40
 250 991 250 991 264 986.5 c 128,-1,41
 278 982 278 982 289 973.5 c 128,-1,42
 300 965 300 965 307.5 952 c 128,-1,43
 315 939 315 939 315 921 c 2,44,-1
 315 826 l 1,45,46
 335 872 335 872 369.5 907 c 128,-1,47
 404 942 404 942 448.5 965.5 c 128,-1,48
 493 989 493 989 544 1001 c 128,-1,49
 595 1013 595 1013 647 1013 c 0,50,51
 701 1013 701 1013 751.5 1001.5 c 128,-1,52
 802 990 802 990 845 964.5 c 128,-1,53
 888 939 888 939 921.5 899 c 128,-1,54
 955 859 955 859 975 802 c 1,55,56
 1012 865 1012 865 1054.5 905.5 c 128,-1,57
 1097 946 1097 946 1143 970 c 128,-1,58
 1189 994 1189 994 1237.5 1003.5 c 128,-1,59
 1286 1013 1286 1013 1335 1013 c 0,60,61
 1406 1013 1406 1013 1470 992 c 128,-1,62
 1534 971 1534 971 1582.5 925.5 c 128,-1,63
 1631 880 1631 880 1659.5 807.5 c 128,-1,64
 1688 735 1688 735 1688 633 c 2,65,-1
 1688 75 l 2,66,67
 1688 37 1688 37 1662.5 18.5 c 128,-1,68
 1637 0 1637 0 1607 0 c 256,69,70
 1577 0 1577 0 1552.5 18.5 c 128,-1,71
 1528 37 1528 37 1528 75 c 2,72,-1
 1528 642 l 2,0,1
EndSplineSet
EndChar

StartChar: n
Encoding: 110 110 81
Width: 1158
Flags: W
LayerCount: 2
Fore
SplineSet
155 917 m 2,0,1
 155 953 155 953 180.5 971.5 c 128,-1,2
 206 990 206 990 236 990 c 0,3,4
 290 990 290 990 306.5 950 c 128,-1,5
 323 910 323 910 315 826 c 1,6,7
 335 871 335 871 370 903.5 c 128,-1,8
 405 936 405 936 449.5 961 c 128,-1,9
 494 986 494 986 545 999.5 c 128,-1,10
 596 1013 596 1013 648 1013 c 0,11,12
 720 1013 720 1013 784 991 c 128,-1,13
 848 969 848 969 897 922 c 128,-1,14
 946 875 946 875 974.5 802 c 128,-1,15
 1003 729 1003 729 1003 626 c 2,16,-1
 1003 76 l 2,17,18
 1003 38 1003 38 977.5 19 c 128,-1,19
 952 0 952 0 922 0 c 256,20,21
 892 0 892 0 867.5 19 c 128,-1,22
 843 38 843 38 843 76 c 2,23,-1
 843 639 l 2,24,25
 843 704 843 704 824 750 c 128,-1,26
 805 796 805 796 773 827.5 c 128,-1,27
 741 859 741 859 700 874 c 128,-1,28
 659 889 659 889 614 889 c 0,29,30
 552 889 552 889 498 869 c 128,-1,31
 444 849 444 849 403 813 c 128,-1,32
 362 777 362 777 338.5 717 c 128,-1,33
 315 657 315 657 315 576 c 2,34,-1
 315 76 l 2,35,36
 315 38 315 38 289.5 19 c 128,-1,37
 264 0 264 0 234 0 c 256,38,39
 204 0 204 0 179.5 19 c 128,-1,40
 155 38 155 38 155 76 c 2,41,-1
 155 917 l 2,0,1
EndSplineSet
EndChar

StartChar: o
Encoding: 111 111 82
Width: 1162
Flags: W
LayerCount: 2
Fore
SplineSet
86 496 m 0,0,1
 86 588 86 588 116 682.5 c 128,-1,2
 146 777 146 777 207 850.5 c 128,-1,3
 268 924 268 924 361 968.5 c 128,-1,4
 454 1013 454 1013 580 1013 c 256,5,6
 706 1013 706 1013 799.5 968.5 c 128,-1,7
 893 924 893 924 954 850.5 c 128,-1,8
 1015 777 1015 777 1045 682.5 c 128,-1,9
 1075 588 1075 588 1075 496 c 0,10,11
 1075 402 1075 402 1045 308 c 128,-1,12
 1015 214 1015 214 954 140.5 c 128,-1,13
 893 67 893 67 799.5 22.5 c 128,-1,14
 706 -22 706 -22 580 -22 c 256,15,16
 454 -22 454 -22 361 22.5 c 128,-1,17
 268 67 268 67 207 140.5 c 128,-1,18
 146 214 146 214 116 308 c 128,-1,19
 86 402 86 402 86 496 c 0,0,1
257 496 m 0,20,21
 257 432 257 432 275 361 c 128,-1,22
 293 290 293 290 332 232.5 c 128,-1,23
 371 175 371 175 432.5 138.5 c 128,-1,24
 494 102 494 102 580 102 c 0,25,26
 667 102 667 102 728.5 138.5 c 128,-1,27
 790 175 790 175 828.5 232.5 c 128,-1,28
 867 290 867 290 885 361 c 128,-1,29
 903 432 903 432 903 496 c 0,30,31
 903 558 903 558 885 629.5 c 128,-1,32
 867 701 867 701 828.5 758.5 c 128,-1,33
 790 816 790 816 728.5 852.5 c 128,-1,34
 667 889 667 889 580 889 c 0,35,36
 494 889 494 889 432.5 852.5 c 128,-1,37
 371 816 371 816 332 758.5 c 128,-1,38
 293 701 293 701 275 629.5 c 128,-1,39
 257 558 257 558 257 496 c 0,20,21
EndSplineSet
EndChar

StartChar: p
Encoding: 112 112 83
Width: 1162
Flags: W
LayerCount: 2
Fore
SplineSet
298 825 m 1,0,1
 325 873 325 873 363.5 908.5 c 128,-1,2
 402 944 402 944 448.5 967.5 c 128,-1,3
 495 991 495 991 548 1002 c 128,-1,4
 601 1013 601 1013 657 1013 c 0,5,6
 766 1013 766 1013 844.5 968.5 c 128,-1,7
 923 924 923 924 973 851 c 128,-1,8
 1023 778 1023 778 1047 684 c 128,-1,9
 1071 590 1071 590 1071 491 c 0,10,11
 1071 391 1071 391 1046 298 c 128,-1,12
 1021 205 1021 205 969.5 134 c 128,-1,13
 918 63 918 63 838.5 20.5 c 128,-1,14
 759 -22 759 -22 651 -22 c 0,15,16
 600 -22 600 -22 549 -10.5 c 128,-1,17
 498 1 498 1 452 24 c 128,-1,18
 406 47 406 47 366.5 82.5 c 128,-1,19
 327 118 327 118 298 164 c 1,20,-1
 298 -305 l 2,21,22
 298 -342 298 -342 273 -360.5 c 128,-1,23
 248 -379 248 -379 218 -379 c 256,24,25
 188 -379 188 -379 163 -360.5 c 128,-1,26
 138 -342 138 -342 138 -305 c 2,27,-1
 138 917 l 2,28,29
 138 954 138 954 162.5 972 c 128,-1,30
 187 990 187 990 217 990 c 0,31,32
 271 990 271 990 288.5 949.5 c 128,-1,33
 306 909 306 909 298 825 c 1,0,1
299 492 m 0,34,35
 299 416 299 416 316.5 346.5 c 128,-1,36
 334 277 334 277 371.5 222.5 c 128,-1,37
 409 168 409 168 469 135 c 128,-1,38
 529 102 529 102 613 102 c 0,39,40
 669 102 669 102 712.5 118 c 128,-1,41
 756 134 756 134 788 162.5 c 128,-1,42
 820 191 820 191 841.5 229 c 128,-1,43
 863 267 863 267 876.5 311 c 128,-1,44
 890 355 890 355 895.5 406.5 c 128,-1,45
 901 458 901 458 901 497 c 0,46,47
 901 564 901 564 888 633.5 c 128,-1,48
 875 703 875 703 842.5 759.5 c 128,-1,49
 810 816 810 816 755 852 c 128,-1,50
 700 888 700 888 616 889 c 1,51,52
 522 889 522 889 461 858 c 128,-1,53
 400 827 400 827 364 773.5 c 128,-1,54
 328 720 328 720 313.5 648 c 128,-1,55
 299 576 299 576 299 492 c 0,34,35
EndSplineSet
EndChar

StartChar: q
Encoding: 113 113 84
Width: 1162
Flags: W
LayerCount: 2
Fore
SplineSet
868 825 m 1,0,1
 868 855 868 855 868.5 873 c 128,-1,2
 869 891 869 891 869 921 c 1,3,4
 871 956 871 956 895 973.5 c 128,-1,5
 919 991 919 991 947 991 c 0,6,7
 976 991 976 991 999.5 972.5 c 128,-1,8
 1023 954 1023 954 1023 917 c 2,9,-1
 1023 -303 l 2,10,11
 1023 -340 1023 -340 997.5 -358.5 c 128,-1,12
 972 -377 972 -377 942 -377 c 256,13,14
 912 -377 912 -377 887.5 -359 c 128,-1,15
 863 -341 863 -341 863 -303 c 2,16,-1
 863 164 l 1,17,18
 834 118 834 118 794.5 82.5 c 128,-1,19
 755 47 755 47 709 24 c 128,-1,20
 663 1 663 1 612 -10.5 c 128,-1,21
 561 -22 561 -22 510 -22 c 0,22,23
 402 -22 402 -22 322.5 20.5 c 128,-1,24
 243 63 243 63 191.5 134 c 128,-1,25
 140 205 140 205 115 298 c 128,-1,26
 90 391 90 391 90 491 c 0,27,28
 90 590 90 590 114 684 c 128,-1,29
 138 778 138 778 188 851 c 128,-1,30
 238 924 238 924 316.5 968.5 c 128,-1,31
 395 1013 395 1013 504 1013 c 0,32,33
 559 1013 559 1013 613 1002 c 128,-1,34
 667 991 667 991 715 967.5 c 128,-1,35
 763 944 763 944 802 908.5 c 128,-1,36
 841 873 841 873 868 825 c 1,0,1
862 492 m 0,37,38
 862 576 862 576 847.5 648 c 128,-1,39
 833 720 833 720 797 773.5 c 128,-1,40
 761 827 761 827 700 857.5 c 128,-1,41
 639 888 639 888 545 889 c 1,42,43
 461 888 461 888 406 852 c 128,-1,44
 351 816 351 816 318.5 759.5 c 128,-1,45
 286 703 286 703 272.5 633.5 c 128,-1,46
 259 564 259 564 259 497 c 0,47,48
 259 428 259 428 272.5 356.5 c 128,-1,49
 286 285 286 285 319 229 c 128,-1,50
 352 173 352 173 407.5 137.5 c 128,-1,51
 463 102 463 102 547 102 c 0,52,53
 632 102 632 102 691.5 135 c 128,-1,54
 751 168 751 168 789 221 c 128,-1,55
 827 274 827 274 844.5 346 c 128,-1,56
 862 418 862 418 862 492 c 0,37,38
EndSplineSet
EndChar

StartChar: r
Encoding: 114 114 85
Width: 709
Flags: W
LayerCount: 2
Fore
SplineSet
155 915 m 2,0,1
 155 951 155 951 179.5 971 c 128,-1,2
 204 991 204 991 240 991 c 0,3,4
 275 991 275 991 295 971 c 128,-1,5
 315 951 315 951 315 915 c 2,6,-1
 315 826 l 1,7,8
 330 869 330 869 353 904 c 128,-1,9
 376 939 376 939 409 963 c 128,-1,10
 442 987 442 987 486.5 1000 c 128,-1,11
 531 1013 531 1013 589 1013 c 0,12,13
 628 1013 628 1013 648.5 991 c 128,-1,14
 669 969 669 969 669 943 c 0,15,16
 669 918 669 918 649 896.5 c 128,-1,17
 629 875 629 875 587 875 c 0,18,19
 522 875 522 875 471.5 853.5 c 128,-1,20
 421 832 421 832 386.5 792 c 128,-1,21
 352 752 352 752 333.5 694.5 c 128,-1,22
 315 637 315 637 315 565 c 2,23,-1
 315 74 l 2,24,25
 315 37 315 37 289.5 18.5 c 128,-1,26
 264 0 264 0 233 0 c 0,27,28
 218 0 218 0 204 4.5 c 128,-1,29
 190 9 190 9 179 18 c 128,-1,30
 168 27 168 27 161.5 41 c 128,-1,31
 155 55 155 55 155 74 c 2,32,-1
 155 915 l 2,0,1
EndSplineSet
EndChar

StartChar: s
Encoding: 115 115 86
Width: 1024
Flags: W
LayerCount: 2
Fore
SplineSet
284 747 m 0,0,1
 284 712 284 712 300.5 688.5 c 128,-1,2
 317 665 317 665 347.5 648.5 c 128,-1,3
 378 632 378 632 420.5 620.5 c 128,-1,4
 463 609 463 609 514.5 596.5 c 128,-1,5
 566 584 566 584 625.5 569.5 c 128,-1,6
 685 555 685 555 749 533 c 1,7,8
 834 506 834 506 883.5 444.5 c 128,-1,9
 933 383 933 383 933 299 c 256,10,11
 933 215 933 215 896.5 154.5 c 128,-1,12
 860 94 860 94 799.5 55 c 128,-1,13
 739 16 739 16 660 -3 c 128,-1,14
 581 -22 581 -22 496 -22 c 0,15,16
 425 -22 425 -22 356 -8 c 128,-1,17
 287 6 287 6 233 28 c 128,-1,18
 179 50 179 50 145.5 78 c 128,-1,19
 112 106 112 106 112 133 c 0,20,21
 112 156 112 156 130.5 172.5 c 128,-1,22
 149 189 149 189 178 189 c 0,23,24
 194 189 194 189 225 174.5 c 128,-1,25
 256 160 256 160 299.5 144.5 c 128,-1,26
 343 129 343 129 399 115.5 c 128,-1,27
 455 102 455 102 523 102 c 0,28,29
 569 102 569 102 613.5 111.5 c 128,-1,30
 658 121 658 121 693.5 143 c 128,-1,31
 729 165 729 165 750.5 198.5 c 128,-1,32
 772 232 772 232 772 280 c 0,33,34
 772 338 772 338 734.5 371 c 128,-1,35
 697 404 697 404 636 424 c 0,36,37
 583 441 583 441 524 453.5 c 128,-1,38
 465 466 465 466 408 479.5 c 128,-1,39
 351 493 351 493 299.5 511 c 128,-1,40
 248 529 248 529 208.5 558.5 c 128,-1,41
 169 588 169 588 146 631.5 c 128,-1,42
 123 675 123 675 123 740 c 0,43,44
 123 816 123 816 156 868 c 128,-1,45
 189 920 189 920 244 952.5 c 128,-1,46
 299 985 299 985 369.5 999 c 128,-1,47
 440 1013 440 1013 515 1013 c 0,48,49
 606 1013 606 1013 673.5 997.5 c 128,-1,50
 741 982 741 982 785 959.5 c 128,-1,51
 829 937 829 937 850.5 911.5 c 128,-1,52
 872 886 872 886 872 865 c 0,53,54
 872 843 872 843 854 828.5 c 128,-1,55
 836 814 836 814 810 814 c 0,56,57
 799 814 799 814 786.5 817 c 128,-1,58
 774 820 774 820 763 828 c 0,59,60
 740 843 740 843 714.5 855 c 128,-1,61
 689 867 689 867 659 874.5 c 128,-1,62
 629 882 629 882 592.5 885.5 c 128,-1,63
 556 889 556 889 510 889 c 0,64,65
 465 889 465 889 424.5 882 c 128,-1,66
 384 875 384 875 352.5 859 c 128,-1,67
 321 843 321 843 302.5 815 c 128,-1,68
 284 787 284 787 284 747 c 0,0,1
EndSplineSet
EndChar

StartChar: t
Encoding: 116 116 87
Width: 706
Flags: W
LayerCount: 2
Fore
SplineSet
238 991 m 1,0,-1
 251 1273 l 2,1,2
 253 1305 253 1305 277.5 1323 c 128,-1,3
 302 1341 302 1341 330 1341 c 0,4,5
 355 1341 355 1341 374.5 1325 c 128,-1,6
 394 1309 394 1309 394 1275 c 2,7,-1
 394 991 l 1,8,-1
 573 991 l 2,9,10
 605 991 605 991 621 972 c 128,-1,11
 637 953 637 953 637 930 c 256,12,13
 637 907 637 907 621 889 c 128,-1,14
 605 871 605 871 573 871 c 2,15,-1
 394 871 l 1,16,-1
 394 407 l 2,17,18
 394 317 394 317 396 259.5 c 128,-1,19
 398 202 398 202 410 166.5 c 128,-1,20
 422 131 422 131 447 116.5 c 128,-1,21
 472 102 472 102 517 102 c 0,22,23
 543 102 543 102 572 106.5 c 128,-1,24
 601 111 601 111 621 111 c 0,25,26
 650 111 650 111 664.5 93.5 c 128,-1,27
 679 76 679 76 679 59 c 0,28,29
 679 33 679 33 661 17.5 c 128,-1,30
 643 2 643 2 613.5 -7 c 128,-1,31
 584 -16 584 -16 551.5 -19 c 128,-1,32
 519 -22 519 -22 495 -22 c 0,33,34
 428 -22 428 -22 379 -4.5 c 128,-1,35
 330 13 330 13 297.5 53 c 128,-1,36
 265 93 265 93 249.5 158 c 128,-1,37
 234 223 234 223 234 319 c 2,38,-1
 234 871 l 1,39,-1
 113 871 l 2,40,41
 81 871 81 871 64.5 889.5 c 128,-1,42
 48 908 48 908 48 931 c 256,43,44
 48 954 48 954 64.5 972.5 c 128,-1,45
 81 991 81 991 113 991 c 2,46,-1
 238 991 l 1,0,-1
EndSplineSet
EndChar

StartChar: u
Encoding: 117 117 88
Width: 1158
Flags: W
LayerCount: 2
Fore
SplineSet
1003 75 m 2,0,1
 1003 37 1003 37 977.5 18.5 c 128,-1,2
 952 0 952 0 922 0 c 0,3,4
 907 0 907 0 893 4.5 c 128,-1,5
 879 9 879 9 868 18 c 128,-1,6
 857 27 857 27 850 41 c 128,-1,7
 843 55 843 55 843 73 c 2,8,-1
 843 164 l 1,9,10
 822 120 822 120 787 85 c 128,-1,11
 752 50 752 50 707.5 26 c 128,-1,12
 663 2 663 2 612.5 -10 c 128,-1,13
 562 -22 562 -22 510 -22 c 0,14,15
 438 -22 438 -22 374 0 c 128,-1,16
 310 22 310 22 261 69 c 128,-1,17
 212 116 212 116 183.5 189.5 c 128,-1,18
 155 263 155 263 155 365 c 2,19,-1
 155 916 l 2,20,21
 155 954 155 954 180 972.5 c 128,-1,22
 205 991 205 991 235 991 c 256,23,24
 265 991 265 991 290 972.5 c 128,-1,25
 315 954 315 954 315 916 c 2,26,-1
 315 354 l 2,27,28
 315 289 315 289 327.5 239 c 128,-1,29
 340 189 340 189 371 157.5 c 128,-1,30
 402 126 402 126 446 114 c 128,-1,31
 490 102 490 102 544 102 c 0,32,33
 602 102 602 102 654.5 118.5 c 128,-1,34
 707 135 707 135 747 170.5 c 128,-1,35
 787 206 787 206 812.5 259.5 c 128,-1,36
 838 313 838 313 843 387 c 1,37,-1
 843 916 l 2,38,39
 843 953 843 953 868.5 972 c 128,-1,40
 894 991 894 991 924 991 c 256,41,42
 954 991 954 991 978.5 972.5 c 128,-1,43
 1003 954 1003 954 1003 916 c 2,44,-1
 1003 75 l 2,0,1
EndSplineSet
EndChar

StartChar: v
Encoding: 118 118 89
Width: 1027
Flags: W
LayerCount: 2
Fore
SplineSet
659 121 m 2,0,1
 633 57 633 57 602.5 28.5 c 128,-1,2
 572 0 572 0 519 0 c 256,3,4
 466 0 466 0 435.5 28.5 c 128,-1,5
 405 57 405 57 378 121 c 2,6,-1
 57 890 l 2,7,8
 51 905 51 905 51 919 c 0,9,10
 51 935 51 935 58 948 c 128,-1,11
 65 961 65 961 77 970.5 c 128,-1,12
 89 980 89 980 104 985.5 c 128,-1,13
 119 991 119 991 134 991 c 0,14,15
 156 991 156 991 175.5 979 c 128,-1,16
 195 967 195 967 205 940 c 1,17,-1
 518 185 l 1,18,-1
 820 940 l 2,19,20
 830 967 830 967 850 979 c 128,-1,21
 870 991 870 991 893 991 c 0,22,23
 908 991 908 991 923 986 c 128,-1,24
 938 981 938 981 949.5 971.5 c 128,-1,25
 961 962 961 962 968 949 c 128,-1,26
 975 936 975 936 975 920 c 0,27,28
 975 905 975 905 969 890 c 2,29,-1
 659 121 l 2,0,1
EndSplineSet
EndChar

StartChar: w
Encoding: 119 119 90
Width: 1718
Flags: W
LayerCount: 2
Fore
SplineSet
864 839 m 1,0,-1
 585 87 l 1,1,2
 570 37 570 37 538.5 18.5 c 128,-1,3
 507 0 507 0 472 0 c 0,4,5
 439 0 439 0 410 17.5 c 128,-1,6
 381 35 381 35 367 82 c 1,7,-1
 67 886 l 1,8,9
 62 903 62 903 62 914 c 0,10,11
 62 931 62 931 68.5 945.5 c 128,-1,12
 75 960 75 960 86 970 c 128,-1,13
 97 980 97 980 111 985.5 c 128,-1,14
 125 991 125 991 140 991 c 0,15,16
 163 991 163 991 183.5 978 c 128,-1,17
 204 965 204 965 212 936 c 1,18,-1
 483 173 l 1,19,-1
 755 912 l 1,20,21
 770 957 770 957 800.5 974 c 128,-1,22
 831 991 831 991 869 991 c 0,23,24
 908 991 908 991 938 974 c 128,-1,25
 968 957 968 957 983 912 c 1,26,-1
 1244 181 l 1,27,-1
 1508 936 l 2,28,29
 1518 964 1518 964 1537.5 977.5 c 128,-1,30
 1557 991 1557 991 1580 991 c 0,31,32
 1612 991 1612 991 1634.5 970 c 128,-1,33
 1657 949 1657 949 1657 917 c 0,34,35
 1657 904 1657 904 1652 886 c 1,36,-1
 1347 82 l 1,37,38
 1333 37 1333 37 1305 18.5 c 128,-1,39
 1277 0 1277 0 1243 0 c 0,40,41
 1226 0 1226 0 1210 3.5 c 128,-1,42
 1194 7 1194 7 1180.5 17 c 128,-1,43
 1167 27 1167 27 1155.5 44 c 128,-1,44
 1144 61 1144 61 1137 87 c 1,45,-1
 864 839 l 1,0,-1
EndSplineSet
EndChar

StartChar: x
Encoding: 120 120 91
Width: 1033
Flags: W
LayerCount: 2
Fore
SplineSet
415 508 m 1,0,-1
 128 869 l 2,1,2
 119 880 119 880 115.5 891 c 128,-1,3
 112 902 112 902 112 913 c 0,4,5
 112 929 112 929 119 943 c 128,-1,6
 126 957 126 957 138 967.5 c 128,-1,7
 150 978 150 978 165.5 984.5 c 128,-1,8
 181 991 181 991 197 991 c 0,9,10
 214 991 214 991 230.5 983 c 128,-1,11
 247 975 247 975 261 957 c 2,12,-1
 525 609 l 1,13,-1
 797 961 l 2,14,15
 809 977 809 977 823.5 984 c 128,-1,16
 838 991 838 991 853 991 c 0,17,18
 881 991 881 991 903 971 c 128,-1,19
 925 951 925 951 925 924 c 0,20,21
 925 903 925 903 910 884 c 2,22,-1
 621 511 l 1,23,-1
 930 120 l 2,24,25
 946 100 946 100 946 77 c 0,26,27
 946 62 946 62 939 48 c 128,-1,28
 932 34 932 34 920 23.5 c 128,-1,29
 908 13 908 13 892.5 6.5 c 128,-1,30
 877 0 877 0 861 0 c 0,31,32
 844 0 844 0 827.5 8 c 128,-1,33
 811 16 811 16 797 34 c 2,34,-1
 507 413 l 1,35,-1
 217 29 l 2,36,37
 195 0 195 0 163 0 c 0,38,39
 148 0 148 0 134 6 c 128,-1,40
 120 12 120 12 109 21.5 c 128,-1,41
 98 31 98 31 91.5 44 c 128,-1,42
 85 57 85 57 85 71 c 0,43,44
 85 91 85 91 99 108 c 2,45,-1
 415 508 l 1,0,-1
EndSplineSet
EndChar

StartChar: y
Encoding: 121 121 92
Width: 1029
Flags: W
LayerCount: 2
Fore
SplineSet
441 10 m 1,0,-1
 55 887 l 2,1,2
 48 901 48 901 48 916 c 0,3,4
 48 932 48 932 55.5 946 c 128,-1,5
 63 960 63 960 76 970 c 128,-1,6
 89 980 89 980 104.5 985.5 c 128,-1,7
 120 991 120 991 137 991 c 0,8,9
 160 991 160 991 180 979 c 128,-1,10
 200 967 200 967 211 941 c 2,11,-1
 521 188 l 1,12,-1
 830 942 l 2,13,14
 841 968 841 968 859.5 980 c 128,-1,15
 878 992 878 992 899 991 c 1,16,17
 929 991 929 991 954 971 c 128,-1,18
 979 951 979 951 979 918 c 0,19,20
 979 903 979 903 973 888 c 2,21,-1
 470 -334 l 2,22,23
 458 -363 458 -363 438.5 -375.5 c 128,-1,24
 419 -388 419 -388 396 -388 c 0,25,26
 381 -388 381 -388 366 -382.5 c 128,-1,27
 351 -377 351 -377 339.5 -367.5 c 128,-1,28
 328 -358 328 -358 321 -344.5 c 128,-1,29
 314 -331 314 -331 314 -314 c 0,30,31
 314 -300 314 -300 320 -285 c 2,32,-1
 441 10 l 1,0,-1
EndSplineSet
EndChar

StartChar: z
Encoding: 122 122 93
Width: 931
Flags: W
LayerCount: 2
Fore
SplineSet
787 131 m 2,0,1
 820 131 820 131 836.5 110.5 c 128,-1,2
 853 90 853 90 853 65 c 256,3,4
 853 40 853 40 836.5 20 c 128,-1,5
 820 0 820 0 787 0 c 2,6,-1
 164 0 l 2,7,8
 123 0 123 0 100 22.5 c 128,-1,9
 77 45 77 45 77 77 c 0,10,11
 77 92 77 92 82.5 108 c 128,-1,12
 88 124 88 124 100 140 c 2,13,-1
 661 859 l 1,14,-1
 155 859 l 2,15,16
 123 859 123 859 106.5 879.5 c 128,-1,17
 90 900 90 900 90 925 c 256,18,19
 90 950 90 950 106 970.5 c 128,-1,20
 122 991 122 991 155 991 c 2,21,-1
 769 991 l 2,22,23
 814 991 814 991 838 969.5 c 128,-1,24
 862 948 862 948 862 916 c 0,25,26
 862 901 862 901 856 884.5 c 128,-1,27
 850 868 850 868 837 851 c 2,28,-1
 282 131 l 1,29,-1
 787 131 l 2,0,1
EndSplineSet
EndChar

StartChar: braceleft
Encoding: 123 123 94
Width: 611
Flags: W
LayerCount: 2
Fore
SplineSet
537 -81 m 2,0,1
 566 -81 566 -81 580 -101 c 128,-1,2
 594 -121 594 -121 594 -144 c 0,3,4
 594 -168 594 -168 580 -187.5 c 128,-1,5
 566 -207 566 -207 537 -207 c 2,6,-1
 419 -207 l 2,7,8
 384 -207 384 -207 350 -190.5 c 128,-1,9
 316 -174 316 -174 289 -144 c 128,-1,10
 262 -114 262 -114 245 -72 c 128,-1,11
 228 -30 228 -30 228 21 c 2,12,-1
 228 318 l 2,13,14
 228 373 228 373 223 416.5 c 128,-1,15
 218 460 218 460 202 491.5 c 128,-1,16
 186 523 186 523 157.5 542 c 128,-1,17
 129 561 129 561 83 566 c 1,18,19
 49 566 49 566 32.5 587 c 128,-1,20
 16 608 16 608 16 633 c 0,21,22
 16 659 16 659 32.5 680 c 128,-1,23
 49 701 49 701 83 701 c 1,24,25
 129 706 129 706 157.5 725 c 128,-1,26
 186 744 186 744 202 776 c 128,-1,27
 218 808 218 808 223 852.5 c 128,-1,28
 228 897 228 897 228 952 c 2,29,-1
 228 1252 l 2,30,31
 228 1303 228 1303 245 1344.5 c 128,-1,32
 262 1386 262 1386 289 1416 c 128,-1,33
 316 1446 316 1446 350 1462.5 c 128,-1,34
 384 1479 384 1479 419 1479 c 2,35,-1
 537 1479 l 2,36,37
 566 1479 566 1479 580 1459 c 128,-1,38
 594 1439 594 1439 594 1416 c 0,39,40
 594 1392 594 1392 580 1372.5 c 128,-1,41
 566 1353 566 1353 537 1353 c 2,42,-1
 474 1353 l 2,43,44
 431 1353 431 1353 411 1314 c 128,-1,45
 391 1275 391 1275 391 1203 c 2,46,-1
 391 915 l 2,47,48
 391 842 391 842 372.5 793 c 128,-1,49
 354 744 354 744 329.5 711.5 c 128,-1,50
 305 679 305 679 281.5 661.5 c 128,-1,51
 258 644 258 644 248 634 c 1,52,53
 258 629 258 629 281.5 611.5 c 128,-1,54
 305 594 305 594 329.5 560.5 c 128,-1,55
 354 527 354 527 372.5 476.5 c 128,-1,56
 391 426 391 426 391 355 c 2,57,-1
 391 70 l 2,58,59
 391 -2 391 -2 411 -41.5 c 128,-1,60
 431 -81 431 -81 474 -81 c 2,61,-1
 537 -81 l 2,0,1
EndSplineSet
EndChar

StartChar: bar
Encoding: 124 124 95
Width: 455
Flags: W
LayerCount: 2
Fore
SplineSet
158 1409 m 2,0,1
 158 1444 158 1444 180 1461 c 128,-1,2
 202 1478 202 1478 228 1478 c 256,3,4
 254 1478 254 1478 275.5 1461 c 128,-1,5
 297 1444 297 1444 297 1409 c 2,6,-1
 297 -377 l 2,7,8
 297 -412 297 -412 275 -429.5 c 128,-1,9
 253 -447 253 -447 227 -447 c 256,10,11
 201 -447 201 -447 179.5 -429.5 c 128,-1,12
 158 -412 158 -412 158 -377 c 2,13,-1
 158 1409 l 2,0,1
EndSplineSet
EndChar

StartChar: braceright
Encoding: 125 125 96
Width: 611
Flags: W
LayerCount: 2
Fore
SplineSet
135 -81 m 2,0,1
 178 -81 178 -81 198 -41.5 c 128,-1,2
 218 -2 218 -2 218 70 c 2,3,-1
 218 355 l 2,4,5
 218 426 218 426 236.5 476.5 c 128,-1,6
 255 527 255 527 279.5 560.5 c 128,-1,7
 304 594 304 594 327.5 611.5 c 128,-1,8
 351 629 351 629 360 634 c 1,9,10
 351 643 351 643 327.5 660.5 c 128,-1,11
 304 678 304 678 280 710.5 c 128,-1,12
 256 743 256 743 237 792.5 c 128,-1,13
 218 842 218 842 218 915 c 2,14,-1
 218 1203 l 2,15,16
 218 1275 218 1275 198 1314 c 128,-1,17
 178 1353 178 1353 135 1353 c 2,18,-1
 72 1353 l 2,19,20
 43 1353 43 1353 29 1372.5 c 128,-1,21
 15 1392 15 1392 15 1416 c 0,22,23
 15 1439 15 1439 29 1459 c 128,-1,24
 43 1479 43 1479 72 1479 c 2,25,-1
 189 1479 l 2,26,27
 224 1479 224 1479 258.5 1462.5 c 128,-1,28
 293 1446 293 1446 320 1416 c 128,-1,29
 347 1386 347 1386 364 1344.5 c 128,-1,30
 381 1303 381 1303 381 1252 c 2,31,-1
 381 952 l 2,32,33
 381 897 381 897 386 852.5 c 128,-1,34
 391 808 391 808 407 776 c 128,-1,35
 423 744 423 744 451 725 c 128,-1,36
 479 706 479 706 526 701 c 1,37,38
 559 701 559 701 576 680 c 128,-1,39
 593 659 593 659 593 633 c 0,40,41
 593 608 593 608 576 587 c 128,-1,42
 559 566 559 566 526 566 c 1,43,44
 479 561 479 561 451 542 c 128,-1,45
 423 523 423 523 407 491.5 c 128,-1,46
 391 460 391 460 386 416.5 c 128,-1,47
 381 373 381 373 381 318 c 2,48,-1
 381 21 l 2,49,50
 381 -30 381 -30 364 -72 c 128,-1,51
 347 -114 347 -114 320 -144 c 128,-1,52
 293 -174 293 -174 258.5 -190.5 c 128,-1,53
 224 -207 224 -207 189 -207 c 2,54,-1
 72 -207 l 2,55,56
 43 -207 43 -207 29 -187.5 c 128,-1,57
 15 -168 15 -168 15 -144 c 0,58,59
 15 -121 15 -121 29 -101 c 128,-1,60
 43 -81 43 -81 72 -81 c 2,61,-1
 135 -81 l 2,0,1
EndSplineSet
EndChar

StartChar: asciitilde
Encoding: 126 126 97
Width: 1340
Flags: W
LayerCount: 2
Fore
SplineSet
779 1297 m 0,0,1
 798 1297 798 1297 813.5 1305 c 128,-1,2
 829 1313 829 1313 842 1332 c 0,3,4
 853 1349 853 1349 866 1356 c 128,-1,5
 879 1363 879 1363 891 1363 c 0,6,7
 910 1363 910 1363 923.5 1348.5 c 128,-1,8
 937 1334 937 1334 937 1315 c 0,9,10
 937 1310 937 1310 936 1305.5 c 128,-1,11
 935 1301 935 1301 933 1296 c 0,12,13
 912 1243 912 1243 872.5 1211.5 c 128,-1,14
 833 1180 833 1180 767 1180 c 0,15,16
 738 1180 738 1180 706.5 1191 c 128,-1,17
 675 1202 675 1202 644 1214.5 c 128,-1,18
 613 1227 613 1227 583.5 1238 c 128,-1,19
 554 1249 554 1249 527 1249 c 0,20,21
 505 1249 505 1249 486.5 1239.5 c 128,-1,22
 468 1230 468 1230 451 1209 c 0,23,24
 432 1186 432 1186 407 1186 c 0,25,26
 388 1186 388 1186 374 1198.5 c 128,-1,27
 360 1211 360 1211 360 1230 c 0,28,29
 360 1240 360 1240 366 1252 c 0,30,31
 392 1306 392 1306 432 1334.5 c 128,-1,32
 472 1363 472 1363 533 1363 c 0,33,34
 567 1363 567 1363 600.5 1352.5 c 128,-1,35
 634 1342 634 1342 665.5 1330 c 128,-1,36
 697 1318 697 1318 725.5 1307.5 c 128,-1,37
 754 1297 754 1297 779 1297 c 0,0,1
EndSplineSet
EndChar

StartChar: cent
Encoding: 162 162 100
Width: 1031
Flags: W
LayerCount: 2
Fore
SplineSet
83 496 m 0,0,1
 83 593 83 593 112.5 682 c 128,-1,2
 142 771 142 771 196 841.5 c 128,-1,3
 250 912 250 912 326 958 c 128,-1,4
 402 1004 402 1004 495 1016 c 1,5,-1
 495 1227 l 2,6,7
 495 1259 495 1259 515 1275 c 128,-1,8
 535 1291 535 1291 559 1291 c 256,9,10
 583 1291 583 1291 602.5 1275 c 128,-1,11
 622 1259 622 1259 622 1227 c 2,12,-1
 622 1017 l 1,13,14
 659 1014 659 1014 704 1005.5 c 128,-1,15
 749 997 749 997 788.5 982.5 c 128,-1,16
 828 968 828 968 855 948.5 c 128,-1,17
 882 929 882 929 882 905 c 0,18,19
 882 883 882 883 868 863 c 128,-1,20
 854 843 854 843 832 843 c 0,21,22
 826 843 826 843 823 844 c 0,23,24
 759 866 759 866 705 879 c 128,-1,25
 651 892 651 892 597 892 c 0,26,27
 525 892 525 892 462 868 c 128,-1,28
 399 844 399 844 352.5 795 c 128,-1,29
 306 746 306 746 279 672 c 128,-1,30
 252 598 252 598 252 498 c 0,31,32
 252 408 252 408 275 335.5 c 128,-1,33
 298 263 298 263 341.5 212 c 128,-1,34
 385 161 385 161 448 133.5 c 128,-1,35
 511 106 511 106 591 106 c 0,36,37
 646 106 646 106 709.5 118 c 128,-1,38
 773 130 773 130 842 158 c 0,39,40
 846 159 846 159 849 159.5 c 128,-1,41
 852 160 852 160 856 160 c 0,42,43
 879 160 879 160 894 141 c 128,-1,44
 909 122 909 122 909 99 c 0,45,46
 909 70 909 70 879 48.5 c 128,-1,47
 849 27 849 27 805 11 c 128,-1,48
 761 -5 761 -5 711.5 -14 c 128,-1,49
 662 -23 662 -23 622 -26 c 1,50,-1
 622 -227 l 2,51,52
 622 -259 622 -259 602 -275 c 128,-1,53
 582 -291 582 -291 558 -291 c 256,54,55
 534 -291 534 -291 514.5 -275 c 128,-1,56
 495 -259 495 -259 495 -227 c 2,57,-1
 495 -25 l 1,58,59
 393 -15 393 -15 316 30.5 c 128,-1,60
 239 76 239 76 187.5 146.5 c 128,-1,61
 136 217 136 217 109.5 307 c 128,-1,62
 83 397 83 397 83 496 c 0,0,1
EndSplineSet
EndChar

StartChar: sterling
Encoding: 163 163 101
Width: 1361
Flags: W
LayerCount: 2
Fore
SplineSet
193 750 m 2,0,1
 161 750 161 750 144 770.5 c 128,-1,2
 127 791 127 791 127 816 c 256,3,4
 127 841 127 841 143.5 861 c 128,-1,5
 160 881 160 881 193 881 c 2,6,-1
 332 881 l 1,7,-1
 332 1102 l 2,8,9
 332 1199 332 1199 360.5 1265.5 c 128,-1,10
 389 1332 389 1332 439.5 1373 c 128,-1,11
 490 1414 490 1414 560 1432.5 c 128,-1,12
 630 1451 630 1451 713 1451 c 0,13,14
 779 1451 779 1451 853.5 1442.5 c 128,-1,15
 928 1434 928 1434 996 1417 c 1,16,17
 1015 1410 1015 1410 1024.5 1393.5 c 128,-1,18
 1034 1377 1034 1377 1034 1358 c 0,19,20
 1034 1336 1034 1336 1020.5 1318.5 c 128,-1,21
 1007 1301 1007 1301 979 1301 c 0,22,23
 974 1301 974 1301 970 1301.5 c 128,-1,24
 966 1302 966 1302 961 1303 c 0,25,26
 905 1308 905 1308 852 1315 c 128,-1,27
 799 1322 799 1322 734 1322 c 0,28,29
 654 1322 654 1322 606.5 1306.5 c 128,-1,30
 559 1291 559 1291 534 1255 c 128,-1,31
 509 1219 509 1219 501.5 1160.5 c 128,-1,32
 494 1102 494 1102 494 1016 c 2,33,-1
 494 881 l 1,34,-1
 870 881 l 2,35,36
 903 881 903 881 919.5 861 c 128,-1,37
 936 841 936 841 936 816 c 256,38,39
 936 791 936 791 919.5 770.5 c 128,-1,40
 903 750 903 750 870 750 c 2,41,-1
 494 750 l 1,42,-1
 494 145 l 1,43,-1
 1132 145 l 2,44,45
 1169 145 1169 145 1187 122 c 128,-1,46
 1205 99 1205 99 1205 72 c 0,47,48
 1205 44 1205 44 1187 21.5 c 128,-1,49
 1169 -1 1169 -1 1132 -1 c 2,50,-1
 227 -1 l 2,51,52
 190 -1 190 -1 171.5 22 c 128,-1,53
 153 45 153 45 153 73 c 0,54,55
 153 99 153 99 171 121.5 c 128,-1,56
 189 144 189 144 224 144 c 2,57,-1
 332 144 l 1,58,-1
 332 750 l 1,59,-1
 193 750 l 2,0,1
EndSplineSet
EndChar

StartChar: currency
Encoding: 164 164 102
Width: 1162
Flags: W
LayerCount: 2
Fore
SplineSet
586 183 m 0,0,1
 505 183 505 183 439 204 c 128,-1,2
 373 225 373 225 322 262 c 1,3,-1
 235 175 l 2,4,5
 219 159 219 159 199 159 c 256,6,7
 179 159 179 159 163.5 174.5 c 128,-1,8
 148 190 148 190 148 211 c 0,9,10
 148 231 148 231 164 247 c 2,11,-1
 249 332 l 1,12,13
 203 389 203 389 180.5 458.5 c 128,-1,14
 158 528 158 528 158 601 c 0,15,16
 158 673 158 673 180 741 c 128,-1,17
 202 809 202 809 247 866 c 1,18,-1
 164 950 l 2,19,20
 148 966 148 966 148 986 c 256,21,22
 148 1006 148 1006 163.5 1021.5 c 128,-1,23
 179 1037 179 1037 199 1037 c 0,24,25
 218 1037 218 1037 235 1021 c 2,26,-1
 318 937 l 1,27,28
 369 975 369 975 435.5 997.5 c 128,-1,29
 502 1020 502 1020 586 1020 c 0,30,31
 669 1020 669 1020 736 997.5 c 128,-1,32
 803 975 803 975 854 937 c 1,33,-1
 938 1021 l 2,34,35
 954 1037 954 1037 974 1037 c 256,36,37
 994 1037 994 1037 1009.5 1021.5 c 128,-1,38
 1025 1006 1025 1006 1025 985 c 0,39,40
 1025 977 1025 977 1021.5 967.5 c 128,-1,41
 1018 958 1018 958 1010 950 c 2,42,-1
 925 866 l 1,43,44
 970 809 970 809 992 740.5 c 128,-1,45
 1014 672 1014 672 1014 601 c 0,46,47
 1014 528 1014 528 991 458.5 c 128,-1,48
 968 389 968 389 923 332 c 1,49,-1
 1010 247 l 2,50,51
 1018 239 1018 239 1021.5 229.5 c 128,-1,52
 1025 220 1025 220 1025 211 c 0,53,54
 1025 191 1025 191 1009.5 175 c 128,-1,55
 994 159 994 159 974 159 c 1,56,57
 956 158 956 158 939 175 c 2,58,-1
 850 263 l 1,59,60
 799 225 799 225 733.5 204 c 128,-1,61
 668 183 668 183 586 183 c 0,0,1
586 918 m 256,62,63
 510 918 510 918 453 890.5 c 128,-1,64
 396 863 396 863 357.5 818.5 c 128,-1,65
 319 774 319 774 300 717 c 128,-1,66
 281 660 281 660 281 601 c 256,67,68
 281 542 281 542 300 485 c 128,-1,69
 319 428 319 428 357.5 383.5 c 128,-1,70
 396 339 396 339 453 312 c 128,-1,71
 510 285 510 285 586 285 c 256,72,73
 662 285 662 285 719 312 c 128,-1,74
 776 339 776 339 814.5 383.5 c 128,-1,75
 853 428 853 428 872 485 c 128,-1,76
 891 542 891 542 891 601 c 256,77,78
 891 660 891 660 872 717 c 128,-1,79
 853 774 853 774 814.5 818.5 c 128,-1,80
 776 863 776 863 719 890.5 c 128,-1,81
 662 918 662 918 586 918 c 256,62,63
EndSplineSet
EndChar

StartChar: yen
Encoding: 165 165 103
Width: 1177
Flags: W
LayerCount: 2
Fore
SplineSet
685 626 m 1,0,-1
 1016 626 l 2,1,2
 1047 626 1047 626 1062 607 c 128,-1,3
 1077 588 1077 588 1077 565 c 256,4,5
 1077 542 1077 542 1062 523.5 c 128,-1,6
 1047 505 1047 505 1016 505 c 2,7,-1
 680 505 l 1,8,-1
 680 390 l 1,9,-1
 1016 390 l 2,10,11
 1047 390 1047 390 1062 371 c 128,-1,12
 1077 352 1077 352 1077 329 c 256,13,14
 1077 306 1077 306 1062 287.5 c 128,-1,15
 1047 269 1047 269 1016 269 c 2,16,-1
 680 269 l 1,17,-1
 680 84 l 2,18,19
 680 63 680 63 672.5 48 c 128,-1,20
 665 33 665 33 652.5 22.5 c 128,-1,21
 640 12 640 12 624 7 c 128,-1,22
 608 2 608 2 591 2 c 256,23,24
 574 2 574 2 558.5 7 c 128,-1,25
 543 12 543 12 530 22.5 c 128,-1,26
 517 33 517 33 509.5 48 c 128,-1,27
 502 63 502 63 502 84 c 2,28,-1
 502 269 l 1,29,-1
 163 269 l 2,30,31
 133 269 133 269 117.5 288 c 128,-1,32
 102 307 102 307 102 330 c 256,33,34
 102 353 102 353 117 371.5 c 128,-1,35
 132 390 132 390 163 390 c 2,36,-1
 502 390 l 1,37,-1
 502 505 l 1,38,-1
 163 505 l 2,39,40
 133 505 133 505 118 524.5 c 128,-1,41
 103 544 103 544 103 567 c 0,42,43
 103 589 103 589 117.5 607.5 c 128,-1,44
 132 626 132 626 163 626 c 2,45,-1
 494 626 l 1,46,-1
 41 1306 l 2,47,48
 34 1316 34 1316 31.5 1325.5 c 128,-1,49
 29 1335 29 1335 29 1344 c 0,50,51
 29 1361 29 1361 37 1375.5 c 128,-1,52
 45 1390 45 1390 58.5 1401 c 128,-1,53
 72 1412 72 1412 89.5 1418 c 128,-1,54
 107 1424 107 1424 125 1424 c 0,55,56
 146 1424 146 1424 166 1414 c 128,-1,57
 186 1404 186 1404 200 1381 c 2,58,-1
 603 755 l 1,59,-1
 1008 1382 l 1,60,61
 1021 1405 1021 1405 1040.5 1414.5 c 128,-1,62
 1060 1424 1060 1424 1080 1424 c 0,63,64
 1111 1424 1111 1424 1135 1405.5 c 128,-1,65
 1159 1387 1159 1387 1159 1358 c 0,66,67
 1159 1349 1159 1349 1156.5 1339 c 128,-1,68
 1154 1329 1154 1329 1147 1319 c 2,69,-1
 685 626 l 1,0,-1
EndSplineSet
EndChar

StartChar: brokenbar
Encoding: 166 166 104
Width: 455
Flags: W
LayerCount: 2
Fore
SplineSet
158 567 m 2,0,1
 158 602 158 602 180 619.5 c 128,-1,2
 202 637 202 637 228 637 c 256,3,4
 254 637 254 637 275.5 619.5 c 128,-1,5
 297 602 297 602 297 567 c 2,6,-1
 297 -47 l 2,7,8
 297 -82 297 -82 275 -99.5 c 128,-1,9
 253 -117 253 -117 227 -117 c 256,10,11
 201 -117 201 -117 179.5 -99.5 c 128,-1,12
 158 -82 158 -82 158 -47 c 2,13,-1
 158 567 l 2,0,1
158 1291 m 2,14,15
 158 1326 158 1326 180 1343.5 c 128,-1,16
 202 1361 202 1361 228 1361 c 256,17,18
 254 1361 254 1361 275.5 1343.5 c 128,-1,19
 297 1326 297 1326 297 1291 c 2,20,-1
 297 705 l 2,21,22
 297 670 297 670 275 652.5 c 128,-1,23
 253 635 253 635 227 635 c 256,24,25
 201 635 201 635 179.5 652.5 c 128,-1,26
 158 670 158 670 158 705 c 2,27,-1
 158 1291 l 2,14,15
EndSplineSet
EndChar

StartChar: section
Encoding: 167 167 105
Width: 1169
Flags: W
LayerCount: 2
Fore
SplineSet
547 938 m 1,0,1
 517 919 517 919 487.5 901.5 c 128,-1,2
 458 884 458 884 434.5 863 c 128,-1,3
 411 842 411 842 396.5 815 c 128,-1,4
 382 788 382 788 382 751 c 0,5,6
 382 716 382 716 403.5 689.5 c 128,-1,7
 425 663 425 663 456.5 643.5 c 128,-1,8
 488 624 488 624 523.5 609.5 c 128,-1,9
 559 595 559 595 588 583 c 1,10,11
 618 600 618 600 651 617 c 128,-1,12
 684 634 684 634 711.5 655.5 c 128,-1,13
 739 677 739 677 757 704 c 128,-1,14
 775 731 775 731 775 768 c 0,15,16
 775 806 775 806 751 831.5 c 128,-1,17
 727 857 727 857 692 875 c 128,-1,18
 657 893 657 893 617.5 907.5 c 128,-1,19
 578 922 578 922 547 938 c 1,0,1
858 1471 m 0,20,21
 881 1464 881 1464 891.5 1448.5 c 128,-1,22
 902 1433 902 1433 902 1415 c 0,23,24
 902 1390 902 1390 885.5 1369 c 128,-1,25
 869 1348 869 1348 843 1348 c 0,26,27
 839 1348 839 1348 835 1348 c 128,-1,28
 831 1348 831 1348 827 1350 c 0,29,30
 788 1361 788 1361 740 1371.5 c 128,-1,31
 692 1382 692 1382 653 1382 c 0,32,33
 616 1382 616 1382 576.5 1375.5 c 128,-1,34
 537 1369 537 1369 504 1352.5 c 128,-1,35
 471 1336 471 1336 449.5 1307 c 128,-1,36
 428 1278 428 1278 428 1234 c 0,37,38
 428 1196 428 1196 450 1168 c 128,-1,39
 472 1140 472 1140 507.5 1117.5 c 128,-1,40
 543 1095 543 1095 588.5 1076.5 c 128,-1,41
 634 1058 634 1058 681.5 1039 c 128,-1,42
 729 1020 729 1020 774.5 998 c 128,-1,43
 820 976 820 976 855.5 947.5 c 128,-1,44
 891 919 891 919 913 881.5 c 128,-1,45
 935 844 935 844 935 794 c 0,46,47
 935 748 935 748 916 709 c 128,-1,48
 897 670 897 670 866 638 c 128,-1,49
 835 606 835 606 796.5 581 c 128,-1,50
 758 556 758 556 718 539 c 1,51,52
 763 521 763 521 803 498 c 128,-1,53
 843 475 843 475 873 444.5 c 128,-1,54
 903 414 903 414 920 374 c 128,-1,55
 937 334 937 334 937 282 c 0,56,57
 937 201 937 201 903.5 142 c 128,-1,58
 870 83 870 83 814.5 44 c 128,-1,59
 759 5 759 5 686.5 -13.5 c 128,-1,60
 614 -32 614 -32 536 -32 c 0,61,62
 464 -32 464 -32 391 -21 c 128,-1,63
 318 -10 318 -10 252 13 c 0,64,65
 229 21 229 21 218.5 37 c 128,-1,66
 208 53 208 53 208 70 c 0,67,68
 208 94 208 94 224.5 114.5 c 128,-1,69
 241 135 241 135 269 135 c 0,70,71
 279 135 279 135 294 130 c 0,72,73
 336 114 336 114 388 105.5 c 128,-1,74
 440 97 440 97 510 97 c 0,75,76
 554 97 554 97 599 107 c 128,-1,77
 644 117 644 117 680 139 c 128,-1,78
 716 161 716 161 738.5 196.5 c 128,-1,79
 761 232 761 232 761 284 c 0,80,81
 761 324 761 324 738 351 c 128,-1,82
 715 378 715 378 677 398.5 c 128,-1,83
 639 419 639 419 590.5 435 c 128,-1,84
 542 451 542 451 491 468.5 c 128,-1,85
 440 486 440 486 391.5 507 c 128,-1,86
 343 528 343 528 305 558.5 c 128,-1,87
 267 589 267 589 244 631 c 128,-1,88
 221 673 221 673 221 732 c 0,89,90
 221 777 221 777 240.5 815.5 c 128,-1,91
 260 854 260 854 291.5 886 c 128,-1,92
 323 918 323 918 362.5 942.5 c 128,-1,93
 402 967 402 967 442 983 c 1,94,95
 403 1007 403 1007 368 1030 c 128,-1,96
 333 1053 333 1053 307 1081 c 128,-1,97
 281 1109 281 1109 266 1144.5 c 128,-1,98
 251 1180 251 1180 251 1229 c 0,99,100
 251 1306 251 1306 282 1359.5 c 128,-1,101
 313 1413 313 1413 365 1446.5 c 128,-1,102
 417 1480 417 1480 485 1495 c 128,-1,103
 553 1510 553 1510 627 1510 c 0,104,105
 686 1510 686 1510 744.5 1498.5 c 128,-1,106
 803 1487 803 1487 858 1471 c 0,20,21
EndSplineSet
EndChar

StartChar: dieresis
Encoding: 168 168 106
Width: 569
Flags: W
LayerCount: 2
Fore
SplineSet
96 1208 m 256,0,1
 71 1208 71 1208 52 1216 c 128,-1,2
 33 1224 33 1224 20 1237.5 c 128,-1,3
 7 1251 7 1251 0 1268 c 128,-1,4
 -7 1285 -7 1285 -7 1303 c 256,5,6
 -7 1321 -7 1321 0 1337.5 c 128,-1,7
 7 1354 7 1354 20 1367 c 128,-1,8
 33 1380 33 1380 52 1388 c 128,-1,9
 71 1396 71 1396 96 1396 c 256,10,11
 121 1396 121 1396 140.5 1388 c 128,-1,12
 160 1380 160 1380 173 1367 c 128,-1,13
 186 1354 186 1354 193 1337.5 c 128,-1,14
 200 1321 200 1321 200 1303 c 256,15,16
 200 1285 200 1285 193 1268 c 128,-1,17
 186 1251 186 1251 173 1237.5 c 128,-1,18
 160 1224 160 1224 140.5 1216 c 128,-1,19
 121 1208 121 1208 96 1208 c 256,0,1
474 1208 m 256,20,21
 449 1208 449 1208 429.5 1216 c 128,-1,22
 410 1224 410 1224 397 1237.5 c 128,-1,23
 384 1251 384 1251 377 1268 c 128,-1,24
 370 1285 370 1285 370 1303 c 256,25,26
 370 1321 370 1321 377 1337.5 c 128,-1,27
 384 1354 384 1354 397 1367 c 128,-1,28
 410 1380 410 1380 429.5 1388 c 128,-1,29
 449 1396 449 1396 474 1396 c 256,30,31
 499 1396 499 1396 518 1388 c 128,-1,32
 537 1380 537 1380 550 1367 c 128,-1,33
 563 1354 563 1354 570 1337.5 c 128,-1,34
 577 1321 577 1321 577 1303 c 256,35,36
 577 1285 577 1285 570 1268 c 128,-1,37
 563 1251 563 1251 550 1237.5 c 128,-1,38
 537 1224 537 1224 518 1216 c 128,-1,39
 499 1208 499 1208 474 1208 c 256,20,21
EndSplineSet
EndChar

StartChar: copyright
Encoding: 169 169 107
Width: 1656
Flags: W
LayerCount: 2
Fore
SplineSet
837 127 m 0,0,1
 741 127 741 127 652.5 150.5 c 128,-1,2
 564 174 564 174 487 217.5 c 128,-1,3
 410 261 410 261 347 321.5 c 128,-1,4
 284 382 284 382 238.5 455.5 c 128,-1,5
 193 529 193 529 168.5 614 c 128,-1,6
 144 699 144 699 144 790 c 256,7,8
 144 881 144 881 168.5 965.5 c 128,-1,9
 193 1050 193 1050 238.5 1124 c 128,-1,10
 284 1198 284 1198 347 1258.5 c 128,-1,11
 410 1319 410 1319 487 1362 c 128,-1,12
 564 1405 564 1405 652.5 1429 c 128,-1,13
 741 1453 741 1453 837 1453 c 0,14,15
 932 1453 932 1453 1020 1429 c 128,-1,16
 1108 1405 1108 1405 1184.5 1362 c 128,-1,17
 1261 1319 1261 1319 1324 1258.5 c 128,-1,18
 1387 1198 1387 1198 1432 1124 c 128,-1,19
 1477 1050 1477 1050 1501.5 965.5 c 128,-1,20
 1526 881 1526 881 1526 790 c 0,21,22
 1526 698 1526 698 1501.5 613.5 c 128,-1,23
 1477 529 1477 529 1432 455.5 c 128,-1,24
 1387 382 1387 382 1324 321.5 c 128,-1,25
 1261 261 1261 261 1184.5 217.5 c 128,-1,26
 1108 174 1108 174 1020 150.5 c 128,-1,27
 932 127 932 127 837 127 c 0,0,1
263 790 m 0,28,29
 263 670 263 670 306 569 c 128,-1,30
 349 468 349 468 425.5 394.5 c 128,-1,31
 502 321 502 321 607 280 c 128,-1,32
 712 239 712 239 837 239 c 0,33,34
 961 239 961 239 1065 280 c 128,-1,35
 1169 321 1169 321 1245 394.5 c 128,-1,36
 1321 468 1321 468 1363.5 569 c 128,-1,37
 1406 670 1406 670 1406 790 c 0,38,39
 1406 909 1406 909 1363.5 1010 c 128,-1,40
 1321 1111 1321 1111 1245 1184.5 c 128,-1,41
 1169 1258 1169 1258 1065 1299 c 128,-1,42
 961 1340 961 1340 837 1340 c 0,43,44
 712 1340 712 1340 607 1299 c 128,-1,45
 502 1258 502 1258 425.5 1184.5 c 128,-1,46
 349 1111 349 1111 306 1010 c 128,-1,47
 263 909 263 909 263 790 c 0,28,29
1043 547 m 1,48,49
 1050 552 1050 552 1063 552 c 0,50,51
 1080 552 1080 552 1092 539 c 128,-1,52
 1104 526 1104 526 1104 508 c 256,53,54
 1104 490 1104 490 1090.5 475 c 128,-1,55
 1077 460 1077 460 1055.5 448 c 128,-1,56
 1034 436 1034 436 1006 426.5 c 128,-1,57
 978 417 978 417 949.5 411 c 128,-1,58
 921 405 921 405 894.5 402 c 128,-1,59
 868 399 868 399 848 399 c 0,60,61
 773 399 773 399 703 424.5 c 128,-1,62
 633 450 633 450 579 500.5 c 128,-1,63
 525 551 525 551 492.5 625 c 128,-1,64
 460 699 460 699 460 796 c 256,65,66
 460 893 460 893 491.5 966 c 128,-1,67
 523 1039 523 1039 576 1088 c 128,-1,68
 629 1137 629 1137 698.5 1161.5 c 128,-1,69
 768 1186 768 1186 845 1186 c 0,70,71
 873 1186 873 1186 918.5 1179.5 c 128,-1,72
 964 1173 964 1173 1008 1160 c 128,-1,73
 1052 1147 1052 1147 1084 1127.5 c 128,-1,74
 1116 1108 1116 1108 1116 1083 c 0,75,76
 1116 1064 1116 1064 1103.5 1048 c 128,-1,77
 1091 1032 1091 1032 1071 1032 c 0,78,79
 1064 1032 1064 1032 1052 1037 c 1,80,81
 1006 1062 1006 1062 955.5 1074.5 c 128,-1,82
 905 1087 905 1087 857 1087 c 0,83,84
 801 1087 801 1087 751 1070 c 128,-1,85
 701 1053 701 1053 663.5 1017.5 c 128,-1,86
 626 982 626 982 604 927.5 c 128,-1,87
 582 873 582 873 582 798 c 0,88,89
 582 725 582 725 605.5 669 c 128,-1,90
 629 613 629 613 668 574.5 c 128,-1,91
 707 536 707 536 758.5 516.5 c 128,-1,92
 810 497 810 497 867 497 c 0,93,94
 912 497 912 497 955.5 510 c 128,-1,95
 999 523 999 523 1043 547 c 1,48,49
EndSplineSet
EndChar

StartChar: ordfeminine
Encoding: 170 170 108
Width: 1043
Flags: W
LayerCount: 2
Fore
SplineSet
656 1257 m 2,0,1
 656 1301 656 1301 643 1330.5 c 128,-1,2
 630 1360 630 1360 607 1378 c 128,-1,3
 584 1396 584 1396 551.5 1404 c 128,-1,4
 519 1412 519 1412 479 1412 c 256,5,6
 439 1412 439 1412 408 1407 c 128,-1,7
 377 1402 377 1402 350.5 1393 c 128,-1,8
 324 1384 324 1384 301.5 1371.5 c 128,-1,9
 279 1359 279 1359 256 1345 c 0,10,11
 249 1340 249 1340 242 1338.5 c 128,-1,12
 235 1337 235 1337 229 1337 c 0,13,14
 210 1337 210 1337 197 1350 c 128,-1,15
 184 1363 184 1363 184 1380 c 1,16,17
 183 1396 183 1396 200 1413 c 0,18,19
 248 1460 248 1460 319.5 1485 c 128,-1,20
 391 1510 391 1510 482 1510 c 0,21,22
 549 1510 549 1510 603 1495 c 128,-1,23
 657 1480 657 1480 694.5 1448 c 128,-1,24
 732 1416 732 1416 752.5 1367 c 128,-1,25
 773 1318 773 1318 773 1249 c 2,26,-1
 772 776 l 2,27,28
 772 750 772 750 754 736.5 c 128,-1,29
 736 723 736 723 714 723 c 0,30,31
 693 723 693 723 675 736 c 128,-1,32
 657 749 657 749 657 775 c 2,33,-1
 657 847 l 1,34,35
 641 812 641 812 614 785 c 128,-1,36
 587 758 587 758 553.5 739 c 128,-1,37
 520 720 520 720 481.5 710.5 c 128,-1,38
 443 701 443 701 403 701 c 0,39,40
 347 701 347 701 299 717 c 128,-1,41
 251 733 251 733 216 763 c 128,-1,42
 181 793 181 793 160.5 836.5 c 128,-1,43
 140 880 140 880 140 936 c 0,44,45
 140 1007 140 1007 171 1056.5 c 128,-1,46
 202 1106 202 1106 258.5 1136.5 c 128,-1,47
 315 1167 315 1167 393.5 1181 c 128,-1,48
 472 1195 472 1195 568 1195 c 0,49,50
 588 1195 588 1195 611 1194 c 128,-1,51
 634 1193 634 1193 656 1191 c 1,52,-1
 656 1257 l 2,0,1
656 1102 m 1,53,54
 621 1102 621 1102 578 1102 c 128,-1,55
 535 1102 535 1102 491.5 1098.5 c 128,-1,56
 448 1095 448 1095 406.5 1086.5 c 128,-1,57
 365 1078 365 1078 333.5 1059.5 c 128,-1,58
 302 1041 302 1041 282.5 1012 c 128,-1,59
 263 983 263 983 263 939 c 0,60,61
 263 902 263 902 276 875 c 128,-1,62
 289 848 289 848 311.5 830 c 128,-1,63
 334 812 334 812 364.5 803 c 128,-1,64
 395 794 395 794 429 793 c 1,65,66
 475 794 475 794 515 809 c 128,-1,67
 555 824 555 824 585.5 853.5 c 128,-1,68
 616 883 616 883 634.5 927 c 128,-1,69
 653 971 653 971 656 1030 c 1,70,-1
 656 1102 l 1,53,54
EndSplineSet
EndChar

StartChar: guillemotleft
Encoding: 171 171 109
Width: 1158
Flags: W
LayerCount: 2
Fore
SplineSet
404 925 m 2,0,1
 418 950 418 950 436 961 c 128,-1,2
 454 972 454 972 472 972 c 0,3,4
 495 972 495 972 511.5 956.5 c 128,-1,5
 528 941 528 941 528 918 c 0,6,7
 528 913 528 913 527 906.5 c 128,-1,8
 526 900 526 900 523 894 c 2,9,-1
 358 544 l 1,10,-1
 523 193 l 2,11,12
 528 182 528 182 528 168 c 0,13,14
 528 145 528 145 511.5 130 c 128,-1,15
 495 115 495 115 472 115 c 0,16,17
 454 115 454 115 436 125.5 c 128,-1,18
 418 136 418 136 404 162 c 2,19,-1
 192 544 l 1,20,-1
 404 925 l 2,0,1
790 925 m 2,21,22
 804 951 804 951 822.5 961 c 128,-1,23
 841 971 841 971 858 972 c 1,24,25
 881 972 881 972 898 956.5 c 128,-1,26
 915 941 915 941 915 918 c 0,27,28
 915 904 915 904 910 894 c 2,29,-1
 745 544 l 1,30,-1
 910 193 l 2,31,32
 915 182 915 182 915 169 c 0,33,34
 915 146 915 146 898 130.5 c 128,-1,35
 881 115 881 115 858 115 c 0,36,37
 841 115 841 115 822.5 125.5 c 128,-1,38
 804 136 804 136 790 162 c 2,39,-1
 578 544 l 1,40,-1
 790 925 l 2,21,22
EndSplineSet
EndChar

StartChar: logicalnot
Encoding: 172 172 110
Width: 1340
Flags: W
LayerCount: 2
Fore
SplineSet
1183 296 m 2,0,1
 1183 262 1183 262 1161 245.5 c 128,-1,2
 1139 229 1139 229 1113 229 c 256,3,4
 1087 229 1087 229 1065.5 245.5 c 128,-1,5
 1044 262 1044 262 1044 296 c 2,6,-1
 1044 649 l 1,7,-1
 221 649 l 2,8,9
 189 649 189 649 174 670.5 c 128,-1,10
 159 692 159 692 159 718 c 256,11,12
 159 744 159 744 174 765.5 c 128,-1,13
 189 787 189 787 221 787 c 2,14,-1
 1112 787 l 2,15,16
 1125 787 1125 787 1138 781 c 128,-1,17
 1151 775 1151 775 1161 765 c 128,-1,18
 1171 755 1171 755 1177 742.5 c 128,-1,19
 1183 730 1183 730 1183 717 c 2,20,-1
 1183 296 l 2,0,1
EndSplineSet
EndChar

StartChar: registered
Encoding: 174 174 112
Width: 1657
Flags: W
LayerCount: 2
Fore
SplineSet
579 1066 m 2,0,1
 579 1079 579 1079 583 1092 c 128,-1,2
 587 1105 587 1105 596 1116 c 128,-1,3
 605 1127 605 1127 619 1134 c 128,-1,4
 633 1141 633 1141 653 1141 c 2,5,-1
 909 1141 l 2,6,7
 985 1141 985 1141 1037.5 1128 c 128,-1,8
 1090 1115 1090 1115 1122.5 1089.5 c 128,-1,9
 1155 1064 1155 1064 1169 1026 c 128,-1,10
 1183 988 1183 988 1183 937 c 0,11,12
 1183 881 1183 881 1165.5 844.5 c 128,-1,13
 1148 808 1148 808 1117 784.5 c 128,-1,14
 1086 761 1086 761 1044 749.5 c 128,-1,15
 1002 738 1002 738 953 733 c 1,16,-1
 1138 469 l 2,17,18
 1146 457 1146 457 1146 443 c 0,19,20
 1146 421 1146 421 1127.5 406 c 128,-1,21
 1109 391 1109 391 1087 391 c 0,22,23
 1076 391 1076 391 1065.5 396.5 c 128,-1,24
 1055 402 1055 402 1047 414 c 2,25,-1
 841 732 l 1,26,-1
 693 732 l 1,27,-1
 693 444 l 2,28,29
 693 418 693 418 675 404.5 c 128,-1,30
 657 391 657 391 635 391 c 0,31,32
 614 391 614 391 596.5 404 c 128,-1,33
 579 417 579 417 579 444 c 2,34,-1
 579 1066 l 2,0,1
693 1044 m 1,35,-1
 693 827 l 1,36,-1
 887 827 l 2,37,38
 920 827 920 827 951.5 829 c 128,-1,39
 983 831 983 831 1007.5 842 c 128,-1,40
 1032 853 1032 853 1047 876 c 128,-1,41
 1062 899 1062 899 1062 941 c 0,42,43
 1062 974 1062 974 1048 994.5 c 128,-1,44
 1034 1015 1034 1015 1010 1026 c 128,-1,45
 986 1037 986 1037 955 1040.5 c 128,-1,46
 924 1044 924 1044 890 1044 c 2,47,-1
 693 1044 l 1,35,-1
834 93 m 0,48,49
 737 93 737 93 647 117 c 128,-1,50
 557 141 557 141 479 185 c 128,-1,51
 401 229 401 229 336.5 290.5 c 128,-1,52
 272 352 272 352 226 426 c 128,-1,53
 180 500 180 500 155 585.5 c 128,-1,54
 130 671 130 671 130 762 c 0,55,56
 130 854 130 854 155 940 c 128,-1,57
 180 1026 180 1026 226 1101 c 128,-1,58
 272 1176 272 1176 336.5 1237.5 c 128,-1,59
 401 1299 401 1299 479 1343 c 128,-1,60
 557 1387 557 1387 647 1411 c 128,-1,61
 737 1435 737 1435 834 1435 c 0,62,63
 930 1435 930 1435 1019.5 1411 c 128,-1,64
 1109 1387 1109 1387 1187 1343 c 128,-1,65
 1265 1299 1265 1299 1329 1237.5 c 128,-1,66
 1393 1176 1393 1176 1439 1101 c 128,-1,67
 1485 1026 1485 1026 1510 940 c 128,-1,68
 1535 854 1535 854 1535 762 c 256,69,70
 1535 670 1535 670 1510 585 c 128,-1,71
 1485 500 1485 500 1439 426 c 128,-1,72
 1393 352 1393 352 1329 290.5 c 128,-1,73
 1265 229 1265 229 1187 185 c 128,-1,74
 1109 141 1109 141 1019.5 117 c 128,-1,75
 930 93 930 93 834 93 c 0,48,49
254 762 m 256,76,77
 254 641 254 641 297.5 538.5 c 128,-1,78
 341 436 341 436 418 362 c 128,-1,79
 495 288 495 288 601.5 246 c 128,-1,80
 708 204 708 204 834 204 c 0,81,82
 959 204 959 204 1065 246 c 128,-1,83
 1171 288 1171 288 1248 362 c 128,-1,84
 1325 436 1325 436 1368 538.5 c 128,-1,85
 1411 641 1411 641 1411 762 c 256,86,87
 1411 883 1411 883 1368 985 c 128,-1,88
 1325 1087 1325 1087 1248 1161 c 128,-1,89
 1171 1235 1171 1235 1065 1277 c 128,-1,90
 959 1319 959 1319 834 1319 c 0,91,92
 708 1319 708 1319 601.5 1277 c 128,-1,93
 495 1235 495 1235 418 1161 c 128,-1,94
 341 1087 341 1087 297.5 985 c 128,-1,95
 254 883 254 883 254 762 c 256,76,77
EndSplineSet
EndChar

StartChar: macron
Encoding: 175 175 113
Width: 569
Flags: W
LayerCount: 2
Fore
SplineSet
83 1312 m 2,0,1
 49 1312 49 1312 32.5 1332.5 c 128,-1,2
 16 1353 16 1353 16 1379 c 0,3,4
 16 1404 16 1404 32.5 1425 c 128,-1,5
 49 1446 49 1446 83 1446 c 2,6,-1
 492 1446 l 2,7,8
 524 1446 524 1446 540 1425 c 128,-1,9
 556 1404 556 1404 556 1379 c 0,10,11
 556 1353 556 1353 540 1332.5 c 128,-1,12
 524 1312 524 1312 492 1312 c 2,13,-1
 83 1312 l 2,0,1
EndSplineSet
EndChar

StartChar: degree
Encoding: 176 176 114
Width: 819
Flags: W
LayerCount: 2
Fore
SplineSet
716 1108 m 256,0,1
 716 1047 716 1047 691.5 993.5 c 128,-1,2
 667 940 667 940 625.5 900 c 128,-1,3
 584 860 584 860 528.5 837 c 128,-1,4
 473 814 473 814 410 814 c 256,5,6
 347 814 347 814 291 837 c 128,-1,7
 235 860 235 860 193.5 900 c 128,-1,8
 152 940 152 940 128 993.5 c 128,-1,9
 104 1047 104 1047 104 1108 c 256,10,11
 104 1169 104 1169 128 1222.5 c 128,-1,12
 152 1276 152 1276 193 1316 c 128,-1,13
 234 1356 234 1356 290 1379.5 c 128,-1,14
 346 1403 346 1403 410 1403 c 0,15,16
 473 1403 473 1403 528.5 1379.5 c 128,-1,17
 584 1356 584 1356 625.5 1316 c 128,-1,18
 667 1276 667 1276 691.5 1222.5 c 128,-1,19
 716 1169 716 1169 716 1108 c 256,0,1
205 1108 m 0,20,21
 205 1065 205 1065 220.5 1029 c 128,-1,22
 236 993 236 993 263 966.5 c 128,-1,23
 290 940 290 940 327.5 925.5 c 128,-1,24
 365 911 365 911 410 911 c 0,25,26
 453 911 453 911 490.5 925.5 c 128,-1,27
 528 940 528 940 556 966.5 c 128,-1,28
 584 993 584 993 599.5 1029 c 128,-1,29
 615 1065 615 1065 615 1108 c 0,30,31
 615 1150 615 1150 599 1186 c 128,-1,32
 583 1222 583 1222 555.5 1249 c 128,-1,33
 528 1276 528 1276 490 1291 c 128,-1,34
 452 1306 452 1306 408 1306 c 256,35,36
 364 1306 364 1306 326.5 1291 c 128,-1,37
 289 1276 289 1276 262 1249 c 128,-1,38
 235 1222 235 1222 220 1186 c 128,-1,39
 205 1150 205 1150 205 1108 c 0,20,21
EndSplineSet
EndChar

StartChar: plusminus
Encoding: 177 177 115
Width: 1340
Flags: W
LayerCount: 2
Fore
SplineSet
739 277 m 2,0,1
 739 245 739 245 716.5 228.5 c 128,-1,2
 694 212 694 212 668 212 c 256,3,4
 642 212 642 212 621 228 c 128,-1,5
 600 244 600 244 600 277 c 2,6,-1
 600 532 l 1,7,-1
 227 532 l 2,8,9
 194 532 194 532 177 553 c 128,-1,10
 160 574 160 574 160 600 c 0,11,12
 160 625 160 625 176.5 645.5 c 128,-1,13
 193 666 193 666 227 666 c 2,14,-1
 600 666 l 1,15,-1
 600 924 l 2,16,17
 600 956 600 956 622 973 c 128,-1,18
 644 990 644 990 670 990 c 256,19,20
 696 990 696 990 717.5 973.5 c 128,-1,21
 739 957 739 957 739 924 c 2,22,-1
 739 666 l 1,23,-1
 1113 666 l 2,24,25
 1147 666 1147 666 1164 645.5 c 128,-1,26
 1181 625 1181 625 1181 599 c 0,27,28
 1181 574 1181 574 1164 553 c 128,-1,29
 1147 532 1147 532 1113 532 c 2,30,-1
 739 532 l 1,31,-1
 739 277 l 2,0,1
1113 134 m 2,32,33
 1148 134 1148 134 1165 113.5 c 128,-1,34
 1182 93 1182 93 1182 67 c 0,35,36
 1182 42 1182 42 1164.5 21 c 128,-1,37
 1147 0 1147 0 1113 0 c 2,38,-1
 227 0 l 2,39,40
 193 0 193 0 176 21 c 128,-1,41
 159 42 159 42 159 67 c 0,42,43
 159 93 159 93 176 113.5 c 128,-1,44
 193 134 193 134 227 134 c 2,45,-1
 1113 134 l 2,32,33
EndSplineSet
EndChar

StartChar: twosuperior
Encoding: 178 178 116
Width: 745
Flags: W
LayerCount: 2
Fore
SplineSet
369 1318 m 0,0,1
 325 1318 325 1318 283 1302 c 128,-1,2
 241 1286 241 1286 211 1269 c 0,3,4
 194 1259 194 1259 178 1259 c 0,5,6
 161 1259 161 1259 150 1269.5 c 128,-1,7
 139 1280 139 1280 139 1294 c 0,8,9
 139 1313 139 1313 162.5 1333 c 128,-1,10
 186 1353 186 1353 222 1368.5 c 128,-1,11
 258 1384 258 1384 299.5 1394 c 128,-1,12
 341 1404 341 1404 377 1404 c 0,13,14
 427 1404 427 1404 472.5 1391.5 c 128,-1,15
 518 1379 518 1379 552.5 1353.5 c 128,-1,16
 587 1328 587 1328 607.5 1290.5 c 128,-1,17
 628 1253 628 1253 628 1203 c 0,18,19
 628 1157 628 1157 607.5 1107.5 c 128,-1,20
 587 1058 587 1058 553.5 1008 c 128,-1,21
 520 958 520 958 476.5 908 c 128,-1,22
 433 858 433 858 386.5 812 c 128,-1,23
 340 766 340 766 294.5 725.5 c 128,-1,24
 249 685 249 685 211 652 c 1,25,-1
 595 652 l 2,26,27
 615 652 615 652 626 638.5 c 128,-1,28
 637 625 637 625 637 609 c 256,29,30
 637 593 637 593 626.5 580 c 128,-1,31
 616 567 616 567 595 567 c 2,32,-1
 163 567 l 2,33,34
 125 567 125 567 107.5 582 c 128,-1,35
 90 597 90 597 90 620 c 0,36,37
 90 657 90 657 130 694 c 0,38,39
 160 721 160 721 200.5 759 c 128,-1,40
 241 797 241 797 284.5 841 c 128,-1,41
 328 885 328 885 370.5 932.5 c 128,-1,42
 413 980 413 980 446.5 1027 c 128,-1,43
 480 1074 480 1074 500.5 1117 c 128,-1,44
 521 1160 521 1160 521 1195 c 0,45,46
 521 1225 521 1225 508 1248 c 128,-1,47
 495 1271 495 1271 474 1286.5 c 128,-1,48
 453 1302 453 1302 425.5 1310 c 128,-1,49
 398 1318 398 1318 369 1318 c 0,0,1
EndSplineSet
EndChar

StartChar: threesuperior
Encoding: 179 179 117
Width: 789
Flags: W
LayerCount: 2
Fore
SplineSet
368 1018 m 2,0,1
 404 1019 404 1019 438 1028 c 128,-1,2
 472 1037 472 1037 498 1055.5 c 128,-1,3
 524 1074 524 1074 539.5 1102.5 c 128,-1,4
 555 1131 555 1131 555 1170 c 0,5,6
 555 1204 555 1204 541.5 1231 c 128,-1,7
 528 1258 528 1258 505.5 1276 c 128,-1,8
 483 1294 483 1294 453 1303.5 c 128,-1,9
 423 1313 423 1313 390 1313 c 0,10,11
 358 1313 358 1313 327 1306.5 c 128,-1,12
 296 1300 296 1300 269.5 1292.5 c 128,-1,13
 243 1285 243 1285 224 1279 c 128,-1,14
 205 1273 205 1273 198 1273 c 0,15,16
 179 1273 179 1273 167.5 1286.5 c 128,-1,17
 156 1300 156 1300 156 1316 c 0,18,19
 156 1336 156 1336 180 1351.5 c 128,-1,20
 204 1367 204 1367 239 1377.5 c 128,-1,21
 274 1388 274 1388 313 1393.5 c 128,-1,22
 352 1399 352 1399 383 1399 c 0,23,24
 435 1399 435 1399 483.5 1385.5 c 128,-1,25
 532 1372 532 1372 570 1344 c 128,-1,26
 608 1316 608 1316 631 1273 c 128,-1,27
 654 1230 654 1230 654 1171 c 0,28,29
 654 1132 654 1132 641.5 1100.5 c 128,-1,30
 629 1069 629 1069 607.5 1045 c 128,-1,31
 586 1021 586 1021 556.5 1005 c 128,-1,32
 527 989 527 989 493 981 c 1,33,-1
 493 980 l 1,34,35
 532 971 532 971 564 952 c 128,-1,36
 596 933 596 933 619.5 905 c 128,-1,37
 643 877 643 877 656 841.5 c 128,-1,38
 669 806 669 806 669 764 c 0,39,40
 669 705 669 705 646.5 662 c 128,-1,41
 624 619 624 619 586 590.5 c 128,-1,42
 548 562 548 562 498 548.5 c 128,-1,43
 448 535 448 535 394 535 c 0,44,45
 365 535 365 535 325.5 541.5 c 128,-1,46
 286 548 286 548 250.5 559 c 128,-1,47
 215 570 215 570 190.5 586 c 128,-1,48
 166 602 166 602 166 622 c 0,49,50
 166 637 166 637 178 649.5 c 128,-1,51
 190 662 190 662 209 662 c 0,52,53
 219 662 219 662 224 660 c 0,54,55
 252 646 252 646 298.5 633 c 128,-1,56
 345 620 345 620 397 620 c 0,57,58
 476 620 476 620 522.5 656.5 c 128,-1,59
 569 693 569 693 569 764 c 0,60,61
 569 805 569 805 553 837 c 128,-1,62
 537 869 537 869 510.5 891 c 128,-1,63
 484 913 484 913 449.5 924.5 c 128,-1,64
 415 936 415 936 377 936 c 2,65,-1
 332 936 l 2,66,67
 312 936 312 936 302 948.5 c 128,-1,68
 292 961 292 961 292 976 c 0,69,70
 292 992 292 992 302 1004 c 128,-1,71
 312 1016 312 1016 332 1017 c 2,72,-1
 368 1018 l 2,0,1
EndSplineSet
EndChar

StartChar: acute
Encoding: 180 180 118
Width: 569
Flags: W
LayerCount: 2
Fore
SplineSet
161 1120 m 2,0,1
 140 1103 140 1103 120 1103 c 0,2,3
 103 1103 103 1103 93 1114 c 128,-1,4
 83 1125 83 1125 83 1141 c 0,5,6
 83 1148 83 1148 85.5 1156.5 c 128,-1,7
 88 1165 88 1165 95 1173 c 2,8,-1
 364 1474 l 2,9,10
 387 1500 387 1500 415 1499 c 0,11,12
 432 1499 432 1499 448 1491.5 c 128,-1,13
 464 1484 464 1484 477 1471.5 c 128,-1,14
 490 1459 490 1459 497.5 1443.5 c 128,-1,15
 505 1428 505 1428 505 1412 c 0,16,17
 505 1400 505 1400 500 1388 c 128,-1,18
 495 1376 495 1376 483 1367 c 2,19,-1
 161 1120 l 2,0,1
EndSplineSet
EndChar

StartChar: mu
Encoding: 181 181 119
Width: 1158
Flags: W
LayerCount: 2
Fore
SplineSet
155 915 m 2,0,1
 155 953 155 953 180 971.5 c 128,-1,2
 205 990 205 990 235 990 c 256,3,4
 265 990 265 990 290 971.5 c 128,-1,5
 315 953 315 953 315 915 c 2,6,-1
 315 345 l 2,7,8
 315 280 315 280 334 232 c 128,-1,9
 353 184 353 184 385 152.5 c 128,-1,10
 417 121 417 121 458 106 c 128,-1,11
 499 91 499 91 544 91 c 0,12,13
 602 91 602 91 654.5 109 c 128,-1,14
 707 127 707 127 747 164 c 128,-1,15
 787 201 787 201 812.5 255.5 c 128,-1,16
 838 310 838 310 843 384 c 1,17,-1
 843 916 l 2,18,19
 843 953 843 953 868.5 972 c 128,-1,20
 894 991 894 991 924 991 c 256,21,22
 954 991 954 991 978.5 972.5 c 128,-1,23
 1003 954 1003 954 1003 916 c 2,24,-1
 1003 75 l 2,25,26
 1003 38 1003 38 977.5 19 c 128,-1,27
 952 0 952 0 922 0 c 256,28,29
 892 0 892 0 867.5 18.5 c 128,-1,30
 843 37 843 37 843 74 c 2,31,-1
 843 164 l 1,32,33
 822 120 822 120 787.5 86.5 c 128,-1,34
 753 53 753 53 710 30 c 128,-1,35
 667 7 667 7 617.5 -5 c 128,-1,36
 568 -17 568 -17 519 -17 c 0,37,38
 462 -17 462 -17 410 -3 c 128,-1,39
 358 11 358 11 315 43 c 1,40,-1
 315 -173 l 2,41,42
 315 -213 315 -213 289 -233 c 128,-1,43
 263 -253 263 -253 233 -253 c 256,44,45
 203 -253 203 -253 179 -234 c 128,-1,46
 155 -215 155 -215 155 -173 c 2,47,-1
 155 915 l 2,0,1
EndSplineSet
EndChar

StartChar: paragraph
Encoding: 182 182 120
Width: 1325
Flags: W
LayerCount: 2
Fore
SplineSet
942 1426 m 2,0,1
 979 1426 979 1426 1001 1416 c 128,-1,2
 1023 1406 1023 1406 1034 1390.5 c 128,-1,3
 1045 1375 1045 1375 1048 1355 c 128,-1,4
 1051 1335 1051 1335 1051 1314 c 2,5,-1
 1051 -199 l 2,6,7
 1051 -234 1051 -234 1028 -252 c 128,-1,8
 1005 -270 1005 -270 977 -270 c 256,9,10
 949 -270 949 -270 926 -252 c 128,-1,11
 903 -234 903 -234 903 -199 c 2,12,-1
 903 1299 l 1,13,-1
 673 1299 l 1,14,-1
 673 -199 l 2,15,16
 673 -234 673 -234 650 -252 c 128,-1,17
 627 -270 627 -270 599 -270 c 256,18,19
 571 -270 571 -270 548 -252 c 128,-1,20
 525 -234 525 -234 525 -199 c 2,21,-1
 525 674 l 1,22,23
 444 674 444 674 371.5 703.5 c 128,-1,24
 299 733 299 733 245 783.5 c 128,-1,25
 191 834 191 834 159.5 901.5 c 128,-1,26
 128 969 128 969 128 1045 c 0,27,28
 128 1135 128 1135 158.5 1206 c 128,-1,29
 189 1277 189 1277 247 1325.5 c 128,-1,30
 305 1374 305 1374 389.5 1400 c 128,-1,31
 474 1426 474 1426 581 1426 c 2,32,-1
 942 1426 l 2,0,1
EndSplineSet
EndChar

StartChar: periodcentered
Encoding: 183 183 121
Width: 584
Flags: W
LayerCount: 2
Fore
SplineSet
183 520 m 256,0,1
 183 539 183 539 190 556.5 c 128,-1,2
 197 574 197 574 211 587.5 c 128,-1,3
 225 601 225 601 245.5 609.5 c 128,-1,4
 266 618 266 618 292 618 c 256,5,6
 318 618 318 618 338 609.5 c 128,-1,7
 358 601 358 601 372 587.5 c 128,-1,8
 386 574 386 574 393 556.5 c 128,-1,9
 400 539 400 539 400 520 c 256,10,11
 400 501 400 501 393 483 c 128,-1,12
 386 465 386 465 372 451.5 c 128,-1,13
 358 438 358 438 338 429.5 c 128,-1,14
 318 421 318 421 292 421 c 256,15,16
 266 421 266 421 245.5 429.5 c 128,-1,17
 225 438 225 438 211 451.5 c 128,-1,18
 197 465 197 465 190 483 c 128,-1,19
 183 501 183 501 183 520 c 256,0,1
EndSplineSet
EndChar

StartChar: cedilla
Encoding: 184 184 122
Width: 569
Flags: W
LayerCount: 2
Fore
SplineSet
252 9 m 1,0,-1
 311 9 l 1,1,-1
 277 -103 l 1,2,3
 316 -101 316 -101 354 -105.5 c 128,-1,4
 392 -110 392 -110 422 -125 c 128,-1,5
 452 -140 452 -140 470.5 -168.5 c 128,-1,6
 489 -197 489 -197 489 -244 c 0,7,8
 489 -282 489 -282 472.5 -309.5 c 128,-1,9
 456 -337 456 -337 429 -355.5 c 128,-1,10
 402 -374 402 -374 368 -383 c 128,-1,11
 334 -392 334 -392 300 -392 c 0,12,13
 258 -392 258 -392 217 -386.5 c 128,-1,14
 176 -381 176 -381 143 -371 c 128,-1,15
 110 -361 110 -361 89.5 -347.5 c 128,-1,16
 69 -334 69 -334 69 -318 c 0,17,18
 69 -306 69 -306 76 -296 c 128,-1,19
 83 -286 83 -286 95 -286 c 0,20,21
 100 -286 100 -286 108 -289 c 0,22,23
 146 -303 146 -303 185 -313.5 c 128,-1,24
 224 -324 224 -324 269 -324 c 0,25,26
 323 -324 323 -324 343 -302.5 c 128,-1,27
 363 -281 363 -281 363 -241 c 0,28,29
 363 -221 363 -221 353.5 -207 c 128,-1,30
 344 -193 344 -193 328 -184.5 c 128,-1,31
 312 -176 312 -176 292.5 -172 c 128,-1,32
 273 -168 273 -168 252 -168 c 0,33,34
 249 -168 249 -168 245.5 -168.5 c 128,-1,35
 242 -169 242 -169 239 -169 c 0,36,37
 221 -169 221 -169 212.5 -160.5 c 128,-1,38
 204 -152 204 -152 204 -139 c 0,39,40
 204 -132 204 -132 207 -123 c 2,41,-1
 252 9 l 1,0,-1
EndSplineSet
EndChar

StartChar: onesuperior
Encoding: 185 185 123
Width: 688
Flags: W
LayerCount: 2
Fore
SplineSet
246 1185 m 2,0,1
 236 1178 236 1178 225 1178 c 0,2,3
 208 1178 208 1178 197 1190.5 c 128,-1,4
 186 1203 186 1203 186 1217 c 0,5,6
 186 1236 186 1236 203 1247 c 2,7,-1
 402 1373 l 2,8,9
 415 1381 415 1381 430 1381 c 0,10,11
 447 1381 447 1381 461 1369 c 128,-1,12
 475 1357 475 1357 475 1331 c 2,13,-1
 475 614 l 2,14,15
 475 591 475 591 459.5 579 c 128,-1,16
 444 567 444 567 426 567 c 256,17,18
 408 567 408 567 393 579 c 128,-1,19
 378 591 378 591 378 614 c 2,20,-1
 378 1270 l 1,21,-1
 246 1185 l 2,0,1
EndSplineSet
EndChar

StartChar: ordmasculine
Encoding: 186 186 124
Width: 1118
Flags: W
LayerCount: 2
Fore
SplineSet
158 1108 m 256,0,1
 158 1184 158 1184 181 1256 c 128,-1,2
 204 1328 204 1328 251 1384.5 c 128,-1,3
 298 1441 298 1441 370 1475.5 c 128,-1,4
 442 1510 442 1510 541 1510 c 256,5,6
 640 1510 640 1510 712.5 1475.5 c 128,-1,7
 785 1441 785 1441 832.5 1384.5 c 128,-1,8
 880 1328 880 1328 903 1256 c 128,-1,9
 926 1184 926 1184 926 1108 c 256,10,11
 926 1032 926 1032 903 960 c 128,-1,12
 880 888 880 888 832.5 831.5 c 128,-1,13
 785 775 785 775 712.5 741 c 128,-1,14
 640 707 640 707 541 707 c 256,15,16
 442 707 442 707 370 741 c 128,-1,17
 298 775 298 775 251 831.5 c 128,-1,18
 204 888 204 888 181 960 c 128,-1,19
 158 1032 158 1032 158 1108 c 256,0,1
290 1108 m 256,20,21
 290 1056 290 1056 304 1001.5 c 128,-1,22
 318 947 318 947 348.5 903 c 128,-1,23
 379 859 379 859 426.5 830.5 c 128,-1,24
 474 802 474 802 541 802 c 256,25,26
 608 802 608 802 656 830.5 c 128,-1,27
 704 859 704 859 734.5 903 c 128,-1,28
 765 947 765 947 779 1001.5 c 128,-1,29
 793 1056 793 1056 793 1109 c 0,30,31
 793 1161 793 1161 779 1215 c 128,-1,32
 765 1269 765 1269 734.5 1313.5 c 128,-1,33
 704 1358 704 1358 656 1386 c 128,-1,34
 608 1414 608 1414 541 1414 c 256,35,36
 474 1414 474 1414 426.5 1386 c 128,-1,37
 379 1358 379 1358 348.5 1313.5 c 128,-1,38
 318 1269 318 1269 304 1214.5 c 128,-1,39
 290 1160 290 1160 290 1108 c 256,20,21
EndSplineSet
EndChar

StartChar: guillemotright
Encoding: 187 187 125
Width: 1158
Flags: W
LayerCount: 2
Fore
SplineSet
962 544 m 1,0,-1
 750 162 l 2,1,2
 736 136 736 136 717.5 125.5 c 128,-1,3
 699 115 699 115 682 115 c 0,4,5
 659 115 659 115 642 130 c 128,-1,6
 625 145 625 145 625 168 c 0,7,8
 625 179 625 179 631 193 c 2,9,-1
 796 544 l 1,10,-1
 631 894 l 2,11,12
 625 906 625 906 625 918 c 0,13,14
 625 941 625 941 642 956.5 c 128,-1,15
 659 972 659 972 682 972 c 0,16,17
 699 972 699 972 717.5 961 c 128,-1,18
 736 950 736 950 750 925 c 2,19,-1
 962 544 l 1,0,-1
575 544 m 1,20,-1
 363 162 l 2,21,22
 349 136 349 136 330.5 125.5 c 128,-1,23
 312 115 312 115 295 115 c 0,24,25
 272 115 272 115 255 130 c 128,-1,26
 238 145 238 145 238 168 c 0,27,28
 238 179 238 179 244 193 c 2,29,-1
 409 544 l 1,30,-1
 244 894 l 2,31,32
 238 906 238 906 238 918 c 0,33,34
 238 941 238 941 255 956.5 c 128,-1,35
 272 972 272 972 295 972 c 0,36,37
 312 972 312 972 330.5 961 c 128,-1,38
 349 950 349 950 363 925 c 2,39,-1
 575 544 l 1,20,-1
EndSplineSet
EndChar

StartChar: onequarter
Encoding: 188 188 126
Width: 1543
Flags: W
LayerCount: 2
Fore
SplineSet
562 -48 m 2,0,1
 555 -68 555 -68 540.5 -78 c 128,-1,2
 526 -88 526 -88 509 -88 c 0,3,4
 488 -88 488 -88 470.5 -74 c 128,-1,5
 453 -60 453 -60 453 -35 c 0,6,7
 453 -24 453 -24 457 -13 c 2,8,-1
 932 1392 l 2,9,10
 939 1413 939 1413 954.5 1423 c 128,-1,11
 970 1433 970 1433 987 1433 c 0,12,13
 1009 1433 1009 1433 1026.5 1419 c 128,-1,14
 1044 1405 1044 1405 1044 1380 c 0,15,16
 1044 1375 1044 1375 1043 1369.5 c 128,-1,17
 1042 1364 1042 1364 1040 1358 c 2,18,-1
 562 -48 l 2,0,1
1180 791 m 2,19,20
 1196 817 1196 817 1217.5 828.5 c 128,-1,21
 1239 840 1239 840 1262 840 c 0,22,23
 1291 840 1291 840 1311.5 822 c 128,-1,24
 1332 804 1332 804 1332 766 c 2,25,-1
 1332 262 l 1,26,-1
 1425 262 l 2,27,28
 1444 262 1444 262 1454 251 c 128,-1,29
 1464 240 1464 240 1464 226 c 256,30,31
 1464 212 1464 212 1454.5 201 c 128,-1,32
 1445 190 1445 190 1425 190 c 2,33,-1
 1332 190 l 1,34,-1
 1332 49 l 2,35,36
 1332 25 1332 25 1317 13 c 128,-1,37
 1302 1 1302 1 1284 1 c 256,38,39
 1266 1 1266 1 1251 13 c 128,-1,40
 1236 25 1236 25 1236 49 c 2,41,-1
 1236 190 l 1,42,-1
 889 190 l 2,43,44
 863 190 863 190 847.5 206 c 128,-1,45
 832 222 832 222 832 244 c 0,46,47
 832 263 832 263 844 281 c 2,48,-1
 1180 791 l 2,19,20
922 262 m 1,49,-1
 1236 262 l 1,50,-1
 1236 745 l 1,51,-1
 922 262 l 1,49,-1
213 1185 m 2,52,53
 203 1178 203 1178 192 1178 c 0,54,55
 175 1178 175 1178 164 1190.5 c 128,-1,56
 153 1203 153 1203 153 1217 c 0,57,58
 153 1236 153 1236 170 1247 c 2,59,-1
 369 1373 l 2,60,61
 382 1381 382 1381 397 1381 c 0,62,63
 414 1381 414 1381 428.5 1369 c 128,-1,64
 443 1357 443 1357 443 1331 c 2,65,-1
 443 614 l 2,66,67
 443 591 443 591 427.5 579 c 128,-1,68
 412 567 412 567 393 567 c 0,69,70
 375 567 375 567 360 579 c 128,-1,71
 345 591 345 591 345 614 c 2,72,-1
 345 1270 l 1,73,-1
 213 1185 l 2,52,53
EndSplineSet
EndChar

StartChar: onehalf
Encoding: 189 189 127
Width: 1560
Flags: W
LayerCount: 2
Fore
SplineSet
560 -48 m 2,0,1
 553 -68 553 -68 538.5 -78 c 128,-1,2
 524 -88 524 -88 507 -88 c 0,3,4
 486 -88 486 -88 468.5 -74 c 128,-1,5
 451 -60 451 -60 451 -35 c 0,6,7
 451 -24 451 -24 455 -13 c 2,8,-1
 930 1392 l 2,9,10
 937 1413 937 1413 952.5 1423 c 128,-1,11
 968 1433 968 1433 985 1433 c 0,12,13
 1007 1433 1007 1433 1024.5 1419 c 128,-1,14
 1042 1405 1042 1405 1042 1380 c 0,15,16
 1042 1375 1042 1375 1041 1369.5 c 128,-1,17
 1040 1364 1040 1364 1038 1358 c 2,18,-1
 560 -48 l 2,0,1
1181 751 m 0,19,20
 1136 751 1136 751 1094 735 c 128,-1,21
 1052 719 1052 719 1022 702 c 0,22,23
 1005 692 1005 692 989 692 c 0,24,25
 972 692 972 692 961.5 702.5 c 128,-1,26
 951 713 951 713 951 727 c 0,27,28
 951 746 951 746 974.5 765.5 c 128,-1,29
 998 785 998 785 1033.5 801 c 128,-1,30
 1069 817 1069 817 1110.5 827 c 128,-1,31
 1152 837 1152 837 1188 837 c 0,32,33
 1238 837 1238 837 1283.5 824.5 c 128,-1,34
 1329 812 1329 812 1363.5 786.5 c 128,-1,35
 1398 761 1398 761 1418.5 723.5 c 128,-1,36
 1439 686 1439 686 1439 637 c 0,37,38
 1439 591 1439 591 1418.5 541.5 c 128,-1,39
 1398 492 1398 492 1364.5 441.5 c 128,-1,40
 1331 391 1331 391 1287.5 341 c 128,-1,41
 1244 291 1244 291 1197.5 245 c 128,-1,42
 1151 199 1151 199 1105.5 158.5 c 128,-1,43
 1060 118 1060 118 1023 85 c 1,44,-1
 1406 85 l 2,45,46
 1426 85 1426 85 1437 71.5 c 128,-1,47
 1448 58 1448 58 1448 42 c 256,48,49
 1448 26 1448 26 1437.5 13 c 128,-1,50
 1427 0 1427 0 1406 0 c 2,51,-1
 974 0 l 2,52,53
 936 0 936 0 919 15 c 128,-1,54
 902 30 902 30 902 52 c 0,55,56
 902 71 902 71 912.5 90 c 128,-1,57
 923 109 923 109 942 127 c 0,58,59
 971 155 971 155 1011.5 193 c 128,-1,60
 1052 231 1052 231 1095 275 c 128,-1,61
 1138 319 1138 319 1180.5 366.5 c 128,-1,62
 1223 414 1223 414 1256.5 460.5 c 128,-1,63
 1290 507 1290 507 1311 550 c 128,-1,64
 1332 593 1332 593 1332 629 c 0,65,66
 1332 659 1332 659 1319 682 c 128,-1,67
 1306 705 1306 705 1285 720 c 128,-1,68
 1264 735 1264 735 1237 743 c 128,-1,69
 1210 751 1210 751 1181 751 c 0,19,20
213 1185 m 2,70,71
 203 1178 203 1178 192 1178 c 0,72,73
 175 1178 175 1178 164 1190.5 c 128,-1,74
 153 1203 153 1203 153 1217 c 0,75,76
 153 1236 153 1236 170 1247 c 2,77,-1
 369 1373 l 2,78,79
 382 1381 382 1381 397 1381 c 0,80,81
 414 1381 414 1381 428.5 1369 c 128,-1,82
 443 1357 443 1357 443 1331 c 2,83,-1
 443 614 l 2,84,85
 443 591 443 591 427.5 579 c 128,-1,86
 412 567 412 567 393 567 c 0,87,88
 375 567 375 567 360 579 c 128,-1,89
 345 591 345 591 345 614 c 2,90,-1
 345 1270 l 1,91,-1
 213 1185 l 2,70,71
EndSplineSet
EndChar

StartChar: threequarters
Encoding: 190 190 128
Width: 1603
Flags: W
LayerCount: 2
Fore
SplineSet
269 1025 m 2,0,1
 305 1026 305 1026 339 1035 c 128,-1,2
 373 1044 373 1044 399 1063 c 128,-1,3
 425 1082 425 1082 440.5 1110.5 c 128,-1,4
 456 1139 456 1139 456 1178 c 0,5,6
 456 1212 456 1212 442.5 1238.5 c 128,-1,7
 429 1265 429 1265 406.5 1283 c 128,-1,8
 384 1301 384 1301 354 1310.5 c 128,-1,9
 324 1320 324 1320 291 1320 c 0,10,11
 259 1320 259 1320 228 1313.5 c 128,-1,12
 197 1307 197 1307 170.5 1299.5 c 128,-1,13
 144 1292 144 1292 125 1286 c 128,-1,14
 106 1280 106 1280 99 1280 c 0,15,16
 79 1280 79 1280 68 1293 c 128,-1,17
 57 1306 57 1306 57 1323 c 0,18,19
 57 1343 57 1343 81 1358.5 c 128,-1,20
 105 1374 105 1374 140 1384.5 c 128,-1,21
 175 1395 175 1395 214 1400.5 c 128,-1,22
 253 1406 253 1406 284 1406 c 0,23,24
 336 1406 336 1406 384.5 1392.5 c 128,-1,25
 433 1379 433 1379 471 1351 c 128,-1,26
 509 1323 509 1323 532 1280 c 128,-1,27
 555 1237 555 1237 555 1179 c 0,28,29
 555 1140 555 1140 542.5 1108.5 c 128,-1,30
 530 1077 530 1077 508.5 1053 c 128,-1,31
 487 1029 487 1029 457.5 1012.5 c 128,-1,32
 428 996 428 996 394 988 c 1,33,-1
 394 987 l 1,34,35
 433 978 433 978 465 959 c 128,-1,36
 497 940 497 940 520.5 912 c 128,-1,37
 544 884 544 884 557 848.5 c 128,-1,38
 570 813 570 813 570 771 c 0,39,40
 570 712 570 712 547.5 669 c 128,-1,41
 525 626 525 626 486.5 597.5 c 128,-1,42
 448 569 448 569 398.5 555.5 c 128,-1,43
 349 542 349 542 295 542 c 0,44,45
 266 542 266 542 226.5 548.5 c 128,-1,46
 187 555 187 555 151.5 566 c 128,-1,47
 116 577 116 577 91.5 593 c 128,-1,48
 67 609 67 609 67 629 c 0,49,50
 67 645 67 645 78.5 657.5 c 128,-1,51
 90 670 90 670 109 670 c 0,52,53
 116 670 116 670 125 667 c 1,54,55
 153 653 153 653 199.5 640.5 c 128,-1,56
 246 628 246 628 298 628 c 0,57,58
 377 628 377 628 423.5 664.5 c 128,-1,59
 470 701 470 701 470 771 c 0,60,61
 470 812 470 812 454 844 c 128,-1,62
 438 876 438 876 411.5 898 c 128,-1,63
 385 920 385 920 350.5 931.5 c 128,-1,64
 316 943 316 943 278 943 c 2,65,-1
 233 943 l 2,66,67
 213 943 213 943 203 955.5 c 128,-1,68
 193 968 193 968 193 983 c 0,69,70
 193 999 193 999 203 1011 c 128,-1,71
 213 1023 213 1023 233 1024 c 2,72,-1
 269 1025 l 2,0,1
593 -48 m 2,73,74
 586 -68 586 -68 571.5 -78 c 128,-1,75
 557 -88 557 -88 540 -88 c 0,76,77
 519 -88 519 -88 501.5 -74 c 128,-1,78
 484 -60 484 -60 484 -35 c 0,79,80
 484 -24 484 -24 488 -13 c 2,81,-1
 962 1392 l 2,82,83
 969 1413 969 1413 984.5 1423 c 128,-1,84
 1000 1433 1000 1433 1018 1433 c 0,85,86
 1039 1433 1039 1433 1056.5 1419 c 128,-1,87
 1074 1405 1074 1405 1074 1380 c 0,88,89
 1074 1369 1074 1369 1070 1358 c 2,90,-1
 593 -48 l 2,73,74
1196 791 m 2,91,92
 1212 817 1212 817 1233 828.5 c 128,-1,93
 1254 840 1254 840 1278 840 c 0,94,95
 1307 840 1307 840 1327.5 822 c 128,-1,96
 1348 804 1348 804 1348 766 c 2,97,-1
 1348 262 l 1,98,-1
 1441 262 l 2,99,100
 1460 262 1460 262 1470 251 c 128,-1,101
 1480 240 1480 240 1480 226 c 256,102,103
 1480 212 1480 212 1470.5 201 c 128,-1,104
 1461 190 1461 190 1441 190 c 2,105,-1
 1348 190 l 1,106,-1
 1348 49 l 2,107,108
 1348 25 1348 25 1333 13 c 128,-1,109
 1318 1 1318 1 1300 1 c 0,110,111
 1281 1 1281 1 1266 13 c 128,-1,112
 1251 25 1251 25 1251 49 c 2,113,-1
 1251 190 l 1,114,-1
 905 190 l 2,115,116
 879 190 879 190 863.5 206 c 128,-1,117
 848 222 848 222 848 244 c 0,118,119
 848 263 848 263 860 281 c 2,120,-1
 1196 791 l 2,91,92
937 262 m 1,121,-1
 1251 262 l 1,122,-1
 1251 745 l 1,123,-1
 937 262 l 1,121,-1
EndSplineSet
EndChar

StartChar: AE
Encoding: 198 198 136
Width: 1963
Flags: W
LayerCount: 2
Fore
SplineSet
1252 0 m 2,0,1
 1237 0 1237 0 1222 2 c 128,-1,2
 1207 4 1207 4 1194.5 10 c 128,-1,3
 1182 16 1182 16 1173.5 26 c 128,-1,4
 1165 36 1165 36 1162 53 c 2,5,-1
 1107 373 l 1,6,-1
 416 373 l 1,7,-1
 211 53 l 1,8,9
 195 24 195 24 172 11.5 c 128,-1,10
 149 -1 149 -1 126 -1 c 0,11,12
 97 -1 97 -1 74.5 16.5 c 128,-1,13
 52 34 52 34 52 63 c 0,14,15
 52 73 52 73 55 84.5 c 128,-1,16
 58 96 58 96 66 108 c 2,17,-1
 805 1278 l 1,18,19
 833 1327 833 1327 857.5 1356.5 c 128,-1,20
 882 1386 882 1386 905.5 1401.5 c 128,-1,21
 929 1417 929 1417 951.5 1421.5 c 128,-1,22
 974 1426 974 1426 998 1426 c 2,23,-1
 1816 1426 l 2,24,25
 1836 1426 1836 1426 1851.5 1418.5 c 128,-1,26
 1867 1411 1867 1411 1877.5 1399.5 c 128,-1,27
 1888 1388 1888 1388 1893.5 1373.5 c 128,-1,28
 1899 1359 1899 1359 1899 1344 c 0,29,30
 1899 1319 1899 1319 1883.5 1300 c 128,-1,31
 1868 1281 1868 1281 1834 1281 c 2,32,-1
 1139 1281 l 1,33,-1
 1215 806 l 1,34,-1
 1785 806 l 2,35,36
 1805 806 1805 806 1820.5 799 c 128,-1,37
 1836 792 1836 792 1846.5 780.5 c 128,-1,38
 1857 769 1857 769 1862.5 754.5 c 128,-1,39
 1868 740 1868 740 1868 725 c 0,40,41
 1868 700 1868 700 1852 681 c 128,-1,42
 1836 662 1836 662 1802 662 c 2,43,-1
 1236 662 l 1,44,-1
 1321 145 l 1,45,-1
 1835 145 l 2,46,47
 1855 145 1855 145 1870.5 137.5 c 128,-1,48
 1886 130 1886 130 1896.5 118.5 c 128,-1,49
 1907 107 1907 107 1912.5 92.5 c 128,-1,50
 1918 78 1918 78 1918 63 c 0,51,52
 1918 39 1918 39 1902.5 19.5 c 128,-1,53
 1887 0 1887 0 1853 0 c 2,54,-1
 1252 0 l 2,0,1
495 508 m 1,55,-1
 1090 508 l 1,56,-1
 967 1293 l 1,57,-1
 964 1293 l 1,58,-1
 495 508 l 1,55,-1
EndSplineSet
EndChar

StartChar: Eth
Encoding: 208 208 146
Width: 1494
Flags: W
LayerCount: 2
Fore
SplineSet
267 0 m 2,0,1
 249 0 249 0 232.5 7 c 128,-1,2
 216 14 216 14 204 25.5 c 128,-1,3
 192 37 192 37 185 52.5 c 128,-1,4
 178 68 178 68 178 86 c 2,5,-1
 178 648 l 1,6,-1
 64 648 l 2,7,8
 32 648 32 648 16 668 c 128,-1,9
 0 688 0 688 0 712 c 256,10,11
 0 736 0 736 16 755.5 c 128,-1,12
 32 775 32 775 64 775 c 2,13,-1
 178 775 l 1,14,-1
 178 1340 l 2,15,16
 178 1358 178 1358 185 1373.5 c 128,-1,17
 192 1389 192 1389 204 1400.5 c 128,-1,18
 216 1412 216 1412 232.5 1419 c 128,-1,19
 249 1426 249 1426 267 1426 c 2,20,-1
 607 1426 l 2,21,22
 793 1426 793 1426 935.5 1380 c 128,-1,23
 1078 1334 1078 1334 1175 1243.5 c 128,-1,24
 1272 1153 1272 1153 1321.5 1019 c 128,-1,25
 1371 885 1371 885 1371 710 c 256,26,27
 1371 535 1371 535 1320 402.5 c 128,-1,28
 1269 270 1269 270 1171.5 180.5 c 128,-1,29
 1074 91 1074 91 933 45.5 c 128,-1,30
 792 0 792 0 611 0 c 2,31,-1
 267 0 l 2,0,1
355 648 m 1,32,-1
 355 140 l 1,33,-1
 630 140 l 2,34,35
 777 140 777 140 881.5 180 c 128,-1,36
 986 220 986 220 1052.5 294.5 c 128,-1,37
 1119 369 1119 369 1150 475 c 128,-1,38
 1181 581 1181 581 1181 712 c 0,39,40
 1181 860 1181 860 1140.5 968.5 c 128,-1,41
 1100 1077 1100 1077 1023 1147.5 c 128,-1,42
 946 1218 946 1218 834.5 1252 c 128,-1,43
 723 1286 723 1286 582 1286 c 2,44,-1
 355 1286 l 1,45,-1
 355 775 l 1,46,-1
 483 775 l 2,47,48
 515 775 515 775 531.5 755 c 128,-1,49
 548 735 548 735 548 712 c 0,50,51
 548 688 548 688 531.5 668 c 128,-1,52
 515 648 515 648 483 648 c 2,53,-1
 355 648 l 1,32,-1
EndSplineSet
EndChar

StartChar: multiply
Encoding: 215 215 153
Width: 1340
Flags: W
LayerCount: 2
Fore
SplineSet
672 593 m 1,0,-1
 936 857 l 2,1,2
 957 878 957 878 983 878 c 0,3,4
 1010 878 1010 878 1031 857.5 c 128,-1,5
 1052 837 1052 837 1052 810 c 0,6,7
 1052 799 1052 799 1047 786.5 c 128,-1,8
 1042 774 1042 774 1031 763 c 2,9,-1
 767 498 l 1,10,-1
 1021 245 l 2,11,12
 1031 235 1031 235 1035 223.5 c 128,-1,13
 1039 212 1039 212 1039 201 c 0,14,15
 1039 172 1039 172 1017.5 149.5 c 128,-1,16
 996 127 996 127 967 127 c 0,17,18
 943 127 943 127 923 147 c 2,19,-1
 669 400 l 1,20,-1
 405 136 l 2,21,22
 385 116 385 116 359 116 c 0,23,24
 332 116 332 116 310.5 136.5 c 128,-1,25
 289 157 289 157 289 184 c 0,26,27
 289 195 289 195 294 207.5 c 128,-1,28
 299 220 299 220 310 231 c 2,29,-1
 574 495 l 1,30,-1
 319 750 l 2,31,32
 299 770 299 770 299 795 c 0,33,34
 299 809 299 809 305 822 c 128,-1,35
 311 835 311 835 321 845.5 c 128,-1,36
 331 856 331 856 344.5 862 c 128,-1,37
 358 868 358 868 372 868 c 0,38,39
 397 868 397 868 417 848 c 2,40,-1
 672 593 l 1,0,-1
EndSplineSet
EndChar

StartChar: Oslash
Encoding: 216 216 154
Width: 1597
Flags: W
LayerCount: 2
Fore
SplineSet
1138 1373 m 1,0,1
 1219 1330 1219 1330 1280.5 1265 c 128,-1,2
 1342 1200 1342 1200 1383.5 1115.5 c 128,-1,3
 1425 1031 1425 1031 1446.5 929.5 c 128,-1,4
 1468 828 1468 828 1468 712 c 0,5,6
 1468 546 1468 546 1424 409 c 128,-1,7
 1380 272 1380 272 1295.5 174.5 c 128,-1,8
 1211 77 1211 77 1086 23 c 128,-1,9
 961 -31 961 -31 799 -31 c 0,10,11
 690 -31 690 -31 597 -5 c 1,12,-1
 553 -113 l 2,13,14
 543 -136 543 -136 525.5 -147 c 128,-1,15
 508 -158 508 -158 489 -158 c 0,16,17
 463 -158 463 -158 443 -141.5 c 128,-1,18
 423 -125 423 -125 423 -96 c 0,19,20
 423 -89 423 -89 424 -81.5 c 128,-1,21
 425 -74 425 -74 429 -66 c 2,22,-1
 473 44 l 1,23,24
 389 86 389 86 324.5 151.5 c 128,-1,25
 260 217 260 217 216.5 302.5 c 128,-1,26
 173 388 173 388 150.5 491 c 128,-1,27
 128 594 128 594 128 712 c 0,28,29
 128 879 128 879 172 1016 c 128,-1,30
 216 1153 216 1153 301 1251 c 128,-1,31
 386 1349 386 1349 511.5 1402.5 c 128,-1,32
 637 1456 637 1456 799 1456 c 0,33,34
 858 1456 858 1456 910.5 1448.5 c 128,-1,35
 963 1441 963 1441 1011 1427 c 1,36,-1
 1052 1526 l 2,37,38
 1062 1549 1062 1549 1080.5 1560 c 128,-1,39
 1099 1571 1099 1571 1119 1571 c 0,40,41
 1145 1571 1145 1571 1166 1554.5 c 128,-1,42
 1187 1538 1187 1538 1187 1509 c 0,43,44
 1187 1495 1187 1495 1181 1479 c 2,45,-1
 1138 1373 l 1,0,1
1282 712 m 0,46,47
 1282 787 1282 787 1269 860 c 128,-1,48
 1256 933 1256 933 1229 998.5 c 128,-1,49
 1202 1064 1202 1064 1160.5 1118.5 c 128,-1,50
 1119 1173 1119 1173 1061 1211 c 1,51,-1
 659 133 l 1,52,53
 722 114 722 114 799 114 c 0,54,55
 927 114 927 114 1018.5 163.5 c 128,-1,56
 1110 213 1110 213 1168.5 295.5 c 128,-1,57
 1227 378 1227 378 1254.5 486.5 c 128,-1,58
 1282 595 1282 595 1282 712 c 0,46,47
316 712 m 0,59,60
 316 636 316 636 329.5 561 c 128,-1,61
 343 486 343 486 371 419 c 128,-1,62
 399 352 399 352 443 296.5 c 128,-1,63
 487 241 487 241 549 205 c 1,64,-1
 949 1288 l 1,65,66
 882 1311 882 1311 799 1311 c 0,67,68
 670 1311 670 1311 578.5 1261.5 c 128,-1,69
 487 1212 487 1212 428.5 1129 c 128,-1,70
 370 1046 370 1046 343 937.5 c 128,-1,71
 316 829 316 829 316 712 c 0,59,60
EndSplineSet
EndChar

StartChar: Thorn
Encoding: 222 222 160
Width: 1278
Flags: W
LayerCount: 2
Fore
SplineSet
373 482 m 1,0,-1
 373 83 l 2,1,2
 373 62 373 62 365.5 46 c 128,-1,3
 358 30 358 30 345 19.5 c 128,-1,4
 332 9 332 9 316 4 c 128,-1,5
 300 -1 300 -1 284 -1 c 0,6,7
 250 -1 250 -1 222.5 20 c 128,-1,8
 195 41 195 41 195 83 c 2,9,-1
 195 1422 l 2,10,11
 195 1464 195 1464 222.5 1485 c 128,-1,12
 250 1506 250 1506 283 1506 c 0,13,14
 300 1506 300 1506 316 1500.5 c 128,-1,15
 332 1495 332 1495 345 1484.5 c 128,-1,16
 358 1474 358 1474 365.5 1458.5 c 128,-1,17
 373 1443 373 1443 373 1422 c 2,18,-1
 373 1303 l 1,19,-1
 644 1303 l 2,20,21
 715 1303 715 1303 784.5 1295 c 128,-1,22
 854 1287 854 1287 917 1268 c 128,-1,23
 980 1249 980 1249 1033.5 1218 c 128,-1,24
 1087 1187 1087 1187 1126.5 1141.5 c 128,-1,25
 1166 1096 1166 1096 1188.5 1034.5 c 128,-1,26
 1211 973 1211 973 1211 893 c 0,27,28
 1211 812 1211 812 1188.5 750 c 128,-1,29
 1166 688 1166 688 1126 642.5 c 128,-1,30
 1086 597 1086 597 1031.5 566 c 128,-1,31
 977 535 977 535 913 516.5 c 128,-1,32
 849 498 849 498 778.5 490 c 128,-1,33
 708 482 708 482 636 482 c 2,34,-1
 373 482 l 1,0,-1
668 622 m 2,35,36
 740 622 740 622 805 634.5 c 128,-1,37
 870 647 870 647 919 678 c 128,-1,38
 968 709 968 709 996.5 761.5 c 128,-1,39
 1025 814 1025 814 1025 893 c 256,40,41
 1025 972 1025 972 996.5 1024 c 128,-1,42
 968 1076 968 1076 919.5 1107 c 128,-1,43
 871 1138 871 1138 807 1150.5 c 128,-1,44
 743 1163 743 1163 671 1163 c 2,45,-1
 373 1163 l 1,46,-1
 373 622 l 1,47,-1
 668 622 l 2,35,36
EndSplineSet
EndChar

StartChar: germandbls
Encoding: 223 223 161
Width: 1281
Flags: W
LayerCount: 2
Fore
SplineSet
541 125 m 0,0,1
 531 144 531 144 531 162 c 0,2,3
 531 191 531 191 553 210 c 128,-1,4
 575 229 575 229 601 229 c 0,5,6
 616 229 616 229 629.5 222 c 128,-1,7
 643 215 643 215 654 199 c 0,8,9
 684 151 684 151 728 124 c 128,-1,10
 772 97 772 97 833 97 c 0,11,12
 927 97 927 97 983.5 147 c 128,-1,13
 1040 197 1040 197 1040 300 c 0,14,15
 1040 355 1040 355 1007.5 394 c 128,-1,16
 975 433 975 433 926 464.5 c 128,-1,17
 877 496 877 496 820.5 525 c 128,-1,18
 764 554 764 554 715 589 c 128,-1,19
 666 624 666 624 633.5 669.5 c 128,-1,20
 601 715 601 715 601 779 c 0,21,22
 601 822 601 822 619 857 c 128,-1,23
 637 892 637 892 663.5 922 c 128,-1,24
 690 952 690 952 721.5 978.5 c 128,-1,25
 753 1005 753 1005 779.5 1031.5 c 128,-1,26
 806 1058 806 1058 824 1086.5 c 128,-1,27
 842 1115 842 1115 842 1149 c 0,28,29
 842 1196 842 1196 821 1231 c 128,-1,30
 800 1266 800 1266 766 1288.5 c 128,-1,31
 732 1311 732 1311 689 1322 c 128,-1,32
 646 1333 646 1333 602 1333 c 0,33,34
 522 1333 522 1333 469.5 1300 c 128,-1,35
 417 1267 417 1267 385.5 1213.5 c 128,-1,36
 354 1160 354 1160 341.5 1094 c 128,-1,37
 329 1028 329 1028 328 962 c 1,38,-1
 328 77 l 2,39,40
 328 39 328 39 302.5 19.5 c 128,-1,41
 277 0 277 0 246 0 c 0,42,43
 217 0 217 0 192.5 19 c 128,-1,44
 168 38 168 38 168 77 c 2,45,-1
 168 992 l 2,46,47
 168 1097 168 1097 195 1183 c 128,-1,48
 222 1269 222 1269 277 1329.5 c 128,-1,49
 332 1390 332 1390 417 1423 c 128,-1,50
 502 1456 502 1456 619 1456 c 0,51,52
 694 1456 694 1456 764.5 1436 c 128,-1,53
 835 1416 835 1416 889.5 1376.5 c 128,-1,54
 944 1337 944 1337 976.5 1279 c 128,-1,55
 1009 1221 1009 1221 1009 1145 c 0,56,57
 1009 1105 1009 1105 991.5 1070 c 128,-1,58
 974 1035 974 1035 947 1004 c 128,-1,59
 920 973 920 973 889.5 945 c 128,-1,60
 859 917 859 917 832 891 c 128,-1,61
 805 865 805 865 787.5 840.5 c 128,-1,62
 770 816 770 816 770 792 c 0,63,64
 770 746 770 746 802 713.5 c 128,-1,65
 834 681 834 681 882.5 653 c 128,-1,66
 931 625 931 625 987 596.5 c 128,-1,67
 1043 568 1043 568 1091.5 529.5 c 128,-1,68
 1140 491 1140 491 1172 437.5 c 128,-1,69
 1204 384 1204 384 1204 307 c 0,70,71
 1204 227 1204 227 1175 164.5 c 128,-1,72
 1146 102 1146 102 1096 59.5 c 128,-1,73
 1046 17 1046 17 979.5 -5.5 c 128,-1,74
 913 -28 913 -28 839 -28 c 0,75,76
 736 -28 736 -28 659 10 c 128,-1,77
 582 48 582 48 541 125 c 0,0,1
EndSplineSet
EndChar

StartChar: ae
Encoding: 230 230 168
Width: 1699
Flags: W
LayerCount: 2
Fore
SplineSet
739 690 m 2,0,1
 739 747 739 747 722.5 786 c 128,-1,2
 706 825 706 825 676 848 c 128,-1,3
 646 871 646 871 604 881 c 128,-1,4
 562 891 562 891 511 891 c 256,5,6
 460 891 460 891 419.5 884.5 c 128,-1,7
 379 878 379 878 345 866.5 c 128,-1,8
 311 855 311 855 281.5 839 c 128,-1,9
 252 823 252 823 222 805 c 0,10,11
 203 794 203 794 187 794 c 0,12,13
 163 794 163 794 146 811.5 c 128,-1,14
 129 829 129 829 129 852 c 256,15,16
 129 875 129 875 148 894 c 0,17,18
 209 955 209 955 303.5 987.5 c 128,-1,19
 398 1020 398 1020 516 1020 c 0,20,21
 638 1020 638 1020 720.5 977 c 128,-1,22
 803 934 803 934 841 840 c 1,23,24
 896 921 896 921 979 970.5 c 128,-1,25
 1062 1020 1062 1020 1174 1020 c 0,26,27
 1281 1020 1281 1020 1359 982 c 128,-1,28
 1437 944 1437 944 1488 877.5 c 128,-1,29
 1539 811 1539 811 1564 720.5 c 128,-1,30
 1589 630 1589 630 1592 526 c 0,31,32
 1592 503 1592 503 1577.5 483 c 128,-1,33
 1563 463 1563 463 1529 463 c 2,34,-1
 904 463 l 1,35,36
 905 388 905 388 921.5 321.5 c 128,-1,37
 938 255 938 255 973 206 c 128,-1,38
 1008 157 1008 157 1063.5 128.5 c 128,-1,39
 1119 100 1119 100 1199 100 c 0,40,41
 1236 100 1236 100 1273.5 108.5 c 128,-1,42
 1311 117 1311 117 1345 131.5 c 128,-1,43
 1379 146 1379 146 1409 163.5 c 128,-1,44
 1439 181 1439 181 1463 199 c 0,45,46
 1474 207 1474 207 1484.5 210.5 c 128,-1,47
 1495 214 1495 214 1504 214 c 0,48,49
 1526 214 1526 214 1539.5 199 c 128,-1,50
 1553 184 1553 184 1553 163 c 0,51,52
 1553 138 1553 138 1533 115 c 0,53,54
 1509 86 1509 86 1471 60 c 128,-1,55
 1433 34 1433 34 1384.5 14.5 c 128,-1,56
 1336 -5 1336 -5 1278.5 -16.5 c 128,-1,57
 1221 -28 1221 -28 1157 -28 c 0,58,59
 1095 -28 1095 -28 1042.5 -11.5 c 128,-1,60
 990 5 990 5 947.5 35 c 128,-1,61
 905 65 905 65 872 106.5 c 128,-1,62
 839 148 839 148 815 199 c 1,63,64
 786 137 786 137 741 94 c 128,-1,65
 696 51 696 51 642.5 24 c 128,-1,66
 589 -3 589 -3 531 -15.5 c 128,-1,67
 473 -28 473 -28 419 -28 c 0,68,69
 344 -28 344 -28 280.5 -7.5 c 128,-1,70
 217 13 217 13 170 52 c 128,-1,71
 123 91 123 91 96.5 147.5 c 128,-1,72
 70 204 70 204 70 276 c 0,73,74
 70 368 70 368 110.5 432 c 128,-1,75
 151 496 151 496 224 535.5 c 128,-1,76
 297 575 297 575 399.5 593 c 128,-1,77
 502 611 502 611 626 611 c 0,78,79
 652 611 652 611 681.5 610 c 128,-1,80
 711 609 711 609 739 608 c 1,81,-1
 739 690 l 2,0,1
1436 579 m 1,82,83
 1431 648 1431 648 1413.5 706.5 c 128,-1,84
 1396 765 1396 765 1364 807.5 c 128,-1,85
 1332 850 1332 850 1285.5 874 c 128,-1,86
 1239 898 1239 898 1176 898 c 256,87,88
 1113 898 1113 898 1065 872 c 128,-1,89
 1017 846 1017 846 983.5 802 c 128,-1,90
 950 758 950 758 931 700 c 128,-1,91
 912 642 912 642 907 579 c 1,92,-1
 1436 579 l 1,82,83
738 491 m 1,93,94
 693 489 693 489 638.5 489 c 128,-1,95
 584 489 584 489 527.5 485 c 128,-1,96
 471 481 471 481 418 470.5 c 128,-1,97
 365 460 365 460 323.5 437 c 128,-1,98
 282 414 282 414 257 376 c 128,-1,99
 232 338 232 338 232 280 c 0,100,101
 232 233 232 233 249 198 c 128,-1,102
 266 163 266 163 295 139.5 c 128,-1,103
 324 116 324 116 363.5 104.5 c 128,-1,104
 403 93 403 93 447 92 c 1,105,106
 506 93 506 93 558 112.5 c 128,-1,107
 610 132 610 132 649 170 c 128,-1,108
 688 208 688 208 711.5 264.5 c 128,-1,109
 735 321 735 321 738 397 c 1,110,-1
 738 491 l 1,93,94
EndSplineSet
EndChar

StartChar: eth
Encoding: 240 240 178
Width: 1169
Flags: W
LayerCount: 2
Fore
SplineSet
634 1052 m 2,0,1
 602 1052 602 1052 586 1071.5 c 128,-1,2
 570 1091 570 1091 570 1114 c 256,3,4
 570 1137 570 1137 586 1157 c 128,-1,5
 602 1177 602 1177 634 1177 c 2,6,-1
 809 1177 l 1,7,8
 786 1235 786 1235 751.5 1293 c 128,-1,9
 717 1351 717 1351 674 1401 c 0,10,11
 663 1414 663 1414 658 1427.5 c 128,-1,12
 653 1441 653 1441 653 1453 c 0,13,14
 653 1484 653 1484 677 1505 c 128,-1,15
 701 1526 701 1526 734 1526 c 0,16,17
 771 1526 771 1526 809 1491 c 128,-1,18
 847 1456 847 1456 881.5 1404 c 128,-1,19
 916 1352 916 1352 945 1290.5 c 128,-1,20
 974 1229 974 1229 994 1177 c 1,21,-1
 1167 1177 l 2,22,23
 1199 1177 1199 1177 1214.5 1157.5 c 128,-1,24
 1230 1138 1230 1138 1230 1115 c 256,25,26
 1230 1092 1230 1092 1214 1072 c 128,-1,27
 1198 1052 1198 1052 1167 1052 c 2,28,-1
 1033 1052 l 1,29,30
 1059 940 1059 940 1070 829 c 128,-1,31
 1081 718 1081 718 1081 619 c 0,32,33
 1081 491 1081 491 1055.5 373.5 c 128,-1,34
 1030 256 1030 256 969 165.5 c 128,-1,35
 908 75 908 75 807 21 c 128,-1,36
 706 -33 706 -33 556 -33 c 0,37,38
 447 -33 447 -33 360.5 3 c 128,-1,39
 274 39 274 39 213.5 102 c 128,-1,40
 153 165 153 165 121 251 c 128,-1,41
 89 337 89 337 89 438 c 0,42,43
 89 537 89 537 118.5 620 c 128,-1,44
 148 703 148 703 204.5 762.5 c 128,-1,45
 261 822 261 822 343 855.5 c 128,-1,46
 425 889 425 889 529 889 c 0,47,48
 589 889 589 889 645 876 c 128,-1,49
 701 863 701 863 748 836.5 c 128,-1,50
 795 810 795 810 833 770.5 c 128,-1,51
 871 731 871 731 895 677 c 1,52,-1
 899 677 l 1,53,54
 899 756 899 756 889 853 c 128,-1,55
 879 950 879 950 852 1052 c 1,56,-1
 634 1052 l 2,0,1
572 107 m 0,57,58
 638 107 638 107 693.5 132.5 c 128,-1,59
 749 158 749 158 789 200.5 c 128,-1,60
 829 243 829 243 851.5 300 c 128,-1,61
 874 357 874 357 874 420 c 0,62,63
 874 493 874 493 853 556 c 128,-1,64
 832 619 832 619 790.5 665 c 128,-1,65
 749 711 749 711 688.5 737 c 128,-1,66
 628 763 628 763 549 763 c 0,67,68
 474 763 474 763 421 735.5 c 128,-1,69
 368 708 368 708 334 661.5 c 128,-1,70
 300 615 300 615 284 554.5 c 128,-1,71
 268 494 268 494 268 428 c 0,72,73
 268 358 268 358 288 299 c 128,-1,74
 308 240 308 240 346.5 197.5 c 128,-1,75
 385 155 385 155 441.5 131 c 128,-1,76
 498 107 498 107 572 107 c 0,57,58
EndSplineSet
EndChar

StartChar: divide
Encoding: 247 247 185
Width: 1340
Flags: W
LayerCount: 2
Fore
SplineSet
215 446 m 2,0,1
 183 446 183 446 167 467 c 128,-1,2
 151 488 151 488 151 514 c 256,3,4
 151 540 151 540 167 561.5 c 128,-1,5
 183 583 183 583 215 583 c 2,6,-1
 1132 583 l 2,7,8
 1164 583 1164 583 1180 561.5 c 128,-1,9
 1196 540 1196 540 1196 514 c 256,10,11
 1196 488 1196 488 1180 467 c 128,-1,12
 1164 446 1164 446 1132 446 c 2,13,-1
 215 446 l 2,0,1
568 84 m 0,14,15
 568 101 568 101 575 117.5 c 128,-1,16
 582 134 582 134 595 147 c 128,-1,17
 608 160 608 160 627 168 c 128,-1,18
 646 176 646 176 671 176 c 256,19,20
 696 176 696 176 715 168 c 128,-1,21
 734 160 734 160 747 147 c 128,-1,22
 760 134 760 134 766.5 117.5 c 128,-1,23
 773 101 773 101 773 84 c 0,24,25
 773 48 773 48 747 19.5 c 128,-1,26
 721 -9 721 -9 671 -9 c 256,27,28
 621 -9 621 -9 594.5 19.5 c 128,-1,29
 568 48 568 48 568 84 c 0,14,15
568 947 m 0,30,31
 568 965 568 965 575 981.5 c 128,-1,32
 582 998 582 998 595 1010.5 c 128,-1,33
 608 1023 608 1023 627 1031 c 128,-1,34
 646 1039 646 1039 671 1039 c 256,35,36
 696 1039 696 1039 715 1031 c 128,-1,37
 734 1023 734 1023 747 1010.5 c 128,-1,38
 760 998 760 998 766.5 981.5 c 128,-1,39
 773 965 773 965 773 947 c 0,40,41
 773 911 773 911 747 882.5 c 128,-1,42
 721 854 721 854 671 854 c 256,43,44
 621 854 621 854 594.5 882.5 c 128,-1,45
 568 911 568 911 568 947 c 0,30,31
EndSplineSet
EndChar

StartChar: oslash
Encoding: 248 248 186
Width: 1162
Flags: W
LayerCount: 2
Fore
SplineSet
86 495 m 0,0,1
 86 595 86 595 116 689.5 c 128,-1,2
 146 784 146 784 207 857.5 c 128,-1,3
 268 931 268 931 361 975.5 c 128,-1,4
 454 1020 454 1020 580 1020 c 0,5,6
 615 1020 615 1020 647 1016.5 c 128,-1,7
 679 1013 679 1013 709 1006 c 1,8,-1
 760 1136 l 2,9,10
 769 1159 769 1159 786.5 1169.5 c 128,-1,11
 804 1180 804 1180 824 1180 c 0,12,13
 848 1180 848 1180 868 1164.5 c 128,-1,14
 888 1149 888 1149 888 1121 c 0,15,16
 888 1108 888 1108 882 1093 c 2,17,-1
 831 959 l 1,18,19
 893 925 893 925 939 875 c 128,-1,20
 985 825 985 825 1015 764 c 128,-1,21
 1045 703 1045 703 1060 634 c 128,-1,22
 1075 565 1075 565 1075 495 c 0,23,24
 1075 396 1075 396 1045 302 c 128,-1,25
 1015 208 1015 208 954 134.5 c 128,-1,26
 893 61 893 61 799.5 16.5 c 128,-1,27
 706 -28 706 -28 580 -28 c 0,28,29
 548 -28 548 -28 519 -24.5 c 128,-1,30
 490 -21 490 -21 463 -16 c 1,31,-1
 415 -139 l 2,32,33
 406 -162 406 -162 390 -172 c 128,-1,34
 374 -182 374 -182 355 -182 c 0,35,36
 330 -182 330 -182 310.5 -166 c 128,-1,37
 291 -150 291 -150 291 -122 c 0,38,39
 291 -108 291 -108 296 -95 c 2,40,-1
 343 26 l 1,41,42
 277 59 277 59 229 109.5 c 128,-1,43
 181 160 181 160 149 221.5 c 128,-1,44
 117 283 117 283 101.5 353 c 128,-1,45
 86 423 86 423 86 495 c 0,0,1
907 495 m 0,46,47
 907 538 907 538 899 583.5 c 128,-1,48
 891 629 891 629 874.5 672.5 c 128,-1,49
 858 716 858 716 831.5 754 c 128,-1,50
 805 792 805 792 769 820 c 1,51,-1
 513 101 l 1,52,53
 545 93 545 93 580 93 c 0,54,55
 668 93 668 93 730 129.5 c 128,-1,56
 792 166 792 166 831.5 224 c 128,-1,57
 871 282 871 282 889 353.5 c 128,-1,58
 907 425 907 425 907 495 c 0,46,47
253 495 m 0,59,60
 253 450 253 450 261.5 403 c 128,-1,61
 270 356 270 356 288.5 311.5 c 128,-1,62
 307 267 307 267 336 228.5 c 128,-1,63
 365 190 365 190 405 163 c 1,64,-1
 659 887 l 1,65,66
 641 893 641 893 621.5 895.5 c 128,-1,67
 602 898 602 898 580 898 c 0,68,69
 493 898 493 898 431 861.5 c 128,-1,70
 369 825 369 825 329.5 767.5 c 128,-1,71
 290 710 290 710 271.5 638 c 128,-1,72
 253 566 253 566 253 495 c 0,59,60
EndSplineSet
EndChar

StartChar: thorn
Encoding: 254 254 192
Width: 455
Flags: W
LayerCount: 2
Fore
SplineSet
-84 -263 m 2,0,1
 -84 -303 -84 -303 -108.5 -323 c 128,-1,2
 -133 -343 -133 -343 -162 -343 c 256,3,4
 -191 -343 -191 -343 -215 -323 c 128,-1,5
 -239 -303 -239 -303 -239 -263 c 2,6,-1
 -239 1352 l 2,7,8
 -239 1388 -239 1388 -213.5 1406.5 c 128,-1,9
 -188 1425 -188 1425 -158 1425 c 256,10,11
 -128 1425 -128 1425 -103.5 1407 c 128,-1,12
 -79 1389 -79 1389 -79 1352 c 2,13,-1
 -79 830 l 1,14,15
 -52 877 -52 877 -12.5 912.5 c 128,-1,16
 27 948 27 948 73.5 972 c 128,-1,17
 120 996 120 996 171.5 1008 c 128,-1,18
 223 1020 223 1020 274 1020 c 0,19,20
 385 1020 385 1020 464.5 976.5 c 128,-1,21
 544 933 544 933 595 861 c 128,-1,22
 646 789 646 789 670 695 c 128,-1,23
 694 601 694 601 694 500 c 0,24,25
 694 436 694 436 683.5 372 c 128,-1,26
 673 308 673 308 651.5 249 c 128,-1,27
 630 190 630 190 596.5 139.5 c 128,-1,28
 563 89 563 89 517 52 c 128,-1,29
 471 15 471 15 412 -6.5 c 128,-1,30
 353 -28 353 -28 280 -28 c 0,31,32
 169 -28 169 -28 75.5 21.5 c 128,-1,33
 -18 71 -18 71 -84 173 c 1,34,-1
 -84 -263 l 2,0,1
-79 514 m 0,35,36
 -79 430 -79 430 -63 354.5 c 128,-1,37
 -47 279 -47 279 -9.5 221.5 c 128,-1,38
 28 164 28 164 90.5 130.5 c 128,-1,39
 153 97 153 97 247 97 c 0,40,41
 331 97 331 97 385 136 c 128,-1,42
 439 175 439 175 470 235.5 c 128,-1,43
 501 296 501 296 513 368.5 c 128,-1,44
 525 441 525 441 525 508 c 0,45,46
 525 578 525 578 510 647 c 128,-1,47
 495 716 495 716 460.5 771 c 128,-1,48
 426 826 426 826 369.5 860 c 128,-1,49
 313 894 313 894 231 894 c 0,50,51
 147 894 147 894 88 862.5 c 128,-1,52
 29 831 29 831 -8 778.5 c 128,-1,53
 -45 726 -45 726 -62 657 c 128,-1,54
 -79 588 -79 588 -79 514 c 0,35,36
EndSplineSet
EndChar

StartChar: dotlessi
Encoding: 305 305 194
Width: 474
Flags: W
LayerCount: 2
Fore
SplineSet
157 911 m 2,0,1
 157 951 157 951 182.5 971 c 128,-1,2
 208 991 208 991 238 991 c 0,3,4
 253 991 253 991 267 986 c 128,-1,5
 281 981 281 981 292 971 c 128,-1,6
 303 961 303 961 310 946 c 128,-1,7
 317 931 317 931 317 911 c 2,8,-1
 317 81 l 2,9,10
 317 41 317 41 291 20.5 c 128,-1,11
 265 0 265 0 235 0 c 256,12,13
 205 0 205 0 181 19.5 c 128,-1,14
 157 39 157 39 157 81 c 2,15,-1
 157 911 l 2,0,1
EndSplineSet
EndChar

